<?xml version="1.0" encoding="iso-8859-1"?>
<!-- Uploaded to: SVG Repo, www.svgrepo.com, Generator: SVG Repo Mixer Tools -->
<!DOCTYPE svg PUBLIC "-//W3C//DTD SVG 1.1//EN" "http://www.w3.org/Graphics/SVG/1.1/DTD/svg11.dtd">
<svg fill="#000000" version="1.1" id="Capa_1" xmlns="http://www.w3.org/2000/svg" xmlns:xlink="http://www.w3.org/1999/xlink" 
	 width="800px" height="800px" viewBox="0 0 53.601 53.601"
	 xml:space="preserve">
<g>
	<g>
		<path d="M52.919,19.999l-0.237-0.727c-1.528,0.493-4.619,9.884-4.619,9.884s-0.126-9.47,2.479-14.17l-0.447-0.677
			c-1.149,1.145-4.435,12.405-4.435,12.405s0.07-16.147,2.053-18.749l-0.666-0.435c-2.025,3.261-5.039,17.853-5.039,17.853
			L40.174,0.712L39.408,0l-0.737,29.083c0,0-4.042-10.364-8.546-14.666l-1.413,0.395c5.406,6.515,8.465,21.913,8.859,23.729
			c0.395,1.815,10.872,0.876,11.777,0s0.44-7.023,0.44-7.023S50.368,23.141,52.919,19.999z"/>
		<path d="M38.138,2.67c0,0-0.722,6.882-6.456,11.595c2.847,2.888,6.031,9.64,6.031,9.64L38.138,2.67z"/>
		<path d="M45.87,7.428c-3.495-1.572-4.293-5.265-4.293-5.265l0.808,16.859C42.385,19.021,44.721,10.443,45.87,7.428z"/>
		<path d="M46.591,21.018c0,0,1.615-4.746,2.76-7.761c-2.039-0.989-1.414-4.172-1.414-4.172
			C47.013,11.761,46.591,21.018,46.591,21.018z"/>
		<path d="M48.927,24.204c0,0,1.231-3.399,3.057-5.564c-1.528-0.892-1.146-2.802-1.146-2.802
			C49.912,18.512,48.927,24.204,48.927,24.204z"/>
		<path d="M14.926,43.103L14.19,14.019l-0.766,0.713L11.594,39.4c0,0-3.014-14.594-5.039-17.853l-0.666,0.435
			C7.872,24.584,7.941,40.73,7.941,40.73s-3.286-11.26-4.436-12.404l-0.448,0.678c2.605,4.701,2.481,14.167,2.481,14.167
			S2.446,33.78,0.918,33.29l-0.236,0.725c2.549,3.144,3.131,11.524,3.131,11.524s-0.47,6.147,0.439,7.023
			c0.908,0.876,11.382,1.813,11.777,0c0.395-1.813,3.455-17.215,8.859-23.73l-1.415-0.396
			C18.969,32.737,14.926,43.103,14.926,43.103z"/>
		<path d="M21.916,28.28c-5.735-4.714-6.457-11.596-6.457-11.596l0.425,21.235C15.884,37.92,19.067,31.168,21.916,28.28z"/>
		<path d="M12.02,16.176c0,0-0.798,3.695-4.291,5.265c1.147,3.016,3.483,11.594,3.483,11.594L12.02,16.176z"/>
		<path d="M5.661,23.099c0,0,0.625,3.183-1.413,4.172c1.146,3.017,2.76,7.761,2.76,7.761S6.585,25.776,5.661,23.099z"/>
		<path d="M2.761,29.853c0,0,0.383,1.909-1.147,2.803c1.827,2.165,3.058,5.563,3.058,5.563S3.686,32.527,2.761,29.853z"/>
	</g>
</g>
</svg>