<?xml version="1.0" encoding="UTF-8" standalone="no"?>
<svg 
  version="1.1" 
  xmlns="http://www.w3.org/2000/svg" 
  xmlns:xlink="http://www.w3.org/1999/xlink" 
  xmlns:svg="http://www.w3.org/2000/svg"
  xmlns:rdf="http://www.w3.org/1999/02/22-rdf-syntax-ns#"
  xmlns:cc="http://creativecommons.org/ns#"
  xmlns:dc="http://purl.org/dc/elements/1.1/"
  viewBox="0 0 768 768"
  width="768"
  height="768"
>
<style>svg {background-color: white; }</style>"
<metadata id="metadata1">
Created by https://svgstud.io and licensed under CC-BY-SA 4.0 license. Please attribute https://svgstud.io
</metadata>
<metadata id="prompt">
fire sword
</metadata>
<metadata id="version">
7
</metadata>
<metadata id="metadata2">
<rdf:RDF>
<cc:Work
    rdf:about="">
    <cc:license
    rdf:resource="http://creativecommons.org/licenses/by-sa/4.0/" />
    <dc:creator>
        <cc:Agent>
            <dc:title>https://svgstud.io</dc:title>
        </cc:Agent>
    </dc:creator>
</cc:Work>
<cc:License
    rdf:about="http://creativecommons.org/licenses/by-sa/4.0/">
    <cc:permits
    rdf:resource="http://creativecommons.org/ns#Reproduction" />
    <cc:permits
    rdf:resource="http://creativecommons.org/ns#Distribution" />
    <cc:requires
    rdf:resource="http://creativecommons.org/ns#Notice" />
    <cc:requires
    rdf:resource="http://creativecommons.org/ns#Attribution" />
    <cc:permits
    rdf:resource="http://creativecommons.org/ns#DerivativeWorks" />
    <cc:requires
    rdf:resource="http://creativecommons.org/ns#ShareAlike" />
</cc:License>
</rdf:RDF>
</metadata>
<metadata id="uid">
8052faa3ff2c6f4b01e76a577f6942aa5125e3d26ae4fdb3a5dbd53f142c9962
</metadata>
<path stroke="none" fill="black" fill-rule="evenodd" d="M118.00,749.51C105.62,749.67 93.92,749.62 92.00,749.39C90.08,749.17 82.71,748.28 75.64,747.42C68.57,746.56 62.16,745.62 61.39,745.32C60.60,745.02 60.00,743.40 60.00,741.58C60.00,739.81 61.56,732.79 63.47,725.96C65.38,719.14 69.00,708.29 71.51,701.87C74.02,695.45 78.33,686.43 81.09,681.84C83.85,677.26 87.36,672.15 88.89,670.50C90.42,668.85 92.49,665.29 93.48,662.60C94.47,659.90 96.87,655.94 98.81,653.79C100.75,651.65 104.40,648.68 106.92,647.19C110.70,644.97 113.10,644.41 120.70,643.97C128.69,643.50 130.26,643.11 132.56,640.97C134.02,639.61 140.49,632.20 146.94,624.50C153.38,616.80 162.36,605.63 166.89,599.68C175.12,588.86 175.12,588.86 171.94,583.91C170.20,581.19 167.69,578.12 166.38,577.08C164.86,575.89 161.46,574.95 157.08,574.51C152.26,574.02 149.53,573.21 148.03,571.81C146.85,570.71 145.46,568.70 144.94,567.34C144.42,565.98 144.00,563.08 144.00,560.90C144.00,558.71 144.87,555.21 145.94,553.12C147.01,551.02 149.56,547.83 151.62,546.03C153.67,544.23 156.89,542.11 158.77,541.32C160.64,540.54 164.63,539.45 167.64,538.89C171.46,538.18 174.71,538.21 178.46,538.99C182.81,539.89 185.11,541.24 190.59,546.08C194.31,549.36 198.40,552.31 199.68,552.63C200.95,552.95 203.10,552.94 204.45,552.60C205.97,552.22 210.85,547.28 217.15,539.74C222.79,533.01 229.33,525.31 231.70,522.64C234.06,519.97 236.00,517.11 236.00,516.28C236.00,515.45 232.33,510.90 227.85,506.16C223.28,501.34 218.67,495.34 217.36,492.52C216.07,489.76 215.02,485.99 215.01,484.15C215.00,482.31 215.73,479.26 216.63,477.37C217.53,475.48 220.02,472.43 222.17,470.59C224.32,468.74 228.09,466.67 230.55,465.99C233.49,465.16 238.49,464.93 245.25,465.29C251.55,465.63 258.15,466.67 262.36,468.00C266.13,469.19 270.25,469.90 271.50,469.59C272.75,469.27 274.08,468.23 274.45,467.27C274.90,466.11 274.39,464.93 272.97,463.77C271.78,462.81 267.23,460.90 262.85,459.51C258.48,458.13 253.78,457.00 252.42,457.00C251.05,457.00 249.70,456.38 249.41,455.63C249.12,454.87 250.71,451.42 252.95,447.95C255.19,444.49 257.53,439.96 258.15,437.90C259.00,435.07 258.98,432.95 258.07,429.32C257.41,426.67 255.82,422.70 254.53,420.50C253.24,418.30 248.88,413.35 244.83,409.50C240.78,405.65 234.98,400.76 231.94,398.64C228.90,396.51 224.69,392.46 222.57,389.64C220.46,386.81 217.88,382.60 216.83,380.28C215.79,377.96 214.41,372.45 213.76,368.03C213.12,363.61 212.21,360.00 211.75,360.00C211.29,360.00 209.81,362.36 208.46,365.25C206.60,369.25 206.02,372.18 206.01,377.59C206.00,381.49 206.88,388.11 207.95,392.31C209.03,396.51 211.28,402.54 212.96,405.72C215.81,411.12 215.88,411.52 214.09,411.81C213.03,411.98 209.94,410.99 207.22,409.61C204.50,408.23 199.75,404.79 196.65,401.96C192.75,398.40 189.94,394.61 187.52,389.66C185.59,385.72 183.29,379.58 182.39,376.02C181.12,370.95 180.87,366.36 181.25,355.02C181.68,341.88 182.08,339.38 185.39,328.68C187.40,322.18 191.12,312.73 193.66,307.68C196.19,302.63 200.09,295.80 202.32,292.50C204.55,289.20 208.88,283.86 211.94,280.64C215.00,277.42 221.05,272.11 225.39,268.84C229.72,265.56 236.25,261.39 239.89,259.56C243.52,257.73 249.55,255.29 253.27,254.14C257.00,252.99 263.07,251.77 266.77,251.44C270.47,251.10 275.07,250.34 277.00,249.76C278.93,249.17 285.15,245.58 290.83,241.77C296.52,237.96 302.91,233.27 305.04,231.35C307.16,229.43 310.46,225.51 312.36,222.65C314.26,219.78 316.51,214.98 317.36,211.97C318.21,208.96 319.04,205.15 319.21,203.50C319.51,200.50 319.51,200.50 322.67,203.76C324.40,205.55 326.53,209.10 327.40,211.65C328.27,214.20 329.27,219.82 329.63,224.14C329.99,228.47 330.62,232.00 331.03,232.00C331.43,232.00 334.58,228.13 338.02,223.39C341.46,218.66 345.16,212.47 346.24,209.64C347.70,205.82 348.09,202.95 347.74,198.47C347.48,195.13 346.27,190.45 345.04,187.97C343.82,185.51 338.89,179.68 334.08,175.00C328.37,169.44 324.42,164.61 322.67,161.05C320.48,156.58 320.00,154.23 320.00,147.91C320.00,142.98 320.75,137.74 322.08,133.36C323.22,129.58 326.54,122.45 329.47,117.50C332.39,112.55 335.50,106.76 336.39,104.63C337.28,102.50 338.00,99.27 338.00,97.46C338.00,95.65 337.73,93.45 337.39,92.58C337.06,91.71 335.74,91.00 334.47,91.00C333.19,91.00 329.09,92.59 325.36,94.54C321.62,96.48 315.49,100.41 311.74,103.27C307.98,106.13 302.51,111.31 299.58,114.79C296.66,118.28 293.05,123.52 291.57,126.45C290.02,129.52 288.64,134.25 288.31,137.63C287.73,143.50 287.73,143.50 294.45,136.75C298.14,133.04 301.63,130.00 302.20,130.00C302.77,130.00 303.01,130.79 302.73,131.75C302.45,132.71 300.97,137.55 299.43,142.50C297.01,150.25 296.64,153.06 296.72,162.75C296.78,168.94 296.47,174.00 296.03,174.00C295.60,174.00 293.55,171.94 291.49,169.43C289.43,166.91 287.37,165.23 286.91,165.69C286.46,166.14 285.33,169.44 284.42,173.01C283.30,177.37 282.94,181.47 283.33,185.50C283.64,188.80 285.27,195.94 286.95,201.37C288.63,206.80 290.00,212.32 290.00,213.62C290.00,214.93 289.61,216.00 289.13,216.00C288.66,216.00 285.01,214.12 281.03,211.81C277.05,209.51 271.79,205.67 269.33,203.29C266.82,200.84 263.48,196.01 261.69,192.22C258.68,185.87 258.50,184.86 258.51,174.00C258.52,164.81 258.98,161.02 260.83,155.12C262.10,151.06 264.83,144.09 266.90,139.62C268.97,135.15 273.22,127.36 276.36,122.30C279.50,117.24 285.00,109.36 288.59,104.80C292.19,100.23 299.17,92.12 304.11,86.78C309.06,81.43 318.71,72.30 325.57,66.50C332.43,60.70 344.08,51.95 351.47,47.06C358.85,42.17 372.30,34.30 381.35,29.57C390.39,24.83 402.64,18.93 408.56,16.45C414.48,13.97 423.14,10.60 427.80,8.95C432.45,7.31 441.64,4.60 448.22,2.95C460.17,-0.07 460.17,-0.07 495.33,0.23C528.92,0.53 531.19,0.67 546.00,3.37C554.52,4.93 566.45,7.48 572.50,9.03C578.55,10.58 584.84,12.36 586.48,12.98C589.41,14.11 589.26,14.22 575.48,21.12C567.79,24.97 558.84,29.25 555.59,30.64C550.59,32.77 549.32,32.97 547.40,31.95C545.85,31.12 543.12,30.95 538.84,31.44C535.38,31.83 528.27,33.52 523.03,35.20C517.79,36.88 509.75,39.98 505.16,42.10C500.57,44.22 494.02,47.95 490.61,50.38C487.20,52.82 481.65,57.76 478.27,61.37C474.90,64.97 470.57,70.75 468.66,74.21C466.74,77.67 464.46,82.94 463.59,85.93C462.71,88.92 462.00,94.79 462.00,98.97C462.00,103.16 462.68,109.19 463.51,112.38C464.34,115.57 466.00,120.50 467.19,123.34C468.39,126.18 470.92,130.97 472.81,134.00C474.70,137.03 478.66,142.47 481.61,146.09C484.56,149.72 487.65,154.32 488.49,156.31C489.32,158.31 490.00,161.79 490.00,164.07C490.00,166.34 489.28,169.71 488.40,171.56C487.53,173.41 484.79,176.78 482.33,179.05C479.87,181.32 475.84,184.07 473.39,185.15C470.94,186.24 467.71,186.99 466.21,186.81C463.78,186.53 463.37,185.89 462.18,180.50C461.45,177.20 460.19,172.62 459.38,170.33C458.56,168.03 456.55,164.30 454.91,162.04C453.27,159.78 451.50,158.19 450.97,158.52C450.43,158.85 450.00,160.42 450.00,162.02C450.00,163.62 449.05,167.48 447.88,170.59C446.71,173.71 442.92,179.98 439.46,184.52C435.99,189.07 432.23,194.59 431.10,196.80C429.97,199.01 428.77,202.56 428.43,204.70C428.09,206.84 428.32,210.48 428.95,212.80C429.57,215.13 432.05,219.44 434.45,222.39C436.85,225.34 439.58,229.23 440.52,231.04C441.45,232.85 442.45,236.89 442.74,240.02C443.04,243.36 442.73,247.32 441.98,249.60C441.28,251.75 439.37,255.53 437.73,258.00C436.08,260.48 431.79,264.98 428.19,268.00C424.58,271.02 421.33,273.63 420.95,273.79C420.57,273.95 419.97,271.47 419.61,268.29C419.25,265.10 417.89,260.20 416.59,257.40C415.29,254.59 412.26,250.40 409.86,248.10C407.18,245.52 401.26,241.86 394.50,238.60C386.84,234.92 382.40,232.09 379.87,229.29C377.87,227.07 375.32,222.80 374.20,219.80C373.07,216.79 371.67,210.84 371.07,206.56C370.48,202.29 369.74,198.38 369.43,197.88C369.12,197.38 368.44,197.23 367.91,197.55C367.39,197.87 364.69,201.52 361.90,205.65C359.11,209.78 355.05,216.87 352.87,221.41C349.88,227.64 348.77,231.37 348.33,236.63C347.90,241.68 348.21,245.24 349.45,249.55C350.88,254.54 352.05,256.31 356.71,260.50C359.77,263.25 364.86,267.98 368.03,271.00C372.60,275.37 374.13,277.63 375.42,282.00C376.81,286.72 376.87,288.52 375.83,294.75C375.01,299.63 374.93,302.89 375.58,304.75C376.24,306.63 377.25,307.50 378.76,307.50C380.35,307.50 382.04,305.87 384.77,301.72C386.87,298.54 392.83,290.82 398.04,284.57C403.24,278.32 408.35,272.67 409.38,272.01C410.88,271.06 411.44,271.09 412.12,272.16C412.59,272.90 412.98,274.88 412.98,276.56C412.99,278.24 412.05,283.38 410.89,287.98C409.49,293.52 408.97,297.79 409.37,300.67C409.70,303.05 411.38,308.58 413.10,312.95C415.17,318.18 416.03,321.75 415.62,323.39C415.27,324.75 410.31,330.74 404.58,336.69C396.09,345.50 394.04,347.17 393.47,345.73C393.09,344.76 393.47,341.85 394.32,339.26C395.18,336.66 395.68,334.35 395.44,334.11C395.20,333.87 393.95,334.16 392.65,334.75C391.35,335.34 386.14,339.77 381.07,344.60C376.00,349.42 370.97,355.10 369.89,357.21C368.81,359.33 367.83,363.40 367.72,366.27C367.53,370.82 367.79,371.61 369.75,372.48C370.99,373.03 372.00,373.83 372.00,374.26C372.00,374.69 370.09,377.16 367.75,379.75C365.41,382.34 355.40,393.20 345.50,403.89C335.60,414.57 321.88,429.45 315.00,436.95C308.12,444.44 297.20,456.38 290.72,463.46C284.25,470.55 279.11,476.83 279.31,477.42C279.50,478.02 283.90,480.39 289.08,482.70C294.26,485.00 298.82,486.92 299.20,486.95C299.59,486.98 304.12,481.93 309.28,475.74C314.43,469.55 323.79,459.13 330.07,452.58C336.36,446.04 344.14,438.48 347.36,435.79C350.59,433.10 353.47,431.13 353.75,431.42C354.04,431.71 352.84,434.32 351.08,437.22C349.32,440.13 340.04,453.07 330.45,466.00C320.86,478.93 312.36,490.85 311.56,492.50C310.18,495.34 310.24,495.64 312.80,498.31C315.50,501.13 315.50,501.13 318.50,497.77C320.15,495.93 327.12,487.50 334.00,479.05C340.88,470.60 353.93,454.35 363.00,442.95C372.07,431.54 387.59,412.15 397.47,399.85C407.35,387.56 418.82,373.42 422.97,368.43C427.11,363.44 434.54,354.67 439.47,348.93C444.40,343.19 453.62,332.70 459.97,325.61C466.31,318.53 474.09,309.60 477.25,305.78C480.41,301.95 483.00,298.41 483.00,297.91C483.00,297.41 482.44,297.00 481.75,297.00C481.06,297.01 476.04,300.38 470.58,304.51C465.13,308.63 460.48,311.81 460.25,311.58C460.01,311.35 460.89,309.58 462.20,307.66C463.50,305.74 471.99,295.92 481.06,285.83C490.13,275.75 503.65,260.52 511.10,252.00C518.55,243.47 530.86,229.30 538.46,220.50C546.06,211.70 553.16,203.04 554.24,201.25C555.32,199.46 556.72,198.01 557.35,198.02C557.98,198.04 561.65,198.85 565.50,199.83C570.93,201.22 572.56,202.06 572.79,203.58C572.98,204.88 569.30,209.92 561.89,218.52C555.74,225.66 545.69,237.12 539.56,244.00C533.44,250.88 521.01,264.82 511.96,275.00C502.90,285.18 494.70,294.74 493.72,296.25C492.54,298.09 492.35,299.00 493.16,299.00C493.83,299.00 495.47,297.99 496.81,296.75C499.24,294.50 499.24,294.50 496.72,299.50C495.33,302.25 490.64,309.00 486.30,314.50C481.96,320.00 474.61,329.45 469.98,335.50C465.35,341.55 453.45,356.31 443.53,368.31C433.61,380.31 424.43,391.44 423.12,393.06C420.74,396.00 420.74,396.00 423.12,395.98C424.43,395.97 427.30,395.13 429.50,394.12C431.70,393.10 435.52,390.30 438.00,387.89C440.48,385.47 445.27,380.49 448.65,376.82C452.03,373.15 456.54,369.25 458.68,368.16C460.81,367.07 467.46,364.54 473.45,362.54C479.44,360.54 485.72,357.94 487.42,356.78C489.11,355.61 493.50,351.80 497.17,348.31C500.84,344.82 505.50,341.27 507.53,340.42C509.56,339.58 511.42,339.09 511.68,339.34C511.93,339.60 511.12,342.21 509.88,345.15C508.63,348.09 506.62,352.11 505.40,354.08C504.18,356.05 501.05,359.55 498.43,361.85C495.82,364.15 490.88,367.41 487.46,369.09C483.56,371.02 478.56,372.49 474.04,373.06C470.08,373.56 465.18,374.41 463.15,374.96C461.12,375.51 457.53,377.37 455.17,379.10C452.82,380.84 448.68,385.52 445.99,389.52C443.29,393.52 439.52,398.07 437.61,399.64C435.71,401.21 430.83,403.73 426.77,405.24C422.69,406.76 418.23,409.21 416.79,410.74C415.36,412.26 408.18,420.98 400.84,430.12C393.50,439.26 378.70,457.71 367.95,471.12C357.20,484.53 344.99,500.00 340.83,505.50C336.67,511.00 332.71,516.55 332.05,517.84C330.99,519.88 331.20,520.75 333.66,524.46C335.22,526.82 338.40,531.55 340.72,534.97C343.04,538.40 345.85,543.65 346.97,546.64C348.15,549.81 349.00,554.49 349.00,557.87C349.00,562.66 348.47,564.46 345.93,568.29C344.19,570.92 340.30,574.64 336.95,576.87C333.70,579.04 329.35,581.10 327.26,581.46C324.71,581.89 321.38,581.44 316.99,580.06C313.42,578.94 309.95,578.02 309.29,578.01C308.62,578.01 305.64,577.09 302.66,575.98C298.10,574.27 296.88,573.25 294.88,569.48C293.57,567.01 292.22,565.00 291.87,565.00C291.52,565.00 289.72,566.71 287.87,568.80C286.01,570.90 281.44,576.63 277.71,581.55C273.97,586.47 269.13,592.94 266.96,595.93C264.78,598.92 263.00,601.64 263.00,601.98C263.00,602.32 265.91,606.98 269.48,612.35C273.04,617.71 276.44,623.94 277.05,626.18C277.65,628.43 277.86,631.45 277.50,632.88C277.14,634.32 275.08,637.79 272.92,640.59C270.66,643.53 266.90,646.83 264.01,648.40C260.30,650.42 257.53,651.13 253.19,651.20C249.98,651.24 246.04,650.65 244.43,649.88C242.52,648.97 241.40,647.60 241.20,645.95C240.99,644.15 241.80,642.62 243.95,640.70C245.63,639.21 247.00,637.60 247.00,637.13C247.00,636.66 244.19,635.98 240.75,635.61C237.31,635.24 231.80,634.68 228.50,634.36C222.50,633.77 222.50,633.77 213.96,644.14C209.26,649.84 200.66,660.80 194.83,668.50C189.01,676.20 183.29,684.39 182.12,686.71C180.68,689.57 180.00,692.79 180.00,696.77C180.00,702.39 179.79,702.87 174.41,709.38C171.34,713.11 168.98,716.31 169.17,716.51C169.36,716.70 171.99,716.02 175.01,715.00C178.03,713.98 188.43,712.21 198.11,711.07C207.80,709.93 220.44,709.00 226.21,709.00C234.38,709.00 237.99,708.53 242.59,706.87C246.93,705.31 251.68,704.62 260.50,704.29C271.94,703.85 272.72,703.95 277.30,706.41C279.94,707.84 282.77,709.00 283.58,709.00C284.38,709.00 288.52,707.26 292.77,705.14C297.02,703.02 303.45,700.12 307.05,698.69C310.65,697.26 316.57,695.79 320.21,695.42C323.85,695.05 331.92,695.26 338.16,695.89C344.40,696.52 359.18,697.94 371.00,699.04C382.82,700.15 400.38,701.97 410.00,703.10C419.62,704.23 427.88,705.52 428.34,705.96C428.80,706.41 428.72,707.05 428.17,707.40C427.62,707.74 420.49,710.05 412.33,712.54C404.17,715.03 394.54,717.49 390.91,718.01C387.29,718.52 375.88,719.44 365.56,720.05C350.53,720.93 345.31,721.63 339.39,723.57C332.79,725.72 330.90,725.91 321.73,725.35C312.20,724.77 311.14,724.89 306.98,727.09C302.79,729.31 301.12,729.50 281.00,730.02C269.18,730.32 240.73,730.23 217.80,729.80C176.09,729.04 176.09,729.04 170.80,734.33C167.88,737.24 163.44,740.83 160.91,742.31C158.39,743.79 152.77,745.95 148.41,747.11C141.69,748.91 137.12,749.27 118.00,749.51zM106.93,736.00C110.75,736.00 116.95,735.35 120.71,734.56C124.47,733.77 129.56,732.22 132.02,731.13C134.49,730.03 138.64,727.87 141.25,726.32C143.86,724.77 148.69,720.84 152.00,717.60C155.30,714.35 158.00,710.96 158.00,710.05C158.00,709.14 157.46,707.86 156.80,707.20C156.14,706.54 154.68,706.01 153.55,706.01C152.42,706.02 148.35,708.74 144.50,712.05C140.65,715.37 133.90,720.33 129.50,723.07C124.83,725.99 117.65,729.29 112.24,731.03C107.14,732.66 102.31,734.00 101.49,734.00C100.67,734.00 100.00,734.45 100.00,735.00C100.00,735.57 102.98,736.00 106.93,736.00zM79.00,726.00C79.55,726.00 81.68,724.53 83.75,722.73C85.81,720.94 89.53,718.39 92.00,717.06C94.47,715.74 99.68,712.52 103.57,709.92C107.46,707.31 113.08,702.95 116.07,700.21C119.06,697.48 122.98,693.18 124.78,690.67C128.06,686.09 128.06,686.09 125.78,684.63C124.53,683.83 121.41,682.21 118.85,681.03C116.29,679.84 113.98,678.04 113.72,677.02C113.45,676.00 111.93,674.50 110.33,673.67C108.74,672.85 105.86,671.88 103.94,671.52C101.22,671.01 99.84,671.33 97.73,673.00C96.23,674.18 93.17,678.23 90.92,682.01C88.68,685.80 85.71,692.12 84.34,696.07C82.96,700.03 80.98,707.72 79.92,713.17C78.86,718.61 78.00,723.73 78.00,724.54C78.00,725.34 78.45,726.00 79.00,726.00zM168.73,705.00C169.43,705.00 170.00,704.15 170.00,703.11C170.00,702.07 168.50,699.03 166.67,696.36C164.84,693.69 159.32,688.01 154.42,683.74C149.51,679.47 143.14,674.34 140.25,672.32C137.36,670.31 135.00,668.08 135.00,667.37C135.00,666.65 135.97,665.55 137.15,664.92C138.78,664.05 140.28,664.07 143.40,665.00C145.65,665.68 150.20,667.51 153.50,669.09C157.12,670.81 159.64,671.52 159.86,670.88C160.07,670.29 158.27,667.79 155.86,665.33C153.21,662.61 148.36,659.34 143.50,657.00C139.10,654.88 131.85,652.37 127.38,651.43C122.58,650.42 118.09,650.01 116.38,650.44C114.80,650.83 111.36,653.37 108.75,656.07C106.14,658.78 104.00,661.67 104.00,662.50C104.00,663.32 104.83,664.00 105.84,664.00C106.86,664.00 110.19,664.86 113.26,665.92C116.32,666.97 122.10,669.47 126.09,671.48C130.08,673.48 136.69,677.43 140.79,680.27C144.89,683.10 152.56,689.82 157.85,695.21C163.14,700.59 168.04,705.00 168.73,705.00zM174.35,682.72C174.98,682.52 175.64,680.93 175.81,679.19C176.05,676.81 175.44,675.35 173.34,673.27C170.84,670.79 170.51,670.69 170.18,672.36C169.98,673.38 170.57,676.22 171.51,678.66C172.44,681.10 173.72,682.93 174.35,682.72zM185.71,664.00C186.06,664.00 187.17,663.26 188.17,662.35C189.18,661.43 190.00,659.70 190.00,658.50C190.00,657.30 189.11,655.50 188.02,654.52C186.40,653.05 185.76,652.95 184.52,653.98C183.68,654.68 183.00,656.34 183.00,657.69C183.00,659.03 183.47,661.00 184.04,662.07C184.60,663.13 185.36,664.00 185.71,664.00zM163.25,654.90C165.31,654.95 167.00,654.70 167.00,654.34C167.00,653.98 165.85,652.18 164.44,650.34C163.04,648.49 160.20,646.12 158.15,645.07C156.09,644.03 152.80,642.86 150.82,642.49C148.37,642.04 146.27,642.33 144.15,643.42C142.45,644.30 140.61,645.87 140.05,646.91C139.31,648.29 139.42,649.10 140.47,649.97C141.25,650.63 144.28,651.54 147.20,652.01C150.11,652.49 154.07,653.30 156.00,653.83C157.93,654.36 161.19,654.84 163.25,654.90zM169.69,642.92C170.90,642.96 172.18,642.52 172.54,641.94C172.90,641.35 172.36,639.94 171.35,638.79C170.33,637.65 168.15,635.86 166.50,634.82C163.50,632.93 163.50,632.93 171.90,633.21C177.57,633.41 180.42,633.13 180.70,632.35C180.92,631.71 179.62,629.80 177.80,628.10C175.99,626.40 172.99,624.50 171.13,623.89C169.28,623.27 165.98,623.01 163.81,623.30C161.63,623.59 158.98,624.61 157.92,625.57C156.87,626.53 156.00,627.91 156.00,628.65C156.00,629.39 157.46,630.68 159.25,631.51C161.04,632.35 161.67,632.79 160.65,632.51C159.63,632.22 157.05,632.51 154.91,633.14C152.78,633.78 150.27,635.15 149.34,636.18C148.15,637.49 147.96,638.36 148.71,639.11C149.29,639.69 153.31,640.59 157.63,641.11C161.96,641.63 165.95,642.24 166.50,642.45C167.05,642.67 168.49,642.88 169.69,642.92zM203.18,643.00C203.65,643.00 204.55,641.89 205.16,640.54C206.06,638.56 205.95,637.57 204.58,635.48C203.64,634.05 202.34,633.05 201.69,633.27C201.03,633.49 200.08,634.85 199.57,636.30C198.84,638.36 199.04,639.38 200.47,640.97C201.48,642.09 202.70,643.00 203.18,643.00zM259.94,634.00C260.46,634.00 261.68,632.65 262.66,631.00C263.91,628.89 264.96,628.17 266.22,628.57C267.49,628.97 267.99,628.61 267.97,627.32C267.96,626.32 266.49,622.81 264.72,619.52C262.04,614.53 260.81,613.29 257.36,612.02C254.36,610.92 250.37,607.48 242.82,599.50C237.10,593.45 230.71,586.07 228.61,583.11C224.80,577.72 224.80,577.72 231.65,581.51C235.42,583.60 239.85,586.22 241.50,587.33C243.15,588.45 246.67,591.35 249.32,593.78C251.96,596.21 254.41,597.93 254.75,597.59C255.08,597.25 254.03,595.07 252.39,592.74C250.76,590.41 244.72,584.56 238.96,579.74C233.21,574.92 225.12,569.22 221.00,567.08C216.88,564.93 210.35,562.21 206.50,561.04C202.65,559.86 197.55,558.01 195.17,556.92C192.78,555.83 189.03,552.96 186.83,550.54C184.63,548.12 181.33,545.44 179.51,544.57C177.69,543.71 173.66,543.00 170.56,543.00C166.92,543.00 163.55,543.70 161.05,544.97C158.93,546.06 156.25,548.14 155.09,549.61C153.94,551.07 153.00,553.11 153.00,554.13C153.00,555.16 153.23,556.00 153.52,556.00C153.81,556.00 155.73,554.88 157.79,553.52C159.85,552.16 162.93,550.76 164.64,550.42C166.36,550.08 168.82,550.33 170.13,550.98C171.43,551.63 174.97,554.77 178.00,557.95C183.28,563.51 183.97,563.89 195.08,567.36C201.45,569.35 208.17,571.99 210.00,573.24C211.84,574.48 213.52,576.05 213.74,576.71C213.96,577.38 212.99,578.22 211.57,578.57C210.16,578.93 209.00,579.51 209.00,579.86C209.01,580.21 211.83,581.96 215.29,583.75C218.74,585.53 225.24,589.93 229.73,593.53C234.22,597.12 240.33,602.99 243.31,606.58C246.29,610.17 251.04,617.39 253.86,622.63C256.69,627.86 259.00,632.56 259.00,633.07C259.00,633.58 259.42,634.00 259.94,634.00zM213.35,628.00C214.08,628.00 215.50,627.10 216.50,626.00C217.50,624.90 218.26,622.60 218.21,620.85C218.17,619.12 217.48,617.06 216.70,616.27C215.47,615.04 215.06,615.40 213.64,618.94C212.74,621.20 212.00,624.16 212.00,625.52C212.00,626.93 212.58,628.00 213.35,628.00zM185.34,622.42C189.28,622.05 192.67,621.59 192.88,621.40C193.10,621.22 192.71,619.71 192.03,618.06C191.07,615.76 189.52,614.59 185.35,613.03C182.37,611.91 178.32,611.00 176.36,611.00C173.67,611.00 172.10,611.76 169.90,614.11C168.31,615.81 167.00,617.79 167.00,618.49C167.00,619.19 168.01,620.04 169.25,620.37C170.49,620.70 172.71,620.98 174.19,620.99C175.67,620.99 177.17,621.47 177.53,622.05C177.95,622.73 180.69,622.86 185.34,622.42zM201.19,608.85C202.13,608.38 203.19,607.51 203.55,606.92C203.91,606.33 203.15,604.70 201.85,603.29C200.56,601.89 197.70,599.91 195.50,598.89C193.30,597.87 189.77,597.03 187.65,597.02C185.53,597.01 182.29,597.72 180.45,598.59C178.60,599.47 176.53,600.87 175.83,601.70C174.80,602.94 174.89,603.44 176.29,604.47C177.23,605.16 178.00,606.30 178.00,607.00C178.00,607.95 179.35,608.12 183.25,607.69C186.26,607.36 190.84,607.66 194.00,608.41C197.32,609.20 200.17,609.38 201.19,608.85zM212.40,595.93C212.90,595.97 212.45,595.04 211.40,593.86C210.36,592.68 206.80,590.43 203.50,588.86C200.20,587.29 195.93,586.00 194.00,586.00C192.07,586.01 189.04,586.90 187.25,587.99C185.46,589.08 184.00,590.57 184.00,591.31C184.00,592.33 186.28,592.65 193.75,592.65C200.36,592.65 204.79,593.17 207.50,594.26C209.70,595.14 211.91,595.89 212.40,595.93zM400.25,589.37C395.16,589.65 391.00,589.49 391.00,589.03C391.00,588.56 393.34,586.08 396.20,583.51C399.07,580.93 403.49,577.77 406.03,576.48C408.57,575.20 414.22,573.46 418.58,572.62C422.93,571.78 431.45,569.09 437.50,566.64C443.55,564.20 450.75,561.88 453.50,561.49C458.50,560.78 458.50,560.78 451.00,568.46C446.88,572.68 441.37,577.71 438.77,579.63C436.18,581.56 431.60,583.99 428.62,585.04C425.63,586.09 420.10,587.39 416.34,587.91C412.58,588.44 405.34,589.10 400.25,589.37zM256.29,589.00C257.04,589.00 258.58,587.99 259.72,586.75C260.85,585.51 266.86,577.98 273.07,570.00C279.28,562.02 286.97,551.62 290.16,546.89C293.34,542.15 296.38,537.13 296.91,535.74C297.61,533.90 297.49,532.70 296.49,531.35C295.41,529.89 294.74,529.73 293.33,530.59C292.35,531.20 291.31,532.65 291.02,533.83C290.74,535.01 288.70,538.29 286.50,541.12C284.30,543.96 279.86,549.64 276.64,553.76C273.42,557.87 267.18,566.25 262.77,572.37C258.36,578.49 254.54,584.06 254.27,584.75C254.00,585.44 254.05,586.67 254.36,587.50C254.68,588.33 255.55,589.00 256.29,589.00zM307.00,567.46C307.82,567.30 310.20,566.89 312.27,566.54C314.35,566.19 317.61,564.53 319.52,562.85C321.43,561.17 323.00,559.25 323.00,558.59C323.00,557.92 322.42,556.59 321.72,555.63C320.53,554.00 320.04,554.12 314.67,557.35C311.29,559.39 306.86,561.11 303.95,561.51C300.94,561.92 299.00,562.69 299.00,563.47C299.00,564.18 299.56,565.21 300.25,565.77C300.94,566.33 302.40,567.00 303.50,567.26C304.60,567.53 306.18,567.62 307.00,567.46zM240.63,566.96C242.02,566.99 242.98,566.21 243.37,564.75C243.84,563.00 243.09,561.68 240.01,558.81C237.83,556.79 235.25,554.66 234.28,554.09C232.71,553.18 232.79,553.06 234.98,553.03C236.34,553.01 240.95,553.75 245.22,554.67C249.50,555.59 253.30,556.03 253.68,555.65C254.06,555.28 253.46,553.74 252.36,552.23C251.26,550.73 248.20,548.04 245.57,546.25C241.44,543.46 239.91,543.00 234.64,543.00C230.28,543.01 227.56,543.58 225.25,544.99C223.46,546.08 222.00,547.64 222.00,548.45C222.00,549.26 222.87,550.40 223.93,550.96C225.00,551.53 227.05,552.00 228.49,552.00C229.99,552.00 230.85,552.43 230.50,553.00C230.16,553.55 227.52,554.00 224.63,554.00C220.66,554.00 218.82,554.52 217.11,556.12C215.75,557.38 215.20,558.60 215.74,559.14C216.23,559.63 219.08,560.93 222.06,562.02C225.03,563.11 228.83,564.02 230.49,564.04C232.14,564.05 234.62,564.71 236.00,565.50C237.38,566.29 239.46,566.95 240.63,566.96zM336.63,560.79C337.47,559.96 338.39,557.52 338.68,555.37C339.07,552.46 338.39,549.35 336.03,543.23C333.73,537.27 331.46,533.48 327.78,529.45C325.00,526.40 318.05,520.04 312.36,515.31C306.66,510.58 302.00,506.54 302.00,506.32C302.00,506.11 302.70,504.86 303.56,503.55C305.09,501.21 305.20,501.19 309.62,502.69C312.09,503.54 314.33,504.00 314.60,503.73C314.88,503.46 313.84,502.25 312.30,501.05C310.76,499.84 303.80,495.36 296.83,491.10C289.86,486.83 278.84,481.16 272.34,478.50C265.84,475.84 258.53,473.06 256.10,472.33C253.67,471.60 248.27,471.01 244.09,471.02C238.84,471.04 235.23,471.62 232.37,472.92C230.10,473.95 227.98,475.23 227.65,475.76C227.30,476.32 229.37,477.00 232.49,477.37C235.48,477.72 243.53,479.84 250.37,482.07C257.97,484.56 266.63,488.31 272.65,491.73C278.07,494.80 285.20,499.44 288.50,502.05C291.80,504.65 298.34,510.76 303.03,515.64C307.72,520.51 315.29,529.18 319.84,534.91C324.40,540.64 329.39,547.84 330.92,550.91C332.46,553.98 334.03,557.81 334.41,559.41C335.04,562.00 335.28,562.15 336.63,560.79zM385.10,558.00C384.58,558.00 382.75,556.82 381.03,555.37C379.32,553.93 376.95,550.89 375.78,548.62C374.30,545.75 373.52,542.01 373.20,536.28C372.88,530.36 373.21,526.66 374.38,523.09C375.27,520.36 376.00,517.86 376.00,517.54C376.00,517.22 374.22,517.87 372.04,518.98C369.86,520.09 367.55,521.00 366.90,521.00C366.07,521.00 365.87,519.15 366.23,514.72C366.54,510.88 367.76,506.31 369.36,502.97C370.80,499.96 378.18,490.09 385.74,481.04C393.31,471.98 401.61,462.98 404.20,461.04C406.78,459.09 410.83,456.51 413.20,455.31C415.56,454.11 421.38,451.31 426.13,449.09C433.22,445.78 435.89,443.83 441.13,438.17C445.21,433.76 449.99,426.82 454.41,418.89C458.21,412.08 462.64,404.81 464.26,402.74C465.87,400.67 469.18,397.81 471.62,396.38C474.05,394.95 479.52,392.90 483.77,391.81C488.02,390.72 494.11,388.45 497.29,386.76C500.48,385.06 505.07,381.93 507.49,379.80C509.92,377.66 514.84,371.92 518.42,367.03C522.01,362.14 526.42,357.03 528.22,355.67C530.03,354.31 536.35,351.80 542.29,350.09C548.22,348.39 555.87,345.58 559.29,343.86C562.70,342.14 568.19,338.90 571.49,336.66C574.78,334.43 579.40,330.83 581.74,328.67C584.09,326.50 587.77,322.10 589.92,318.89C592.07,315.67 595.28,308.64 597.07,303.27C600.09,294.18 600.78,293.04 606.91,286.97C611.84,282.09 616.34,278.96 624.81,274.50C631.04,271.23 639.59,265.79 643.81,262.40C648.04,259.02 653.46,253.60 655.85,250.37C658.25,247.14 661.32,242.29 662.70,239.60C664.51,236.02 665.45,231.97 666.16,224.60C666.69,219.04 667.35,213.04 667.61,211.24C667.95,208.96 670.60,205.16 676.53,198.50C681.17,193.28 686.14,186.69 687.57,183.86C689.00,181.04 690.39,176.42 690.65,173.61C690.92,170.76 690.54,166.54 689.79,164.08C689.06,161.64 687.95,159.48 687.34,159.28C686.73,159.08 685.71,160.39 685.08,162.20C684.45,164.02 682.07,168.62 679.81,172.44C677.07,177.05 671.86,183.10 664.31,190.44C658.05,196.52 651.83,203.09 650.49,205.02C649.14,206.96 646.50,212.47 644.62,217.27C642.73,222.07 640.04,227.96 638.63,230.36C637.22,232.77 633.52,237.06 630.41,239.91C626.76,243.25 621.31,246.70 615.12,249.62C609.83,252.11 603.96,254.90 602.08,255.82C600.20,256.74 596.33,259.80 593.48,262.62C590.63,265.43 587.34,269.74 586.15,272.18C584.97,274.63 583.99,278.40 583.98,280.57C583.97,282.73 583.33,287.50 582.55,291.16C581.78,294.83 580.47,299.13 579.64,300.73C578.82,302.32 576.02,305.98 573.43,308.86C570.84,311.74 567.00,314.98 564.90,316.05C562.80,317.12 560.84,318.00 560.54,318.00C560.24,318.00 560.00,317.16 560.00,316.13C560.00,315.09 560.68,312.32 561.51,309.97C562.34,307.61 562.84,305.50 562.61,305.28C562.39,305.06 558.67,307.42 554.35,310.53C550.03,313.64 544.28,317.32 541.56,318.71C538.84,320.09 532.99,321.86 528.56,322.63C524.13,323.39 518.09,324.72 515.15,325.57C512.21,326.42 507.30,328.22 504.25,329.57C501.19,330.92 498.48,331.81 498.21,331.55C497.95,331.28 498.30,329.68 499.00,328.00C499.70,326.31 503.10,322.33 506.56,319.17C510.02,316.00 515.33,312.15 518.36,310.62C522.29,308.63 526.89,307.43 534.43,306.44C540.24,305.68 546.46,304.32 548.25,303.41C550.04,302.51 553.00,300.36 554.84,298.64C556.67,296.91 558.85,294.20 559.68,292.62C560.51,291.03 561.60,286.85 562.10,283.33C562.59,279.81 563.77,275.71 564.71,274.21C565.65,272.72 570.04,267.72 574.46,263.09C578.88,258.47 584.75,252.47 587.50,249.76C591.05,246.25 595.82,243.22 604.00,239.27C610.33,236.21 618.23,231.79 621.57,229.43C624.91,227.08 628.81,223.63 630.23,221.76C631.65,219.90 633.49,216.76 634.32,214.79C635.14,212.81 636.32,207.95 636.93,203.98C637.55,200.01 638.53,195.81 639.11,194.63C639.70,193.46 646.35,186.43 653.91,179.00C661.47,171.57 669.57,162.65 671.92,159.16C674.27,155.68 677.65,149.60 679.43,145.66C681.21,141.72 684.53,133.55 686.81,127.50C689.08,121.45 695.27,104.80 700.56,90.50C705.85,76.20 711.72,60.99 713.59,56.70C715.47,52.41 717.00,48.45 717.00,47.90C717.00,47.34 715.56,47.70 713.79,48.69C712.03,49.69 694.14,66.98 674.04,87.12C653.94,107.25 635.04,125.64 632.03,127.97C629.03,130.29 626.41,131.72 626.21,131.14C626.02,130.56 627.76,126.80 630.07,122.79C632.39,118.78 637.20,111.55 640.77,106.71C644.34,101.88 646.98,97.65 646.64,97.31C646.30,96.97 643.43,98.34 640.26,100.35C637.09,102.37 629.10,106.80 622.50,110.19C613.04,115.06 609.11,117.76 603.94,122.93C600.33,126.55 595.85,132.20 593.98,135.50C592.11,138.80 588.36,143.63 585.66,146.23C582.63,149.13 578.59,151.76 575.18,153.03C572.13,154.18 566.68,155.37 563.07,155.69C556.50,156.28 556.50,156.28 559.00,153.55C560.38,152.04 564.56,149.02 568.30,146.84C572.03,144.65 576.62,141.52 578.48,139.88C580.87,137.78 582.51,134.95 584.05,130.20C585.25,126.52 587.29,121.64 588.59,119.36C589.89,117.08 593.92,112.50 597.53,109.19C601.15,105.88 607.57,101.37 611.80,99.18C616.04,96.99 623.49,93.80 628.38,92.08C633.26,90.37 643.36,85.96 650.82,82.29C658.28,78.62 669.58,72.48 675.93,68.65C682.29,64.83 689.85,59.91 692.74,57.73C695.63,55.55 698.00,53.39 698.00,52.94C698.00,52.49 694.96,52.98 691.25,54.02C687.54,55.06 680.45,57.30 675.50,59.00C670.55,60.69 654.80,65.69 640.50,70.10C626.20,74.52 611.22,79.70 607.21,81.62C602.48,83.89 597.45,87.45 592.91,91.73C589.05,95.36 583.68,101.49 580.97,105.34C578.26,109.18 575.38,114.17 574.57,116.42C573.77,118.66 572.40,122.97 571.54,126.00C569.98,131.50 569.98,131.50 559.87,136.40C552.79,139.83 547.88,143.06 543.50,147.15C540.06,150.37 535.57,155.43 533.52,158.41C530.36,162.99 529.67,164.99 528.94,171.65C528.47,175.97 527.54,181.47 526.88,183.87C526.09,186.73 523.83,190.23 520.36,193.98C516.42,198.24 512.42,201.10 504.90,205.05C497.63,208.88 492.51,212.50 486.82,217.85C482.46,221.96 476.58,228.62 473.76,232.66C470.94,236.70 468.28,240.00 467.84,240.00C467.41,240.00 466.36,238.67 465.53,237.05C464.69,235.43 464.00,232.39 464.01,230.30C464.02,228.21 465.13,224.12 466.48,221.21C467.83,218.31 471.32,213.55 474.22,210.65C477.12,207.75 482.48,203.71 486.13,201.67C489.78,199.63 496.02,196.85 500.01,195.50C504.00,194.14 508.52,192.24 510.05,191.26C511.57,190.29 514.21,187.76 515.90,185.63C517.59,183.50 519.38,180.28 519.88,178.47C520.45,176.40 520.38,172.37 519.69,167.55C518.82,161.52 518.87,159.25 519.91,156.71C520.63,154.95 521.92,151.69 522.77,149.47C523.71,147.05 524.06,144.36 523.65,142.74C523.28,141.25 521.55,138.42 519.81,136.44C518.07,134.46 514.31,131.34 511.45,129.51C508.59,127.68 505.06,124.91 503.60,123.34C502.13,121.78 500.22,118.06 499.35,115.09C498.26,111.36 497.97,107.95 498.41,104.17C498.77,101.14 499.93,96.70 500.99,94.30C502.05,91.90 504.81,87.24 507.13,83.94C509.54,80.50 517.47,72.50 525.70,65.22C533.61,58.22 542.93,50.02 546.42,47.00C549.91,43.98 555.90,39.82 559.73,37.76C564.81,35.04 568.82,33.73 574.49,32.94C580.18,32.15 585.15,32.16 592.87,32.99C598.69,33.62 606.27,34.79 609.73,35.59C613.18,36.39 619.27,38.20 623.25,39.62C627.24,41.04 632.52,43.33 635.00,44.71C637.48,46.10 642.98,49.48 647.24,52.24C654.98,57.24 654.98,57.24 663.74,54.59C668.56,53.13 684.81,47.88 699.85,42.93C721.19,35.91 727.51,34.18 728.60,35.08C729.36,35.71 730.47,38.05 731.07,40.26C731.72,42.67 731.90,47.75 731.53,52.90C731.18,57.63 730.23,69.83 729.41,80.00C728.59,90.17 726.79,108.62 725.41,121.00C724.03,133.38 721.79,151.15 720.45,160.50C719.10,169.85 717.49,179.97 716.88,183.00C716.27,186.03 714.69,190.62 713.38,193.22C712.07,195.82 708.07,201.29 704.50,205.39C700.92,209.49 698.00,213.35 698.00,213.98C698.00,214.61 699.32,216.78 700.94,218.81C702.55,220.84 704.77,224.81 705.88,227.63C706.98,230.46 708.58,236.47 709.44,240.99C710.38,245.95 711.00,254.69 711.00,263.00C711.00,271.15 710.37,280.19 709.45,285.14C708.60,289.74 706.97,296.43 705.82,300.00C704.67,303.57 701.81,310.62 699.47,315.66C697.13,320.70 693.74,327.00 691.93,329.66C690.11,332.32 686.12,337.58 683.06,341.34C680.00,345.10 674.14,351.04 670.02,354.54C665.91,358.03 657.43,363.96 651.18,367.70C644.93,371.44 636.97,376.84 633.48,379.71C630.00,382.57 625.68,387.05 623.89,389.66C622.10,392.27 620.03,396.15 619.29,398.28C618.03,401.95 618.15,402.61 621.59,410.83C624.52,417.81 625.33,421.18 625.73,428.14C626.11,434.70 625.82,438.07 624.49,442.14C623.54,445.09 621.36,450.20 619.65,453.50C617.61,457.46 613.15,462.92 606.53,469.57C598.71,477.43 594.88,480.46 589.12,483.32C585.05,485.35 580.67,487.00 579.37,487.00C578.06,487.00 577.00,486.52 577.00,485.94C577.00,485.36 578.55,482.85 580.45,480.37C582.34,477.88 584.88,473.81 586.09,471.32C587.40,468.61 588.48,464.06 588.77,460.03C589.06,455.92 588.84,453.02 588.21,452.63C587.64,452.28 584.05,453.58 580.23,455.52C576.41,457.46 570.01,459.73 566.02,460.56C562.02,461.40 558.51,461.84 558.21,461.54C557.92,461.25 558.19,459.89 558.81,458.51C559.44,457.14 563.09,451.83 566.94,446.72C570.78,441.61 574.62,435.77 575.46,433.74C576.31,431.72 577.00,428.59 576.99,426.78C576.99,424.98 576.54,421.88 575.99,419.89C575.44,417.91 573.22,413.55 571.05,410.21C568.89,406.86 565.30,402.30 563.06,400.06C560.83,397.83 558.55,396.00 558.00,396.00C557.44,396.00 557.00,398.82 557.00,402.45C557.00,408.01 556.45,409.95 553.00,416.62C550.80,420.87 549.00,425.10 549.00,426.02C549.00,426.94 549.95,428.55 551.11,429.60C552.26,430.64 554.06,433.17 555.11,435.21C556.15,437.25 557.00,440.45 557.00,442.31C557.00,444.19 555.98,447.22 554.72,449.09C553.47,450.95 551.33,453.03 549.97,453.72C548.61,454.41 546.06,454.98 544.30,454.99C542.54,454.99 538.71,455.49 535.80,456.09C532.88,456.69 526.90,458.91 522.50,461.03C518.10,463.15 512.25,466.76 509.50,469.06C506.75,471.35 502.22,475.86 499.43,479.08C496.64,482.30 490.85,491.46 486.55,499.44C480.50,510.67 477.47,515.16 473.12,519.30C470.03,522.24 463.12,527.22 457.77,530.37C452.42,533.52 445.67,537.16 442.77,538.47C439.87,539.78 434.46,541.16 430.75,541.54C426.93,541.93 424.00,541.84 424.00,541.34C424.00,540.85 425.34,537.31 426.97,533.47C428.84,529.09 429.96,524.74 429.97,521.75C429.99,518.50 429.59,517.00 428.70,517.00C427.98,517.00 424.85,520.10 421.74,523.88C418.62,527.67 413.02,533.40 409.29,536.61C405.55,539.82 398.80,545.95 394.27,550.23C389.75,554.50 385.62,558.00 385.10,558.00zM262.75,544.26C263.44,544.00 264.00,543.39 264.00,542.90C264.00,542.41 262.38,540.21 260.40,538.02C258.43,535.84 255.39,533.20 253.65,532.17C251.06,530.63 249.31,530.41 243.80,530.92C238.22,531.43 236.58,532.03 234.05,534.46C232.37,536.06 231.00,537.96 231.00,538.69C231.00,539.41 232.09,540.00 233.43,540.00C234.77,540.00 237.14,540.52 238.68,541.16C240.23,541.80 243.97,542.24 247.00,542.14C250.03,542.03 254.53,542.58 257.00,543.34C259.48,544.11 262.06,544.52 262.75,544.26zM269.25,531.88C271.50,531.98 272.00,531.58 272.00,529.65C272.00,528.37 271.21,526.62 270.25,525.78C269.29,524.93 266.93,523.40 265.00,522.37C261.50,520.50 261.50,520.50 265.72,520.19C268.04,520.03 271.61,520.35 273.66,520.92C275.71,521.48 277.64,521.69 277.94,521.37C278.25,521.06 276.60,519.11 274.28,517.04C271.95,514.97 268.03,512.71 265.57,512.02C263.10,511.33 259.58,511.04 257.76,511.39C255.93,511.73 253.43,512.71 252.22,513.56C251.00,514.42 250.00,515.53 250.00,516.04C250.00,516.55 251.12,517.24 252.50,517.59C253.88,517.93 255.00,518.65 255.00,519.18C255.00,519.70 254.11,519.85 253.03,519.51C251.93,519.16 249.09,519.75 246.61,520.85C244.17,521.93 241.66,523.76 241.05,524.92C240.06,526.75 240.26,527.15 242.52,528.01C243.96,528.55 247.69,529.04 250.82,529.10C253.94,529.15 258.75,529.77 261.50,530.48C264.25,531.18 267.74,531.82 269.25,531.88zM285.90,511.92C286.13,511.96 285.55,511.16 284.62,510.13C283.69,509.10 280.13,506.85 276.71,505.11C272.47,502.96 268.40,501.77 263.89,501.35C259.44,500.94 257.05,501.11 256.58,501.87C256.12,502.61 256.87,503.00 258.73,503.00C260.30,503.00 264.26,503.69 267.54,504.54C270.82,505.39 276.20,507.38 279.50,508.96C282.80,510.54 285.68,511.87 285.90,511.92zM266.75,406.99C267.44,407.00 268.00,405.94 268.00,404.66C268.00,403.37 266.13,399.43 263.85,395.91C261.57,392.38 258.42,386.80 256.85,383.50C255.28,380.20 254.00,376.45 254.00,375.17C254.00,373.81 253.50,373.00 252.81,373.23C252.16,373.45 250.76,374.78 249.70,376.20C248.64,377.61 247.55,380.85 247.26,383.40C246.92,386.43 247.31,389.52 248.39,392.36C249.30,394.75 251.05,397.61 252.28,398.73C253.50,399.85 256.98,402.16 260.00,403.87C263.02,405.58 266.06,406.99 266.75,406.99zM341.16,374.00C341.62,374.00 343.74,372.42 345.87,370.50C348.01,368.57 351.16,364.05 352.88,360.45C354.59,356.85 358.30,350.51 361.10,346.35C363.90,342.20 366.58,337.45 367.06,335.81C367.53,334.16 367.64,331.47 367.32,329.83C366.97,328.12 364.03,323.92 360.41,319.98C356.95,316.20 353.39,311.72 352.51,310.03C351.64,308.33 350.60,304.42 350.21,301.33C349.75,297.70 348.89,295.33 347.79,294.64C346.41,293.77 345.47,294.14 342.99,296.51C341.29,298.13 338.35,302.57 336.45,306.37C333.79,311.69 333.00,314.51 333.00,318.68C333.00,321.71 333.72,325.51 334.63,327.30C335.53,329.06 338.45,332.84 341.13,335.69C343.81,338.55 346.49,342.15 347.08,343.69C347.67,345.24 347.88,348.25 347.55,350.38C347.21,352.51 345.15,357.27 342.97,360.94C340.79,364.61 339.00,368.75 339.00,370.14C339.00,371.53 339.30,372.97 339.67,373.33C340.03,373.70 340.71,374.00 341.16,374.00zM427.99,294.00C427.56,294.00 426.93,292.85 426.57,291.44C426.22,290.03 426.23,287.22 426.60,285.19C426.97,283.16 428.07,279.93 429.05,278.00C430.03,276.07 432.33,273.10 434.16,271.39C436.00,269.69 439.66,266.84 442.31,265.06C444.95,263.28 448.44,260.00 450.05,257.77C451.67,255.54 453.75,251.31 454.68,248.36C455.61,245.41 456.68,243.00 457.07,243.00C457.46,243.00 458.51,244.81 459.39,247.02C460.28,249.23 461.00,253.31 461.00,256.09C461.00,258.86 460.49,262.11 459.88,263.32C459.26,264.52 457.79,266.57 456.63,267.87C455.46,269.18 450.40,273.52 445.40,277.52C440.39,281.53 434.60,286.87 432.53,289.40C430.46,291.93 428.41,294.00 427.99,294.00z" />

</svg>