<?xml version="1.0" encoding="iso-8859-1"?>
<!-- Uploaded to: SVG Repo, www.svgrepo.com, Generator: SVG Repo Mixer Tools -->
<svg fill="#000000" height="800px" width="800px" version="1.1" id="Layer_1" xmlns="http://www.w3.org/2000/svg" xmlns:xlink="http://www.w3.org/1999/xlink" 
	 viewBox="0 0 504 504" xml:space="preserve">
<g>
	<g>
		<path d="M504,252c0-89.228-46.656-167.716-116.816-212.504c0.964-3.852,0.276-8.188-2.084-12.552
			c-2.752-5.08-7.512-9.68-13.408-12.964c-12.412-6.908-25.74-5.868-31.212,2.096C312.936,5.716,283.128,0,252,0
			C184.164,0,122.552,26.988,77.2,70.74c-3.744-2.012-8.416-2.264-13.476-0.632c-5.492,1.772-10.892,5.608-15.192,10.804
			c-8.448,10.204-10.276,22.468-4.96,29.624C16.088,150.896,0,199.6,0,252c0,138.952,113.048,252,252,252
			c41.436,0,80.532-10.34,115.052-28.136c2.924,3.024,7.172,4.512,12.388,4.512c0.116,0,0.24,0,0.348,0
			c5.776,0,12.064-1.936,17.7-5.636c5.644-3.696,10.06-8.524,12.432-13.784c2.208-4.88,2.46-9.528,0.84-13.488
			C467.604,401.22,504,330.82,504,252z M132.736,369.96c-7.748,7.748-22.708,5.348-33.416-5.364
			c-10.708-10.708-13.104-25.668-5.36-33.416c7.744-7.748,22.708-5.348,33.416,5.36S140.48,362.216,132.736,369.96z
			 M161.252,253.012c-26.46,0-47.912-21.448-47.912-47.908c0-26.46,21.448-47.912,47.912-47.912
			c26.456,0,47.908,21.448,47.908,47.912C209.16,231.564,187.712,253.012,161.252,253.012z M267.74,342.732
			c-17.42,0-31.544-14.12-31.544-31.544c0-17.416,14.12-31.54,31.544-31.54s31.54,14.12,31.54,31.54
			C299.276,328.608,285.16,342.732,267.74,342.732z M338.6,196.42c-15.14,0-27.416-12.276-27.416-27.42
			c0-15.14,12.276-27.416,27.416-27.416c15.144,0,27.416,12.276,27.416,27.416C366.02,184.144,353.748,196.42,338.6,196.42z
			 M411.772,364.596c-10.704,10.712-25.66,13.108-33.416,5.364c-7.748-7.748-5.348-22.712,5.36-33.416
			c10.716-10.708,25.672-13.104,33.416-5.36C424.888,338.928,422.488,353.892,411.772,364.596z"/>
	</g>
</g>
</svg>