<?xml version="1.0" encoding="iso-8859-1"?>
<!-- Uploaded to: SVG Repo, www.svgrepo.com, Generator: SVG Repo Mixer Tools -->
<svg fill="#000000" height="800px" width="800px" version="1.1" id="Layer_1" xmlns="http://www.w3.org/2000/svg" xmlns:xlink="http://www.w3.org/1999/xlink" 
	 viewBox="0 0 512 512" xml:space="preserve">
<g>
	<g>
		<g>
			<path d="M256,290.129c12.109,0,25.6-21.018,25.6-51.2c0-30.174-13.491-51.2-25.6-51.2c-12.109,0-25.6,21.026-25.6,51.2
				C230.4,269.111,243.891,290.129,256,290.129z M247.467,221.854c0-4.71,3.823-8.533,8.533-8.533s8.533,3.823,8.533,8.533v34.142
				c0,4.719-3.823,8.533-8.533,8.533s-8.533-3.814-8.533-8.533V221.854z"/>
			<path d="M477.867,25.6c-18.825,0-34.133,15.309-34.133,34.133c0,13.559,8.004,25.199,19.49,30.703l-96.29,125.918l-96.29-125.918
				c11.486-5.504,19.49-17.143,19.49-30.703c0-18.825-15.309-34.133-34.133-34.133c-18.825,0-34.133,15.309-34.133,34.133
				c0,13.559,8.004,25.199,19.49,30.703l-96.29,125.918L48.777,90.436c11.486-5.504,19.49-17.143,19.49-30.703
				c0-18.825-15.309-34.133-34.133-34.133C15.309,25.6,0,40.909,0,59.733C0,76.177,11.691,89.933,27.196,93.15L83.115,332.8H68.267
				c-14.114,0-25.6,11.486-25.6,25.6s11.486,25.6,25.6,25.6v51.2c-14.114,0-25.6,11.486-25.6,25.6c0,14.114,11.486,25.6,25.6,25.6
				h375.467c14.114,0,25.6-11.486,25.6-25.6c0-14.114-11.486-25.6-25.6-25.6V384c14.114,0,25.6-11.486,25.6-25.6
				s-11.486-25.6-25.6-25.6h-14.848l55.919-239.65C500.309,89.933,512,76.177,512,59.733C512,40.909,496.691,25.6,477.867,25.6z
				 M34.133,76.8c-9.412,0-17.067-7.654-17.067-17.067s7.654-17.067,17.067-17.067c9.412,0,17.067,7.654,17.067,17.067
				S43.546,76.8,34.133,76.8z M238.933,59.733c0-9.412,7.654-17.067,17.067-17.067c9.412,0,17.067,7.654,17.067,17.067
				S265.412,76.8,256,76.8C246.588,76.8,238.933,69.146,238.933,59.733z M256,170.667c23.927,0,42.667,29.986,42.667,68.267
				S279.927,307.2,256,307.2s-42.667-29.986-42.667-68.267S232.073,170.667,256,170.667z M452.267,460.8
				c0,4.702-3.831,8.533-8.533,8.533H68.267c-4.702,0-8.533-3.831-8.533-8.533c0-4.702,3.831-8.533,8.533-8.533h375.467
				C448.435,452.267,452.267,456.098,452.267,460.8z M110.933,409.6c0-4.71,3.823-8.533,8.533-8.533S128,404.89,128,409.6
				s-3.823,8.533-8.533,8.533S110.933,414.31,110.933,409.6z M145.067,409.6c0-4.71,3.823-8.533,8.533-8.533h68.267
				c4.71,0,8.533,3.823,8.533,8.533s-3.823,8.533-8.533,8.533H153.6C148.89,418.133,145.067,414.31,145.067,409.6z M247.467,409.6
				c0-4.71,3.823-8.533,8.533-8.533s8.533,3.823,8.533,8.533s-3.823,8.533-8.533,8.533S247.467,414.31,247.467,409.6z M281.6,409.6
				c0-4.71,3.823-8.533,8.533-8.533H358.4c4.71,0,8.533,3.823,8.533,8.533s-3.823,8.533-8.533,8.533h-68.267
				C285.423,418.133,281.6,414.31,281.6,409.6z M384,409.6c0-4.71,3.823-8.533,8.533-8.533c4.71,0,8.533,3.823,8.533,8.533
				s-3.823,8.533-8.533,8.533C387.823,418.133,384,414.31,384,409.6z M443.733,349.867c4.702,0,8.533,3.831,8.533,8.533
				c0,4.702-3.831,8.533-8.533,8.533H68.267c-4.702,0-8.533-3.831-8.533-8.533c0-4.702,3.831-8.533,8.533-8.533h25.6h324.267
				H443.733z M477.867,76.8c-9.412,0-17.067-7.654-17.067-17.067s7.654-17.067,17.067-17.067s17.067,7.654,17.067,17.067
				S487.279,76.8,477.867,76.8z"/>
		</g>
	</g>
</g>
</svg>