<?xml version="1.0" encoding="iso-8859-1"?>
<!-- Uploaded to: SVG Repo, www.svgrepo.com, Generator: SVG Repo Mixer Tools -->
<!DOCTYPE svg PUBLIC "-//W3C//DTD SVG 1.1//EN" "http://www.w3.org/Graphics/SVG/1.1/DTD/svg11.dtd">
<svg fill="#000000" height="800px" width="800px" version="1.1" id="Capa_1" xmlns="http://www.w3.org/2000/svg" xmlns:xlink="http://www.w3.org/1999/xlink" 
	 viewBox="0 0 488.923 488.923" xml:space="preserve">
<path d="M487.414,288.837l-61-161c-2.326-6.142-7.467-10.627-13.619-12.245h34.216V62.35c0-6.863-5.563-12.427-12.425-12.427
	H281.511V0h-70v49.923H58.437c-6.866,0-12.426,5.563-12.426,12.427v53.242h30.118c-6.153,1.618-11.294,6.104-13.62,12.245l-61,161
	c-2.328,6.145-1.489,13.042,2.245,18.449c3.734,5.408,9.886,8.637,16.458,8.637h121.999c6.572,0,12.724-3.229,16.457-8.637
	c3.734-5.407,4.573-12.304,2.245-18.449l-60.999-161c-2.327-6.142-7.467-10.627-13.62-12.245h125.217v285.331h-35.606
	c-4.914,0-8.894,3.981-8.894,8.894v32.106h-55.106c-4.914,0-8.894,3.981-8.894,8.894v38.106h287v-38.106
	c0-4.912-3.982-8.894-8.893-8.894h-55.107v-32.106c0-4.912-3.98-8.894-8.893-8.894h-35.607V115.592H402.63
	c-6.153,1.618-11.294,6.104-13.62,12.245l-61,161c-2.329,6.145-1.489,13.042,2.244,18.449c3.734,5.408,9.887,8.637,16.458,8.637
	h121.999c6.571,0,12.724-3.229,16.458-8.637C488.903,301.879,489.742,294.983,487.414,288.837z M142.211,295.923H20.212l61-161
	L142.211,295.923z M246.511,106.923c-15.74,0-28.5-12.76-28.5-28.5s12.76-28.5,28.5-28.5s28.5,12.76,28.5,28.5
	S262.251,106.923,246.511,106.923z M346.712,295.923l61-161l60.999,161H346.712z"/>
</svg>