<?xml version="1.0" encoding="iso-8859-1"?>
<!-- Uploaded to: SVG Repo, www.svgrepo.com, Generator: SVG Repo Mixer Tools -->
<svg fill="#000000" height="800px" width="800px" version="1.1" id="Layer_1" xmlns="http://www.w3.org/2000/svg" xmlns:xlink="http://www.w3.org/1999/xlink" 
	 viewBox="0 0 512.015 512.015" xml:space="preserve">
<g>
	<g>
		<g>
			<path d="M256.009,241.92c113.195,0,177.088-30.677,183.851-45.931c-51.371,16.107-118.805,24.384-185.92,24.384
				c-64.981,0-130.176-7.829-180.907-22.933C82.953,213.12,146.27,241.92,256.009,241.92z"/>
			<path d="M482.596,120.862c0-20.053-86.827-56.853-228.651-56.853s-228.651,36.8-228.651,56.853
				c0,7.147,11.264,16.448,31.957,25.429c41.493-29.909,122.091-43.989,198.763-43.989c75.669,0,155.285,13.675,197.227,42.816
				C472.228,136.499,482.596,127.689,482.596,120.862z"/>
			<path d="M393.218,163.94c-31.147-10.368-77.269-18.965-137.216-18.965c-61.013,0-107.648,8.939-138.816,19.541
				c36.373,7.765,82.496,13.184,136.768,13.184C309.506,177.7,356.461,172.004,393.218,163.94z"/>
			<path d="M483.2,193.457c0,62.613-117.781,91.115-227.2,91.115c-53.376,0-108.651-6.827-151.381-21.056
				c0.683,1.643,4.224,6.272,14.848,12.053c10.347,5.611,14.208,18.56,8.576,28.928c-3.84,7.125-11.2,11.157-18.773,11.157
				c-3.435,0-6.912-0.853-10.133-2.603c-30.891-16.747-37.376-36.331-37.376-49.813c0-6.123,2.645-11.541,6.784-15.445
				c-24.427-13.931-39.723-31.915-39.723-54.336c0-4.203,0.597-8.192,1.621-12.075C18.347,175.473,8.192,168.838,0,161.628v350.379
				h512V157.681c-7.979,8.043-18.432,15.339-31.104,21.867C482.261,184.006,483.2,188.593,483.2,193.457z M95.019,371.59
				c6.272-9.941,19.456-12.949,29.419-6.592c2.176,1.344,10.965,6.208,33.216,10.923c11.52,2.453,18.88,13.781,16.448,25.301
				c-2.155,10.027-11.008,16.896-20.864,16.896c-1.451,0-2.965-0.149-4.459-0.469c-20.864-4.416-36.757-10.005-47.168-16.619
				C91.648,394.737,88.704,381.553,95.019,371.59z M159.808,490.63l-33.045,0.064h-9.664c-11.797,0-21.333-9.557-21.333-21.333
				c0-11.797,9.536-21.333,21.333-21.333l42.581-0.064h0.064c11.733,0,21.291,9.515,21.333,21.269
				C181.12,481.009,171.584,490.609,159.808,490.63z M169.856,314.694c1.6-11.669,12.331-19.819,24.021-18.219
				c12.992,1.771,26.603,2.987,40.555,3.605c11.755,0.512,20.885,10.496,20.373,22.251c-0.512,11.456-9.963,20.395-21.291,20.395
				c-0.341,0-0.661,0-0.96-0.021c-15.253-0.683-30.208-2.005-44.459-3.968C176.405,337.137,168.256,326.364,169.856,314.694z
				 M216.661,404.998c0.149-11.776,9.387-21.803,21.611-21.013l6.4,0.021c10.368,0,21.184-0.939,32.277-2.816
				c11.819-2.069,22.613,5.867,24.597,17.472c1.963,11.627-5.867,22.635-17.472,24.576c-13.44,2.283-26.667,3.435-39.296,3.435
				l-7.083-0.021C225.899,426.481,216.491,416.796,216.661,404.998z M289.259,487.153c-13.483,0.981-27.968,1.707-43.477,2.219
				c-0.235,0.021-0.491,0.021-0.725,0.021c-11.435,0-20.928-9.088-21.291-20.629c-0.405-11.776,8.811-21.632,20.608-22.037
				c14.891-0.491,28.821-1.173,41.771-2.133c12.117-0.747,21.973,7.979,22.827,19.712C309.845,476.06,301.013,486.3,289.259,487.153
				z M318.379,336.796c-10.005,0-18.901-7.04-20.907-17.216c-2.283-11.563,5.269-22.784,16.832-25.045
				c13.099-2.56,26.24-5.909,39.125-9.899c11.285-3.563,23.189,2.795,26.709,14.016c3.499,11.243-2.795,23.211-14.037,26.709
				c-14.315,4.48-28.992,8.171-43.584,11.051C321.109,336.668,319.744,336.796,318.379,336.796z M342.144,384.902
				c-5.312-10.517-1.088-23.339,9.429-28.672c12.693-6.4,24.235-13.568,32.491-20.181c9.237-7.339,22.656-5.824,29.995,3.371
				c7.339,9.216,5.845,22.635-3.371,29.995c-10.645,8.469-24.427,17.088-39.872,24.917c-3.072,1.536-6.379,2.283-9.6,2.283
				C353.429,396.614,345.899,392.326,342.144,384.902z M423.488,437.894c-8.96,14.507-23.531,25.365-44.544,33.259
				c-2.453,0.917-4.971,1.365-7.467,1.365c-8.661,0-16.789-5.291-19.989-13.867c-4.117-11.029,1.451-23.339,12.501-27.456
				c11.648-4.373,19.456-9.664,23.211-15.744c6.208-10.005,19.371-13.099,29.355-6.912
				C426.581,414.726,429.675,427.868,423.488,437.894z"/>
			<path d="M0.015,0.009v80.064c43.84-38.656,149.269-58.731,253.931-58.731c108.16,0,217.088,21.44,258.069,62.699V0.009H0.015z"/>
		</g>
	</g>
</g>
</svg>