<?xml version="1.0" encoding="iso-8859-1"?>
<!-- Uploaded to: SVG Repo, www.svgrepo.com, Generator: SVG Repo Mixer Tools -->
<svg fill="#000000" height="800px" width="800px" version="1.1" id="Layer_1" xmlns="http://www.w3.org/2000/svg" xmlns:xlink="http://www.w3.org/1999/xlink" 
	 viewBox="0 0 512 512" xml:space="preserve">
<g>
	<g>
		<g>
			<path d="M330.218,229.386c-2.142-3.365-3.814-6.938-5.016-10.637h-16.238h-16.071h-73.791h-16.071h-16.238
				c-1.202,3.699-2.873,7.273-5.016,10.637l-13.396,21.086c-6.154,9.697-6.541,21.974-1.014,32.047
				c5.538,10.062,16.112,16.321,27.596,16.321h45.359v181.812h-27.167V512h27.167h31.347h27.167v-31.347h-27.167V298.841h45.359
				c11.483,0,22.058-6.259,27.596-16.321c5.528-10.073,5.141-22.35-1.014-32.047L330.218,229.386z"/>
			<path d="M333.018,59.141l-26.749-11.463c-4.66-1.996-7.669-6.562-7.669-11.64V0h-85.201v36.039c0,5.078-3.009,9.644-7.67,11.64
				L178.98,59.141c-18.129,7.774-27.314,28.484-20.908,47.146l27.847,81.115h16.468h16.165h74.898h16.165h16.468l27.846-81.115
				c1.379-4.023,2.038-8.129,2.038-12.194C355.964,79.308,347.239,65.243,333.018,59.141z"/>
		</g>
	</g>
</g>
</svg>