<?xml version="1.0" encoding="utf-8"?>
<!-- Uploaded to: SVG Repo, www.svgrepo.com, Generator: SVG Repo Mixer Tools -->
<svg fill="#000000" width="800px" height="800px" viewBox="0 0 32 32" version="1.1" xmlns="http://www.w3.org/2000/svg">
<title>chain</title>
<path d="M31.387 20.082c-1.442-1.137-3.192-1.72-4.929-1.76v0.001c-0.292-0.013-0.57 0.014-0.861 0.038-1.061 0.091-2.121 0.391-3.096 0.903l-0.83-0.752c0.739-2.046 0.291-4.427-1.347-6.064l-3.684-2.632c-1.1-1.099-2.586-1.607-4.019-1.483-0.67 0.058-1.332 0.257-1.939 0.591l-0.281-0.254c0.504-1.286 0.238-2.806-0.799-3.844l-2.28-1.63c-0.681-0.68-1.601-0.994-2.487-0.918-0.204 0.018-0.406 0.057-0.604 0.116l-1.796-1.68h-1.841v1.742l1.629 1.836c-0.404 1.108-0.166 2.405 0.716 3.288l1.599 2.28c0.785 0.786 1.849 1.154 2.872 1.066 0.336-0.027 0.671-0.108 0.991-0.238l0.259 0.305c-0.987 1.9-0.688 4.317 0.898 5.903l2.584 3.683c1.269 1.269 2.988 1.864 4.641 1.722 0.57-0.047 1.135-0.188 1.675-0.415l0.668 0.786c-1.447 2.811-1.161 6.321 0.838 8.869h7.157l-2.064-2.512c-0.322-0.342-0.543-0.734-0.664-1.145 0.851 0.156 1.746-0.089 2.421-0.762 0.759-0.757 1.001-1.795 0.73-2.735 0.499 0.106 0.983 0.359 1.401 0.754l2.442 2.237 0.005 4.163h0l-0.005-11.461zM4.578 6.302c-0.226-0.24-0.323-0.545-0.295-0.841 0.237-0.059 0.461-0.183 0.651-0.373 0.178-0.178 0.301-0.387 0.368-0.607 0.276-0.009 0.556 0.096 0.785 0.312l1.827 1.668c0.096 0.102 0.171 0.214 0.227 0.332-0.418-0.126-0.873-0.025-1.218 0.321-0.386 0.386-0.484 0.926-0.293 1.39-0.176-0.059-0.343-0.158-0.489-0.296l-1.562-1.906zM12.063 14.753c-0.166-0.176-0.29-0.374-0.372-0.583 0.576 0.187 1.218 0.060 1.685-0.406 0.541-0.541 0.648-1.317 0.325-1.954 0.299 0.073 0.588 0.23 0.838 0.466l2.998 2.737c0.158 0.168 0.283 0.354 0.376 0.55-0.617-0.103-1.258 0.086-1.76 0.588-0.634 0.633-0.798 1.516-0.491 2.279-0.373-0.079-0.732-0.263-1.035-0.549l-2.563-3.129z"></path>
</svg>