<?xml version="1.0" encoding="iso-8859-1"?>
<!-- Uploaded to: SVG Repo, www.svgrepo.com, Generator: SVG Repo Mixer Tools -->
<svg fill="#000000" height="800px" width="800px" version="1.1" id="Layer_1" xmlns="http://www.w3.org/2000/svg" xmlns:xlink="http://www.w3.org/1999/xlink" 
	 viewBox="0 0 512 512" xml:space="preserve">
<g>
	<g>
		<path d="M256,187.733c-56.465,0-102.4,45.935-102.4,102.4s45.935,102.4,102.4,102.4s102.4-45.935,102.4-102.4
			S312.465,187.733,256,187.733z M340.898,281.6h-51.977c-0.802-3.098-2.031-6.007-3.627-8.695l36.736-36.736
			C332.39,248.815,339.191,264.465,340.898,281.6z M264.533,256v-50.765c17.135,1.707,32.785,8.516,45.431,18.867l-36.736,36.736
			c-2.756-1.63-5.743-2.893-8.926-3.695C264.354,256.751,264.533,256.401,264.533,256z M247.467,205.235V256
			c0,0.401,0.179,0.751,0.23,1.143c-3.183,0.802-6.17,2.065-8.926,3.695l-36.736-36.736
			C214.682,213.751,230.332,206.942,247.467,205.235z M189.969,236.169l36.736,36.736c-1.587,2.697-2.816,5.598-3.627,8.695h-51.977
			C172.809,264.465,179.61,248.815,189.969,236.169z M171.102,298.667h51.977c0.802,3.098,2.031,6.007,3.627,8.695l-36.736,36.736
			C179.61,331.452,172.809,315.802,171.102,298.667z M247.467,375.031c-17.135-1.707-32.785-8.516-45.431-18.867l36.736-36.736
			c2.697,1.587,5.598,2.816,8.695,3.627V375.031z M238.933,290.133c0-9.412,7.654-17.067,17.067-17.067
			c9.412,0,17.067,7.654,17.067,17.067c0,9.412-7.654,17.067-17.067,17.067C246.588,307.2,238.933,299.546,238.933,290.133z
			 M264.533,375.031v-51.977c3.098-0.802,6.007-2.031,8.695-3.627l36.736,36.736C297.318,366.515,281.668,373.325,264.533,375.031z
			 M322.031,344.098l-36.736-36.736c1.587-2.697,2.816-5.598,3.627-8.695h51.977C339.191,315.802,332.39,331.452,322.031,344.098z"
			/>
	</g>
</g>
<g>
	<g>
		<path d="M473.728,282.82l-84.992-50.995c-1.425-3.226-2.935-6.409-4.582-9.506l16.666-66.645c0.734-2.91-0.128-5.982-2.244-8.107
			s-5.205-2.961-8.098-2.244l-66.654,16.666c-2.978-1.587-6.042-3.029-9.139-4.412L264.09,5.837C262.938,2.347,259.678,0,256,0
			c-3.678,0-6.938,2.347-8.09,5.837l-50.577,151.74c-3.098,1.374-6.161,2.825-9.139,4.412l-66.654-16.666
			c-2.884-0.708-5.982,0.128-8.098,2.244s-2.978,5.197-2.244,8.107l16.666,66.645c-1.647,3.098-3.157,6.281-4.582,9.506
			L38.289,282.82c-2.577,1.536-4.156,4.318-4.156,7.313c0,2.995,1.579,5.777,4.139,7.313l84.992,50.995
			c1.425,3.226,2.935,6.409,4.582,9.506l-16.666,66.645c-0.734,2.91,0.128,5.982,2.244,8.107c1.621,1.621,3.806,2.5,6.042,2.5
			c0.691,0,1.382-0.085,2.065-0.256l66.654-16.666c3.098,1.647,6.272,3.157,9.498,4.582l50.995,84.992
			C250.223,510.43,252.996,512,256,512c3.004,0,5.777-1.57,7.313-4.139l50.995-84.992c3.226-1.425,6.4-2.935,9.498-4.582
			l66.654,16.666c0.691,0.162,1.382,0.247,2.074,0.247c2.236,0,4.42-0.879,6.033-2.5c2.116-2.125,2.978-5.197,2.244-8.107
			l-16.666-66.645c1.647-3.098,3.157-6.281,4.582-9.506l84.992-50.995c2.568-1.536,4.147-4.318,4.147-7.313
			C477.867,287.138,476.288,284.356,473.728,282.82z M73.472,298.667h37.461c0.154,0,0.282-0.077,0.427-0.085
			c0.495,8.55,1.698,16.896,3.618,24.986L73.472,298.667z M111.36,281.685c-0.145-0.009-0.273-0.085-0.427-0.085H73.472l41.506-24.9
			C113.058,264.789,111.855,273.135,111.36,281.685z M380.809,165.333l-9.336,37.35c-8.03-10.573-17.442-19.985-28.015-28.015
			L380.809,165.333z M264.533,145.067V61.116l29.747,89.242c-9.591-2.628-19.567-4.267-29.833-4.864
			C264.457,145.348,264.533,145.22,264.533,145.067z M247.467,61.116v83.951c0,0.154,0.077,0.282,0.085,0.427
			c-10.266,0.597-20.241,2.236-29.833,4.864L247.467,61.116z M168.542,174.669c-10.573,8.03-19.985,17.442-28.015,28.015
			l-9.335-37.35L168.542,174.669z M131.191,414.933l9.335-37.35c8.03,10.573,17.442,19.985,28.015,28.015L131.191,414.933z
			 M247.467,435.2v37.461l-24.9-41.498c8.09,1.911,16.435,3.115,24.986,3.61C247.543,434.918,247.467,435.046,247.467,435.2z
			 M264.533,472.661V435.2c0-0.154-0.077-0.282-0.085-0.427c8.55-0.495,16.896-1.698,24.986-3.618L264.533,472.661z
			 M343.458,405.598c10.573-8.03,19.985-17.442,28.015-28.015l9.335,37.35L343.458,405.598z M256,418.133
			c-70.579,0-128-57.421-128-128s57.421-128,128-128s128,57.421,128,128S326.579,418.133,256,418.133z M397.022,323.567
			c1.92-8.09,3.123-16.435,3.618-24.986c0.145,0.009,0.273,0.085,0.427,0.085h37.461L397.022,323.567z M401.067,281.6
			c-0.154,0-0.282,0.077-0.427,0.085c-0.495-8.55-1.698-16.896-3.618-24.986l41.506,24.9H401.067z"/>
	</g>
</g>
</svg>