<?xml version="1.0" encoding="iso-8859-1"?>
<!-- Uploaded to: SVG Repo, www.svgrepo.com, Generator: SVG Repo Mixer Tools -->
<!DOCTYPE svg PUBLIC "-//W3C//DTD SVG 1.1//EN" "http://www.w3.org/Graphics/SVG/1.1/DTD/svg11.dtd">
<svg fill="#000000" version="1.1" id="Capa_1" xmlns="http://www.w3.org/2000/svg" xmlns:xlink="http://www.w3.org/1999/xlink" 
	 width="800px" height="800px" viewBox="0 0 75.914 75.914"
	 xml:space="preserve">
<g>
	<g>
		<path d="M54.684,16.286c-4.404-1.74-5.887,7.873-6.653,10.385c-0.758,2.507,1.238,3.088,3.422,3.691
			c2.189,0.606,3.647,0.724,5.228-1.317c1.226-1.578,0.721-4.637-0.091-7.792C56.123,19.409,56.302,16.931,54.684,16.286z"/>
		<path d="M44.072,31.077c-3.185,0.462-1.85,7.5-1.088,9.742c0.753,2.245,3.618,3.671,5.707,3.219
			c2.095-0.451,4.154-1.61,3.399-3.854C51.333,37.938,47.255,30.614,44.072,31.077z"/>
		<path d="M74.276,30.761c-2.961-1.188-8.531,3.887-9.182,6.074c-0.678,2.285-0.098,4.936,1.622,6.182
			c1.713,1.25,4.717,1.428,5.922-0.63C73.843,40.331,77.533,32.067,74.276,30.761z"/>
		<path d="M69.611,28.465c0.486-1.28-0.721-3.176-1.53-5.636c-0.785-2.369-1.13-5.316-3.226-5.751
			c-4.266-0.883-4.389,7.897-4.879,10.339c-0.493,2.437,2.036,3.027,4.247,3.524C66.434,31.44,68.735,30.774,69.611,28.465z"/>
		<path d="M52.643,14.642c0.557,0,1.008-0.125,1.008-1.838c0-1.714-0.451-4.368-1.008-4.368c-0.559,0-1.009,2.654-1.009,4.368
			C51.634,14.517,52.086,14.642,52.643,14.642z"/>
		<path d="M43.058,29.572c0.554,0,1.008-0.125,1.008-1.838c0-1.714-0.451-4.368-1.008-4.368c-0.562,0-1.011,2.654-1.011,4.368
			C42.047,29.448,42.496,29.572,43.058,29.572z"/>
		<path d="M64.185,15.293c0.557,0,1.011-0.124,1.011-1.839c0-1.714-0.452-4.367-1.011-4.367c-0.557,0-1.008,2.653-1.008,4.367
			C63.179,15.169,63.631,15.293,64.185,15.293z"/>
		<path d="M74.905,23.104c-0.556,0-1.008,2.653-1.008,4.368c0,1.712,0.449,1.837,1.008,1.837c0.557,0,1.009-0.123,1.009-1.837
			C75.914,25.757,75.462,23.104,74.905,23.104z"/>
		<path d="M27.883,50.028c-0.764-2.509-2.247-12.124-6.653-10.384c-1.616,0.644-1.438,3.123-1.906,4.964
			c-0.811,3.157-1.315,6.214-0.091,7.792c1.584,2.042,3.042,1.926,5.23,1.318C26.642,53.117,28.642,52.537,27.883,50.028z"/>
		<path d="M31.841,54.435c-3.183-0.463-7.259,6.861-8.02,9.105c-0.755,2.245,1.305,3.403,3.397,3.855
			c2.093,0.451,4.955-0.975,5.709-3.219C33.691,61.937,35.026,54.896,31.841,54.435z"/>
		<path d="M1.638,54.12c-3.258,1.308,0.432,9.569,1.637,11.627c1.206,2.056,4.208,1.877,5.922,0.632
			c1.719-1.25,2.298-3.896,1.621-6.184C10.17,58.002,4.6,52.929,1.638,54.12z"/>
		<path d="M11.06,40.438c-2.095,0.434-2.44,3.381-3.225,5.751c-0.813,2.461-2.018,4.356-1.532,5.637
			c0.876,2.308,3.174,2.975,5.388,2.477c2.21-0.497,4.74-1.086,4.248-3.521C15.449,48.335,15.328,39.555,11.06,40.438z"/>
		<path d="M23.271,38c0.557,0,1.009-0.125,1.009-1.838c0-1.715-0.451-4.369-1.009-4.369c-0.558,0-1.009,2.654-1.009,4.369
			C22.262,37.875,22.716,38,23.271,38z"/>
		<path d="M32.857,46.725c-0.555,0-1.009,2.655-1.009,4.37c0,1.711,0.452,1.839,1.009,1.839c0.559,0,1.01-0.126,1.01-1.839
			C33.867,49.38,33.417,46.725,32.857,46.725z"/>
		<path d="M11.728,38.65c0.556,0,1.009-0.123,1.009-1.839c0-1.713-0.452-4.366-1.009-4.366s-1.009,2.653-1.009,4.366
			C10.719,38.527,11.17,38.65,11.728,38.65z"/>
		<path d="M2.015,50.831c0-1.715-0.45-4.368-1.008-4.368C0.448,46.462,0,49.116,0,50.831c0,1.711,0.451,1.839,1.009,1.839
			C1.567,52.669,2.015,52.542,2.015,50.831z"/>
	</g>
</g>
</svg>