<?xml version="1.0" encoding="iso-8859-1"?>
<!-- Uploaded to: SVG Repo, www.svgrepo.com, Generator: SVG Repo Mixer Tools -->
<!DOCTYPE svg PUBLIC "-//W3C//DTD SVG 1.1//EN" "http://www.w3.org/Graphics/SVG/1.1/DTD/svg11.dtd">
<svg fill="#000000" height="800px" width="800px" version="1.1" id="Capa_1" xmlns="http://www.w3.org/2000/svg" xmlns:xlink="http://www.w3.org/1999/xlink" 
	 viewBox="0 0 486.166 486.166" xml:space="preserve">
<path id="XMLID_46_" d="M243.086,0C134.899,0,50.379,112.769,50.379,243.091c0,132.488,85.737,243.075,192.706,243.075
	c111.288,0,192.701-116.28,192.701-243.075C435.787,110.763,349.679,0,243.086,0z M390.354,161.118
	c-0.966,0.051-1.945,0.176-2.918-0.094c-2.906-0.833-5.196-3.001-5.968-5.662c-3.571-12.119-7.563-24.237-11.956-36.325
	c-0.483-1.335-1.783-2.392-3.352-2.694c-1.556-0.354-3.157,0.096-4.054,1.154c-16.563,18.596-31.908,37.882-46.017,57.683
	c-0.91,1.25-2.58,1.827-4.136,1.394c-1.55-0.447-2.661-1.781-2.736-3.35c-1.111-21.387-2.793-42.82-5.085-64.258
	c-0.163-1.666-1.669-3.076-3.621-3.365c-1.927-0.322-3.804,0.578-4.494,2.102c-5.222,11.622-10.243,23.293-15.038,35.06
	c-0.527,1.316-1.858,2.215-3.395,2.277c-1.544,0.096-3.02-0.674-3.753-1.926c-10.13-17.074-21.34-33.859-33.603-50.287
	c-0.772-1.014-2.103-1.654-3.559-1.674c-1.443-0.045-2.793,0.548-3.59,1.543c-14.334,17.715-27.383,35.991-39.138,54.637
	c-0.721,1.154-2.053,1.842-3.477,1.812c-1.443-0.017-2.743-0.753-3.383-1.942c-9.157-16.496-19.092-32.752-29.773-48.734
	c-0.798-1.201-2.404-1.877-4.068-1.702c-1.67,0.161-3.112,1.14-3.671,2.487c-8.629,20.441-16.148,41.089-22.545,61.817
	c-0.433,1.429-1.782,2.503-3.363,2.678c-1.588,0.177-3.095-0.577-3.834-1.892c-4.55-8.449-9.684-16.689-14.543-25.012
	C172.85-14.333,339.85,4.391,390.354,161.118z M102.502,343.287c1.412-1.394,2.899-2.724,4.312-4.136
	c1.92-1.953,4.939-2.723,7.889-2.037c2.919,0.691,5.322,2.744,6.201,5.389c4.124,11.928,8.642,23.857,13.581,35.737
	c0.546,1.315,1.89,2.307,3.478,2.55c1.588,0.254,3.125-0.26,4.01-1.364c15.697-19.317,30.157-39.263,43.362-59.669
	c0.835-1.316,2.473-1.974,4.074-1.59c1.556,0.369,2.729,1.651,2.887,3.191c2.051,21.339,4.713,42.677,7.97,63.999
	c0.238,1.635,1.808,2.981,3.766,3.191c1.939,0.207,3.765-0.754,4.393-2.31c4.714-11.831,9.17-23.742,13.431-35.7
	c0.47-1.314,1.763-2.279,3.308-2.44c1.538-0.159,3.044,0.563,3.828,1.766c10.89,16.592,22.845,32.863,35.83,48.706
	c0.823,0.99,2.185,1.567,3.628,1.537c1.443-0.033,2.787-0.691,3.527-1.715c13.531-18.373,25.731-37.195,36.634-56.353
	c0.652-1.171,1.97-1.94,3.415-1.954c1.405-0.068,2.735,0.623,3.444,1.778c9.892,16.065,20.536,31.854,31.952,47.341
	c0.835,1.17,2.466,1.764,4.136,1.539c1.669-0.256,3.043-1.297,3.559-2.659c7.694-20.829,14.266-41.796,19.719-62.784
	c0.383-1.441,1.67-2.58,3.239-2.818c1.588-0.259,3.126,0.432,3.91,1.697c1.732,2.917,3.753,5.705,5.529,8.609
	C331.34,488.921,164.785,494.036,102.502,343.287z"/>
</svg>