<?xml version="1.0" encoding="iso-8859-1"?>
<!-- Uploaded to: SVG Repo, www.svgrepo.com, Generator: SVG Repo Mixer Tools -->
<svg fill="#000000" height="800px" width="800px" version="1.1" id="Layer_1" xmlns="http://www.w3.org/2000/svg" xmlns:xlink="http://www.w3.org/1999/xlink" 
	 viewBox="0 0 512.001 512.001" xml:space="preserve">
<g>
	<g>
		<path d="M465.148,156.136c-2.235-25.06-13.193-48.306-31.314-66.114c-19.953-19.611-46.354-30.411-74.336-30.411
			c-15.488,0-30.816,3.413-44.79,9.923C303.846,53.86,289.57,40.68,273.036,31.128c-19.496-11.262-41.764-17.214-64.4-17.214
			c-28.175,0-54.941,8.926-77.405,25.813c-19.874,14.942-35.22,35.668-43.737,58.896c-0.298-0.004-0.596-0.005-0.892-0.005
			C38.849,98.619,0,137.469,0,185.221c0,47.752,38.849,86.603,86.602,86.603h16.035l57.653,73.946h-16.189
			c-3.376,0-6.451,1.944-7.899,4.995s-1.01,6.662,1.125,9.278L247.358,494.87c1.709,2.095,4.222,3.217,6.779,3.217
			c1.429,0,2.872-0.35,4.196-1.075c3.696-2.024,5.423-6.397,4.106-10.4l-33.421-101.655h35.963c2.792,0,5.416-1.333,7.062-3.588
			c1.646-2.254,2.117-5.159,1.268-7.819l-32.495-101.726h89.288l-19.927,62.378c-0.85,2.659-0.378,5.564,1.269,7.819
			c1.646,2.255,4.27,3.588,7.062,3.588h22.04l-3.92,64.509c-0.245,4.032,2.305,7.708,6.167,8.891c0.848,0.26,1.71,0.385,2.561,0.385
			c3.029,0,5.923-1.581,7.527-4.295l51.988-87.933c1.598-2.703,1.624-6.056,0.069-8.783c-1.556-2.728-4.455-4.412-7.596-4.412
			h-8.477l19.758-42.144h44.953c32.215,0,58.424-26.209,58.424-58.424C512,185.338,491.968,161.541,465.148,156.136z
			 M253.008,367.466h-36.069c-2.804,0-5.439,1.345-7.083,3.617c-1.644,2.271-2.1,5.194-1.224,7.858l22.471,68.352l-68.579-84.034
			h15.671c3.341,0,6.39-1.905,7.857-4.907c1.467-3.002,1.094-6.578-0.961-9.214l-60.279-77.314h97.644L253.008,367.466z M367.19,319
			c-1.27,2.708-1.067,5.879,0.539,8.403c1.604,2.524,4.388,4.054,7.379,4.054h6.908l-25.732,43.524l2.284-37.587
			c0.146-2.406-0.708-4.767-2.36-6.523c-1.652-1.756-3.957-2.752-6.368-2.752h-19.359l17.984-56.295h40.844L367.19,319z
			 M453.575,254.335H86.602c-38.109,0-69.113-31.004-69.113-69.114s31.004-69.114,69.113-69.114c1.993,0,4.048,0.098,6.282,0.298
			c4.113,0.371,7.938-2.197,9.147-6.154c6.826-22.345,20.93-42.426,39.711-56.544c19.408-14.591,42.539-22.304,66.894-22.304
			c39.438,0,75.156,20.199,95.542,54.035c2.444,4.055,7.671,5.431,11.793,3.099c13.234-7.482,28.286-11.438,43.527-11.438
			c23.368,0,45.415,9.018,62.078,25.395c16.64,16.354,26.05,38.198,26.493,61.507c0.086,4.547,3.643,8.269,8.182,8.56
			c21.454,1.38,38.261,19.318,38.261,40.837C494.511,235.971,476.148,254.335,453.575,254.335z"/>
	</g>
</g>
<g>
	<g>
		<path d="M307.136,139.949c-7.583,0-14.888,1.764-21.496,5.154c-13.757-13.942-32.393-21.804-52.213-21.804
			c-40.496,0-73.441,32.951-73.441,73.452c0,11.92,2.928,23.759,8.465,34.236c1.568,2.967,4.601,4.66,7.739,4.66
			c1.378,0,2.775-0.326,4.078-1.016c4.27-2.257,5.902-7.547,3.645-11.817c-4.211-7.969-6.437-16.982-6.437-26.064
			c0-30.858,25.1-55.964,55.952-55.964c17.098,0,33.042,7.683,43.746,21.081c2.952,3.696,8.306,4.373,12.088,1.531
			c5.185-3.9,11.365-5.963,17.875-5.963c16.394,0,29.731,13.332,29.731,29.719v0.119c-0.242,4.781,3.411,8.876,8.201,9.169
			c4.813,0.3,8.965-3.375,9.26-8.196c0.022-0.365,0.027-0.729,0.027-1.092C354.356,161.126,333.174,139.949,307.136,139.949z"/>
	</g>
</g>
</svg>