<?xml version="1.0" encoding="iso-8859-1"?>
<!-- Uploaded to: SVG Repo, www.svgrepo.com, Generator: SVG Repo Mixer Tools -->
<!DOCTYPE svg PUBLIC "-//W3C//DTD SVG 1.1//EN" "http://www.w3.org/Graphics/SVG/1.1/DTD/svg11.dtd">
<svg fill="#000000" version="1.1" id="Capa_1" xmlns="http://www.w3.org/2000/svg" xmlns:xlink="http://www.w3.org/1999/xlink" 
	 width="800px" height="800px" viewBox="0 0 489.588 489.588"
	 xml:space="preserve">
<g>
	<g>
		<path d="M439.839,236.727c-0.176-0.493-0.342-0.98-0.507-1.449l-0.371-0.79l-0.673-1.141c-0.166-0.229-0.352-0.449-0.537-0.649
			l-0.897-0.937c-0.205-0.209-0.409-0.38-0.614-0.541c-0.322-0.278-0.692-0.561-1.083-0.81l-0.546-0.366
			c-0.536-0.302-1.093-0.614-1.639-0.844l-0.215-0.088c-0.507-0.2-0.995-0.38-1.551-0.531l-0.107-0.029
			c-0.692-0.19-1.386-0.317-2.049-0.41c-0.731-0.098-1.482-0.127-2.185-0.107c0.409,0,0.819-0.059,1.248-0.18
			c6.634-1.371,16.379-13.584,15.218-17.261c-0.088-0.322-0.332-0.649-0.624-0.99l-0.215-0.229
			c-0.741-0.707-1.873-1.468-3.238-2.166l-0.332-0.161c-0.731-0.352-1.521-0.688-2.37-1.02l-0.303-0.098
			c-0.849-0.303-1.746-0.61-2.692-0.873c-0.02,0-0.059,0-0.059,0c-0.937-0.259-1.893-0.458-2.848-0.639l-0.449-0.078
			c-0.917-0.161-1.854-0.269-2.761-0.342l-0.186-0.01c-0.858-0.049-1.678-0.049-2.478-0.029l-0.371,0.029
			c-0.789,0.059-1.531,0.161-2.204,0.332c-0.137,0-0.253,0.049-0.39,0.078c-0.664,0.2-1.288,0.429-1.785,0.722
			c0.595-0.361,1.15-0.79,1.707-1.259l0.351-0.321c0.42-0.4,0.849-0.81,1.239-1.269l0.029-0.02c0.487-0.58,0.956-1.2,1.346-1.878
			c0.078-0.102,0.137-0.219,0.186-0.341c0.322-0.571,0.634-1.156,0.878-1.785c0-0.02,0-0.02,0.02-0.034
			c0.166-0.508,0.312-1.044,0.429-1.585c0.078-0.268,0.146-0.532,0.225-0.819c0.156-0.78,0.186-1.59,0.098-2.4l0.01-0.2
			c-0.088-0.839-0.293-1.688-0.536-2.585l-0.039-0.141c-0.312-0.927-0.702-1.878-1.249-2.834c-0.429-0.771-0.897-1.458-1.375-2.059
			c-0.156-0.18-0.322-0.36-0.459-0.512c-0.312-0.366-0.663-0.746-0.975-1.039c-0.205-0.146-0.391-0.288-0.566-0.429
			c-0.312-0.229-0.624-0.468-0.966-0.629l-0.556-0.297c-0.332-0.141-0.645-0.268-0.976-0.371l-0.536-0.161
			c-0.352-0.068-0.693-0.117-1.024-0.136l-0.469-0.044c-0.429-0.02-0.878,0.034-1.326,0.083l-0.156,0.029
			c-0.39,0.068-0.761,0.142-1.132,0.249l-0.078,0.049c-0.458,0.132-0.955,0.302-1.404,0.521c-0.449,0.22-0.858,0.449-1.248,0.678
			c-4.088,2.609-4.81,6.663-3.063,9.682c0.205,0.375,0.448,0.717,0.702,1.019c1.854,2.034,4.838,2.127,6.536,1.507
			c2.009-0.751,2.965-2.707,1.746-4.833c-0.449-0.8-1.229-2.6-2.478-1.712c-0.166,0.122-0.264,0.264-0.322,0.4
			c-0.391,0.97,1.619,2.248-0.605,3.209c-0.204,0.088-0.429,0.127-0.644,0.161l-0.116,0.039c-0.41,0.01-0.84-0.151-1.239-0.42
			c-0.332-0.219-0.653-0.531-0.927-1.02c-0.8-1.409,0.352-3.648,1.932-4.613c0.565-0.352,1.082-0.581,1.59-0.761l0.458-0.122
			c0.352-0.117,0.683-0.176,1.015-0.21l0.449-0.01c0.312,0.01,0.624,0.054,0.906,0.142l0.361,0.078
			c0.391,0.141,0.78,0.302,1.112,0.57c0.429,0.278,0.819,0.678,1.19,1.117c0.059,0.073,0.117,0.161,0.204,0.244
			c0.342,0.458,0.692,0.956,0.985,1.498c1.015,1.848,1.512,3.906,1.308,5.74c0,0.161-0.029,0.293-0.068,0.454
			c-0.059,0.419-0.205,0.83-0.391,1.249c-0.029,0.156-0.098,0.288-0.204,0.449c-0.254,0.517-0.547,1.009-0.977,1.429l-0.02,0.01
			c-0.39,0.429-0.857,0.775-1.414,1.098l-0.517,0.249c-0.41,0.209-0.878,0.371-1.366,0.532c-0.215,0.059-0.429,0.107-0.653,0.171
			c-0.722,0.156-1.512,0.239-2.39,0.249c-3.785-0.063-9.033-2.297-13.578-5.497c-4.526-3.234-8.682-7.272-11.608-11.009
			c-0.78-1.087-1.464-2.214-2.107-3.375c-0.604-1.039-1.103-2.126-1.541-3.224l-0.059-0.151c-1.424-3.858-2.556-7.379-1.736-10.847
			c0.303-1.419,0.946-2.716,1.883-3.965l0.068-0.112c0.38-0.478,0.731-1,1.22-1.458c0.595-0.537,1.16-0.868,1.697-1.249
			c0.224-0.156,0.458-0.346,0.663-0.487c0.448-0.259,0.849-0.381,1.287-0.571l0.186-0.068c0.38-0.151,0.751-0.269,1.093-0.361
			c0.917-0.19,1.756-0.19,2.536-0.078c1.463,0.239,2.556,0.937,3.141,1.366c0.02,0.034,0.059,0.073,0.088,0.083
			c0.098,0.087,0.205,0.166,0.264,0.229c0.039,0.029,0.098,0.098,0.098,0.098c-0.488-2.678-1.659-5.434-3.249-7.711
			c-3.375-5.204-9.374-7.253-14.368-1.966c-4.683,4.931-4.78,11.984-4.994,13.784c-0.02,0.239-0.039,0.38-0.039,0.38
			c-1.522-2.966-2.127-6.584-3.239-11.008c-1.209-4.336-3.033-9.481-8.35-13.554c-3.746-3.067-7.453-3.478-10.145-3.097
			c-2.731,0.429-4.565,1.697-4.565,1.697c-1.054-0.649-2.243-0.917-3.453-0.868c-0.41,0-0.829,0.068-1.22,0.107
			c-0.186-1.576-0.771-3.093-2.029-4.205c0,0,0.674-2.029,0.391-4.853c-0.225-2.868-1.561-6.433-5.628-9.038
			c-11.053-7.765-20.681-2.468-26.748-4.575c0,0,8.263-1.912,12.291-8.575c0.683-1.166,1.112-2.258,1.327-3.297
			c1.033-4.663-2.342-8.389-7.014-10.164c-2.644-0.873-5.629-1.2-8.351-0.932c0,0,0.078,0.039,0.127,0.083l0.293,0.166l0.107,0.122
			c0.595,0.4,1.531,1.249,2.155,2.575l0.059,0.122c0.273,0.629,0.469,1.385,0.547,2.258c0.039,0.488-0.01,1.068-0.098,1.648
			c-0.02,0.366-0.039,0.717-0.166,1.146c-0.127,0.551-0.42,1.161-0.692,1.78c-0.127,0.317-0.176,0.61-0.352,0.956
			c-0.448,0.912-1.024,1.703-1.658,2.4c-0.225,0.2-0.468,0.419-0.692,0.629c-0.449,0.419-0.907,0.819-1.434,1.146
			c-0.293,0.161-0.625,0.332-0.957,0.512c-0.497,0.249-0.994,0.498-1.521,0.668c-0.36,0.141-0.731,0.219-1.102,0.307
			c-0.537,0.151-1.103,0.254-1.668,0.332c-0.381,0.029-0.771,0.087-1.181,0.122c-0.595,0.039-1.22,0.049-1.824,0.02
			c-0.4-0.01-0.771-0.029-1.171-0.039c-0.663-0.102-1.385-0.2-2.087-0.302l-0.976-0.171c-2.205-0.346-4.448-0.829-6.614-1.585
			c-8.662-3.526-20.367-12.008-22.611-19.87c-0.243-1-0.409-1.878-0.429-2.707c-0.02-0.819,0.039-1.576,0.215-2.249
			c0.936-4.083,5.413-5.56,9.646-4.595c0.752,0.171,1.435,0.41,2.039,0.683l0.176,0.088c0.585,0.249,1.063,0.619,1.502,1l0.195,0.2
			c0.371,0.419,0.692,0.888,0.878,1.449l0.039,0.229c0.166,0.6,0.244,1.258,0.176,2.039c-0.039,0.468-0.156,0.985-0.293,1.527
			c-0.526,1.8-2.38,3.526-3.95,3.156c-0.518-0.132-0.868-0.337-1.19-0.571l-0.166-0.156c-0.253-0.244-0.448-0.512-0.526-0.819
			c-0.098-0.292-0.156-0.609-0.107-0.951c0.342-2.365,2.107-0.839,2.936-1.458c0.117-0.098,0.215-0.229,0.293-0.429
			c0.117-0.342,0.088-0.62-0.01-0.829l-0.146-0.181c-0.107-0.151-0.233-0.249-0.429-0.366l-0.312-0.132l-0.487-0.18
			c-0.332-0.068-0.664-0.161-0.917-0.21v0.01v-0.01c-2.38-0.571-4.019,0.897-4.194,3.039c-0.156,2.053,1.014,5.443,4.37,6.243
			l0.02-0.01c0.575,0.166,1.17,0.195,1.774,0.166l0.352-0.02c1.054-0.107,2.088-0.429,3.024-1.039l0.331-0.269
			c0.312-0.249,0.605-0.478,0.888-0.771c0.146-0.136,0.264-0.278,0.381-0.419c0.253-0.317,0.497-0.639,0.722-1l0.293-0.458
			c0.273-0.537,0.546-1.107,0.731-1.775c0.127-0.419,0.243-0.902,0.341-1.4c0.078-0.478,0.137-1.01,0.137-1.478v-0.103
			c0-0.366-0.02-0.746-0.02-1.136l-0.039-0.209c-0.059-0.439-0.137-0.897-0.272-1.307l-0.156-0.391
			c-0.137-0.302-0.273-0.609-0.42-0.941l-0.302-0.458c-0.176-0.298-0.371-0.561-0.605-0.829c-0.137-0.171-0.272-0.308-0.448-0.458
			c-0.234-0.259-0.546-0.532-0.858-0.742l-0.566-0.419c-0.37-0.209-0.799-0.449-1.248-0.648c-0.205-0.098-0.391-0.21-0.624-0.278
			c-0.702-0.292-1.483-0.561-2.341-0.751c-0.879-0.19-1.718-0.307-2.537-0.356l-0.8-0.015c-0.526,0.024-1.044,0.044-1.541,0.063
			l-0.878,0.127l-1.307,0.292l-0.801,0.268l-1.15,0.478c-0.254,0.122-0.469,0.239-0.693,0.38c-0.38,0.2-0.75,0.429-1.102,0.708
			c-0.186,0.161-0.352,0.283-0.518,0.419c-0.478,0.424-0.926,0.854-1.316,1.312l-0.137,0.18c-0.352,0.419-0.692,0.839-0.995,1.317
			l-0.068,0.098c-0.39,0.6-0.712,1.219-1.024,1.829c-0.312,0.658-0.575,1.38-0.771,2.048c0.117-0.38,0.195-0.8,0.225-1.249
			c0.751-6.702-7.901-19.666-11.774-19.656c-0.341-0.044-0.727,0.078-1.136,0.21l-0.293,0.126c-0.917,0.39-1.985,1.229-3.077,2.351
			l-0.249,0.258c-0.57,0.61-1.127,1.249-1.707,1.956l-0.181,0.253c-0.536,0.737-1.107,1.507-1.648,2.327l-0.029,0.049
			c-0.541,0.829-1.02,1.678-1.478,2.517l-0.22,0.4c-0.438,0.858-0.839,1.697-1.19,2.546l-0.059,0.181
			c-0.312,0.8-0.571,1.58-0.79,2.346l-0.088,0.352c-0.19,0.771-0.322,1.497-0.361,2.219c-0.029,0.126-0.02,0.258-0.039,0.38
			c-0.02,0.697,0,1.366,0.137,1.926c-0.166-0.668-0.386-1.341-0.668-2.009l-0.229-0.419c-0.239-0.532-0.498-1.068-0.819-1.566
			l-0.01-0.034c-0.4-0.649-0.849-1.269-1.375-1.858c-0.073-0.098-0.17-0.195-0.273-0.269c-0.449-0.487-0.917-0.946-1.439-1.37
			c-0.02,0-0.02,0-0.02-0.029c-0.429-0.317-0.907-0.605-1.385-0.888c-0.244-0.161-0.454-0.278-0.712-0.449
			c-0.688-0.371-1.458-0.659-2.268-0.907l-0.18-0.093c-0.83-0.239-1.698-0.258-2.624-0.288l-0.151-0.01
			c-0.98,0.02-2.01,0.107-3.088,0.327c-0.868,0.2-1.658,0.429-2.365,0.692c-0.22,0.107-0.429,0.2-0.629,0.278
			c-0.449,0.209-0.912,0.419-1.288,0.629c-0.209,0.161-0.399,0.278-0.57,0.41c-0.342,0.22-0.639,0.449-0.912,0.727l-0.449,0.444
			c-0.229,0.258-0.439,0.526-0.639,0.814l-0.317,0.483c-0.18,0.317-0.322,0.619-0.429,0.936l-0.19,0.42
			c-0.151,0.429-0.249,0.863-0.331,1.302l-0.02,0.146c-0.049,0.41-0.088,0.78-0.098,1.161l0.02,0.107c-0.02,0.473,0,1,0.059,1.458
			c0.059,0.522,0.161,0.99,0.268,1.41c1.219,4.707,4.858,6.604,8.262,5.843c0.419-0.078,0.819-0.209,1.18-0.371
			c2.507-1.156,3.502-3.975,3.434-5.799c-0.098-2.141-1.668-3.628-4.063-3.116c-0.893,0.2-2.838,0.4-2.37,1.868
			c0.063,0.19,0.171,0.317,0.273,0.419c0.795,0.649,2.644-0.883,2.873,1.517c0.01,0.239-0.01,0.449-0.059,0.668v0.132
			c-0.122,0.39-0.39,0.771-0.78,1.049c-0.307,0.258-0.688,0.478-1.249,0.6c-1.575,0.336-3.355-1.429-3.795-3.248
			c-0.161-0.629-0.209-1.19-0.229-1.736l0.02-0.483c0.01-0.346,0.048-0.698,0.122-1.029l0.127-0.429
			c0.103-0.297,0.239-0.576,0.4-0.81l0.19-0.327c0.249-0.332,0.542-0.639,0.878-0.888c0.41-0.332,0.902-0.581,1.429-0.8
			c0.103-0.049,0.19-0.083,0.312-0.132c0.527-0.2,1.107-0.371,1.727-0.498c2.068-0.38,4.166-0.332,5.863,0.537
			c0.151,0.073,0.278,0.161,0.409,0.244c0.391,0.22,0.751,0.478,1.078,0.776c0.142,0.092,0.254,0.19,0.371,0.312
			c0.4,0.419,0.781,0.858,1.059,1.375v0.015c0.292,0.507,0.478,1.068,0.61,1.688l0.078,0.565c0.083,0.483,0.093,0.961,0.093,1.468
			c-0.02,0.22-0.029,0.454-0.049,0.673c-0.083,0.727-0.229,1.517-0.483,2.365c-1.229,3.614-4.994,7.682-9.398,11.169
			c-4.434,3.482-9.599,5.97-14.042,7.667c-1.268,0.419-2.551,0.731-3.838,1.01c-1.185,0.249-2.366,0.409-3.536,0.512l-0.156,0.01
			c-4.107,0.19-7.892-0.068-10.862-1.79c-1.239-0.697-2.287-1.707-3.175-2.975c-0.02-0.039-0.039-0.093-0.078-0.112
			c-0.352-0.517-0.741-0.995-1.01-1.595c-0.322-0.731-0.478-1.38-0.668-2c-0.093-0.259-0.181-0.551-0.264-0.78
			c-0.107-0.507-0.098-0.927-0.137-1.419l-0.01-0.186c-0.01-0.41-0.044-0.8,0.01-1.151c0.078-0.946,0.347-1.756,0.678-2.458
			c0.678-1.336,1.668-2.166,2.249-2.595c0.049-0.019,0.098-0.039,0.117-0.058c0.122-0.083,0.209-0.151,0.292-0.215
			c0.039-0.02,0.126-0.059,0.126-0.059c-2.673-0.327-5.643-0.049-8.286,0.79c-5.907,1.746-9.901,6.375-6.375,12.925
			c3.185,5.834,10.028,8.57,11.618,9.189c0.229,0.093,0.346,0.142,0.346,0.142c-3.244,0.648-7.048-0.371-11.506-0.43
			c-4.414-0.068-9.911,0.029-15.5,3.678c-8.111,5.414-5.858,13.632-5.858,13.632c-1.005,0.732-1.668,1.697-1.965,2.917
			c-0.122,0.38-0.19,0.81-0.249,1.209c-1.561-0.292-3.156-0.19-4.585,0.698c0,0-1.731-1.269-4.468-1.839
			c-2.688-0.527-6.633-0.527-10.447,2.438c-5.121,4.248-7.491,8.96-8.94,13.154c-1.229,4.448-1.668,8.321-3.526,11.027
			c0,0,0.62-8.54-4.502-14.451c-0.902-1.01-1.8-1.736-2.716-2.278c-4.126-2.419-8.555-0.209-11.73,3.648
			c-1.829,2.098-3.077,4.824-3.556,7.58c0,0,0.059-0.078,0.112-0.112c0.068-0.068,0.146-0.146,0.239-0.229l0.137-0.068
			c0.57-0.439,1.639-1.098,3.067-1.288l0.142-0.02c0.658-0.102,1.478-0.02,2.336,0.2c0.488,0.127,1.02,0.356,1.561,0.61
			c0.356,0.156,0.688,0.277,1.058,0.536c0.488,0.293,0.976,0.761,1.478,1.2c0.268,0.219,0.517,0.351,0.8,0.639
			c0.727,0.697,1.287,1.458,1.746,2.287c0.151,0.269,0.229,0.571,0.36,0.829c0.249,0.552,0.459,1.088,0.639,1.697
			c0.049,0.332,0.126,0.703,0.2,1.078c0.088,0.551,0.181,1.103,0.2,1.678c0.02,0.391-0.01,0.761-0.029,1.151
			c-0.024,0.57-0.073,1.126-0.181,1.707c-0.063,0.38-0.141,0.771-0.209,1.19c-0.141,0.581-0.312,1.166-0.512,1.756
			c-0.127,0.38-0.239,0.742-0.38,1.122c-0.288,0.629-0.585,1.278-0.897,1.927l-0.449,0.897c-1.02,1.961-2.487,3.746-3.726,5.643
			c-2.727,3.858-7.331,7.545-12.145,10.472c-4.555,3.043-9.569,5.204-13.554,5.014c-1.01-0.083-1.878-0.19-2.678-0.42
			c-0.79-0.219-1.487-0.521-2.078-0.902c-3.609-2.155-3.707-6.901-1.561-10.657c0.391-0.659,0.8-1.239,1.239-1.756l0.131-0.151
			c0.419-0.459,0.888-0.829,1.366-1.107l0.264-0.132c0.546-0.21,1.097-0.361,1.688-0.351l0.249,0.034
			c0.629,0.029,1.297,0.175,2.019,0.478c0.43,0.2,0.888,0.449,1.356,0.761c1.561,1.044,2.458,3.253,1.717,4.692
			c-0.269,0.448-0.566,0.731-0.868,0.97l-0.21,0.107c-0.288,0.161-0.6,0.258-0.907,0.258c-0.332-0.02-0.629-0.049-0.932-0.205
			c-2.156-1.043-0.176-2.292-0.537-3.277c-0.048-0.142-0.161-0.273-0.322-0.4c-0.298-0.219-0.556-0.273-0.8-0.239l-0.21,0.078
			c-0.166,0.068-0.307,0.161-0.468,0.288l-0.21,0.244l-0.298,0.449c-0.17,0.277-0.341,0.575-0.458,0.8v0.01v0.01
			c-1.229,2.097-0.312,4.116,1.644,4.931c1.912,0.8,5.458,0.722,7.185-2.268v-0.01c0.331-0.508,0.507-1.068,0.658-1.659l0.122-0.317
			c0.278-1.01,0.336-2.059,0.088-3.126l-0.142-0.39c-0.137-0.312-0.259-0.658-0.439-1.02c-0.058-0.171-0.166-0.317-0.258-0.478
			c-0.209-0.332-0.449-0.659-0.717-0.99l-0.351-0.41c-0.42-0.438-0.888-0.868-1.468-1.258c-0.371-0.269-0.78-0.508-1.229-0.751
			c-0.429-0.229-0.907-0.439-1.371-0.585l-0.088-0.039l-1.087-0.312l-0.2-0.029c-0.439-0.093-0.878-0.142-1.332-0.161l-0.478,0.01
			c-0.351,0.029-0.668,0.049-1.058,0.093l-0.542,0.127c-0.346,0.078-0.678,0.19-1.039,0.292c-0.166,0.078-0.375,0.176-0.565,0.298
			c-0.352,0.142-0.692,0.332-1.02,0.561l-0.609,0.391c-0.361,0.278-0.722,0.614-1.029,0.985c-0.151,0.17-0.322,0.302-0.458,0.512
			c-0.473,0.571-0.951,1.259-1.39,2.015c-0.439,0.79-0.79,1.551-1.078,2.321l-0.229,0.756c-0.141,0.513-0.273,1.029-0.4,1.478
			l-0.132,0.878l-0.088,1.341l0.029,0.849l0.132,1.268c0.029,0.268,0.068,0.512,0.146,0.771c0.083,0.419,0.2,0.849,0.361,1.277
			c0.068,0.21,0.151,0.42,0.209,0.61c0.229,0.581,0.479,1.117,0.79,1.629l0.107,0.19c0.273,0.458,0.551,0.897,0.893,1.336
			l0.068,0.103c0.429,0.536,0.897,1.039,1.38,1.497c0.527,0.507,1.097,0.971,1.668,1.366c-0.322-0.229-0.692-0.439-1.102-0.6
			c-6.243-2.824-21.007,1.454-22.144,5.126c-0.141,0.312-0.151,0.717-0.141,1.171l0.039,0.298c0.131,1,0.542,2.277,1.2,3.628
			l0.161,0.297c0.361,0.717,0.78,1.449,1.249,2.2l0.17,0.258c0.469,0.717,1.049,1.507,1.668,2.278
			c0.01,0.01,0.039,0.039,0.039,0.039c0.629,0.771,1.288,1.487,1.956,2.194l0.322,0.332c0.678,0.678,1.38,1.336,2.077,1.917
			l0.151,0.132c0.668,0.551,1.346,1.039,2.005,1.468l0.322,0.209c0.668,0.41,1.327,0.761,1.985,1.029
			c0.112,0.068,0.239,0.103,0.361,0.171c0.648,0.229,1.287,0.4,1.877,0.458c-0.688-0.048-1.41-0.039-2.117,0.02l-0.458,0.078
			c-0.571,0.063-1.161,0.141-1.731,0.283l-0.029-0.01c-0.727,0.19-1.449,0.43-2.166,0.746c-0.122,0.044-0.22,0.112-0.332,0.181
			c-0.6,0.273-1.175,0.59-1.727,0.941c0,0.02,0,0.02-0.029,0.02c-0.468,0.298-0.888,0.658-1.288,1.029
			c-0.22,0.18-0.41,0.336-0.639,0.536c-0.562,0.561-1.063,1.19-1.542,1.878l-0.127,0.151c-0.463,0.712-0.854,1.507-1.209,2.38
			l-0.073,0.137c-0.356,0.912-0.658,1.907-0.727,3.019c-0.083,0.878-0.083,1.697-0.039,2.463c0.029,0.244,0.059,0.482,0.078,0.683
			c0.049,0.497,0.122,1,0.219,1.429c0.078,0.229,0.151,0.479,0.209,0.668c0.112,0.39,0.239,0.742,0.42,1.087l0.292,0.571
			c0.175,0.307,0.366,0.6,0.595,0.888c0.103,0.132,0.209,0.273,0.332,0.439c0.249,0.264,0.488,0.478,0.761,0.702l0.356,0.308
			c0.352,0.278,0.751,0.512,1.142,0.717l0.151,0.073c0.346,0.181,0.697,0.327,1.058,0.458l0.097,0.029
			c0.449,0.161,0.961,0.292,1.439,0.38c0.497,0.093,0.98,0.171,1.409,0.181c4.833,0.297,7.721-2.575,8.009-6.053
			c0.039-0.43,0.029-0.849-0.01-1.239c-0.42-2.756-2.507-4.526-4.302-5.033c-2.01-0.571-4.156,0.41-4.355,2.854
			c-0.083,0.921-0.464,2.829,1.058,2.838c0.2,0,0.356-0.049,0.478-0.127c0.868-0.551-0.039-2.799,2.307-2.258
			c0.229,0.059,0.419,0.156,0.62,0.259l0.122,0.039c0.346,0.219,0.62,0.6,0.786,1.058c0.151,0.371,0.244,0.81,0.2,1.38
			c-0.156,1.609-2.356,2.746-4.214,2.604c-0.648-0.049-1.199-0.166-1.727-0.308l-0.448-0.18c-0.352-0.122-0.659-0.249-0.941-0.429
			l-0.371-0.259c-0.258-0.19-0.478-0.409-0.678-0.629l-0.239-0.283c-0.249-0.336-0.468-0.717-0.6-1.107
			c-0.19-0.513-0.278-1.049-0.341-1.62c0-0.107-0.01-0.2-0.02-0.317c-0.039-0.581-0.029-1.181,0.034-1.819
			c0.229-2.087,1.268-3.995,2.556-5.355c0.097-0.107,0.219-0.21,0.336-0.307c0.322-0.292,0.683-0.561,1.063-0.79
			c0.117-0.103,0.249-0.181,0.419-0.239c0.498-0.273,1.029-0.493,1.605-0.601l0.01,0.01c0.561-0.122,1.151-0.131,1.78-0.068
			l0.561,0.097c0.468,0.078,0.937,0.21,1.434,0.381l0.61,0.249c0.683,0.297,1.39,0.688,2.122,1.209
			c6.072,4.756,10.667,18.861,10.467,28.108c0.02,1.337-0.049,2.644-0.181,3.97c-0.098,1.19-0.307,2.371-0.561,3.521l-0.029,0.166
			c-0.917,3.961-2.707,7.473-5.131,9.784c-1.054,0.956-2.322,1.648-3.8,2.097l-0.127,0.049c-0.59,0.166-1.17,0.4-1.829,0.479
			c-0.8,0.078-1.458,0.02-2.107,0.01c-0.273,0.01-0.571,0-0.829,0.01c-0.522-0.068-0.912-0.195-1.381-0.312l-0.2-0.039
			c-0.38-0.107-0.771-0.205-1.087-0.37c-0.868-0.371-1.561-0.878-2.137-1.405c-1.058-1.053-1.57-2.263-1.8-2.955l-0.029-0.127
			c-0.039-0.137-0.068-0.244-0.103-0.352c0-0.029-0.029-0.137-0.029-0.137c-1.107,2.459-1.727,5.365-1.727,8.146
			c0,6.175,2.995,11.423,10.306,10.077c6.667-1.249,11.33-6.945,12.378-8.253c0.161-0.205,0.239-0.283,0.239-0.283
			c-0.8,6.468-8.072,13.55-5.263,26.718c2.756,9.346,11.276,9.717,11.276,9.717c0.41,1.18,1.161,2.106,2.098,2.789
			c0.322,0.234,0.668,0.439,1.01,0.625c-0.761,1.395-1.117,2.945-0.698,4.564c0,0-6.906,5.014-4.019,14.359
			c4.946,12.516,14.925,14.397,19.148,19.354c0,0-8.091-3.151-15.231-0.166c-1.239,0.556-2.229,1.17-3.024,1.883
			c-3.59,3.17-2.79,8.027-0.01,12.203c1.527,2.312,3.653,4.418,5.94,5.843c0,0-0.029-0.078-0.058-0.137
			c-0.029-0.078-0.073-0.195-0.132-0.312l-0.02-0.155c-0.209-0.703-0.429-1.971-0.131-3.434l0.034-0.127
			c0.166-0.693,0.458-1.435,0.926-2.186c0.268-0.438,0.649-0.868,1.059-1.297c0.239-0.273,0.468-0.576,0.829-0.84
			c0.429-0.36,1.019-0.682,1.59-1.033c0.297-0.195,0.498-0.381,0.849-0.557c0.907-0.478,1.819-0.771,2.736-0.965
			c0.297-0.059,0.61-0.039,0.907-0.088c0.6-0.068,1.2-0.117,1.8-0.068c0.322,0.049,0.688,0.117,1.048,0.156
			c0.542,0.117,1.059,0.214,1.59,0.39c0.356,0.117,0.698,0.264,1.039,0.409c0.488,0.244,0.995,0.488,1.537,0.723l1.078,0.565
			c0.522,0.303,1.039,0.644,1.561,1.024c0.317,0.225,0.63,0.449,0.956,0.692c0.522,0.449,1.049,0.937,1.6,1.415l0.731,0.692
			c1.556,1.58,2.975,3.395,4.214,5.326c5.282,7.628,9.237,21.89,6.799,29.225c-0.366,0.946-0.756,1.727-1.205,2.399
			c-0.463,0.684-0.96,1.269-1.502,1.717c-3.146,2.722-7.828,1.512-10.706-1.736c-0.478-0.604-0.868-1.209-1.199-1.805l-0.088-0.186
			c-0.303-0.565-0.469-1.15-0.581-1.717l-0.029-0.282c-0.049-0.575-0.029-1.151,0.161-1.707l0.107-0.225
			c0.22-0.595,0.561-1.181,1.068-1.775c0.312-0.351,0.702-0.702,1.142-1.044c1.468-1.15,3.945-1.424,4.955-0.166
			c0.327,0.439,0.488,0.82,0.595,1.19l0.024,0.244c0.059,0.321,0.049,0.653-0.054,0.966c-0.097,0.303-0.239,0.595-0.478,0.849
			c-1.668,1.727-2.137-0.624-3.175-0.624c-0.141,0.02-0.302,0.059-0.458,0.175c-0.302,0.205-0.454,0.449-0.493,0.683l0.01,0.234
			c0,0.195,0.039,0.332,0.103,0.547l0.156,0.292l0.303,0.449c0.21,0.253,0.429,0.526,0.59,0.731l0,0v0.01
			c1.507,1.912,3.844,1.561,5.204-0.029c1.366-1.6,2.239-4.848,0.127-7.638l0,0c-0.356-0.488-0.819-0.878-1.297-1.21l-0.278-0.215
			c-0.878-0.585-1.888-0.926-2.99-1.014l-0.419,0.02c-0.386,0.02-0.756,0-1.156,0.078c-0.18,0.029-0.37,0.059-0.531,0.116
			c-0.391,0.098-0.775,0.215-1.166,0.381l-0.502,0.205c-0.547,0.263-1.107,0.595-1.668,1.024c-0.347,0.263-0.708,0.595-1.078,0.926
			c-0.352,0.342-0.688,0.742-0.98,1.132l-0.068,0.068l-0.629,0.946l-0.088,0.195c-0.21,0.37-0.41,0.78-0.551,1.189l-0.131,0.449
			c-0.078,0.352-0.146,0.653-0.239,1.034l-0.029,0.546c-0.029,0.352-0.029,0.712-0.01,1.063c0,0.204,0.039,0.419,0.078,0.634
			c0.02,0.371,0.122,0.741,0.234,1.122l0.195,0.692c0.161,0.42,0.371,0.858,0.6,1.297c0.112,0.205,0.18,0.42,0.322,0.635
			c0.38,0.634,0.839,1.336,1.41,2.029c0.546,0.711,1.156,1.268,1.834,1.785l0.663,0.438c0.449,0.272,0.897,0.546,1.317,0.819
			l0.8,0.371l1.258,0.487l0.829,0.215l1.259,0.253c0.268,0.049,0.526,0.088,0.8,0.088c0.419,0.039,0.878,0.049,1.326,0.029
			c0.239,0,0.459-0.01,0.659-0.029c0.62-0.039,1.229-0.117,1.809-0.244l0.21-0.038c0.532-0.137,1.039-0.254,1.556-0.449l0.112-0.059
			c0.659-0.233,1.278-0.546,1.878-0.858c0.639-0.352,1.268-0.741,1.819-1.17c-0.322,0.224-0.619,0.526-0.902,0.857
			c-2.195,2.576-3.653,7.697-4.043,12.564c-0.352,4.79,0.521,9.15,2.028,10.203c0.249,0.215,0.639,0.342,1.078,0.449l0.298,0.078
			c1.009,0.176,2.351,0.146,3.857-0.088l0.342-0.049c0.795-0.137,1.634-0.312,2.497-0.537l0.298-0.106
			c0.849-0.234,1.746-0.508,2.658-0.839c0.009,0,0.048-0.02,0.048-0.02c0.907-0.332,1.78-0.723,2.648-1.122l0.41-0.205
			c0.839-0.409,1.658-0.858,2.424-1.316c0.054-0.049,0.112-0.078,0.171-0.107c0.712-0.439,1.38-0.937,1.99-1.425l0.288-0.224
			c0.61-0.518,1.151-1.044,1.6-1.581c0.097-0.087,0.17-0.204,0.258-0.282c0.43-0.556,0.8-1.103,1.02-1.639
			c-0.258,0.634-0.458,1.307-0.629,2.009l-0.068,0.449c-0.112,0.546-0.22,1.132-0.254,1.717l-0.01,0.039
			c-0.049,0.741-0.039,1.492,0.054,2.263c0,0.137,0.039,0.254,0.068,0.381c0.078,0.634,0.2,1.278,0.381,1.902c0.01,0,0.01,0,0,0.039
			c0.156,0.507,0.39,1.005,0.619,1.482c0.107,0.254,0.21,0.487,0.327,0.761c0.351,0.683,0.82,1.355,1.341,2l0.098,0.166
			c0.551,0.644,1.19,1.248,1.917,1.854l0.103,0.097c0.771,0.605,1.639,1.151,2.628,1.649c0.786,0.39,1.546,0.673,2.273,0.906
			c0.21,0.098,0.444,0.117,0.653,0.176c0.469,0.146,0.966,0.225,1.405,0.244c0.253,0,0.502,0,0.712,0c0.409,0,0.8-0.01,1.175-0.098
			l0.639-0.107c0.351-0.098,0.683-0.195,1.029-0.303c0.161-0.068,0.351-0.126,0.532-0.185c0.332-0.176,0.629-0.352,0.907-0.537
			l0.41-0.243c0.38-0.244,0.712-0.566,1.039-0.858l0.112-0.127c0.278-0.283,0.527-0.575,0.771-0.878l0.039-0.098
			c0.288-0.381,0.581-0.81,0.819-1.239c0.239-0.438,0.439-0.878,0.61-1.287c1.795-4.556-0.17-7.94-3.288-9.472
			c-0.38-0.205-0.771-0.342-1.141-0.43c-2.653-0.634-5.092,1.005-6.102,2.497c-1.181,1.785-0.82,3.971,1.37,5.054
			c0.819,0.399,2.453,1.453,2.946,0c0.058-0.205,0.058-0.371,0.039-0.518c-0.249-1.034-2.59-0.956-1.371-3.043
			c0.132-0.186,0.273-0.352,0.439-0.488l0.073-0.117c0.317-0.234,0.747-0.37,1.229-0.36c0.4-0.01,0.829,0.067,1.327,0.312
			c1.409,0.771,1.877,3.112,1.15,4.849c-0.243,0.595-0.531,1.083-0.829,1.541l-0.302,0.38c-0.21,0.283-0.449,0.557-0.698,0.742
			l-0.371,0.283c-0.259,0.185-0.542,0.331-0.81,0.458l-0.337,0.146c-0.399,0.136-0.829,0.233-1.238,0.214
			c-0.522,0.02-1.039-0.098-1.59-0.243c-0.103-0.029-0.2-0.049-0.312-0.098c-0.546-0.166-1.098-0.391-1.658-0.673
			c-1.868-0.956-3.443-2.4-4.321-4.039c-0.093-0.127-0.151-0.264-0.2-0.409c-0.19-0.391-0.332-0.8-0.439-1.249
			c-0.063-0.137-0.093-0.273-0.112-0.448c-0.097-0.566-0.161-1.112-0.078-1.698h0.009c0.049-0.575,0.229-1.131,0.488-1.717
			l0.259-0.507c0.209-0.429,0.482-0.829,0.8-1.249l0.438-0.517c0.503-0.556,1.078-1.093,1.8-1.639
			c3.214-2.37,8.589-3.346,14.066-3.326c5.634-0.215,11.516,0.312,15.9,2.009c1.229,0.518,2.438,1.025,3.668,1.474
			c1.126,0.458,2.194,1.005,3.214,1.561l0.132,0.068c3.536,2.02,6.35,4.702,7.701,7.979c0.556,1.385,0.839,2.751,0.81,4.292v0.146
			c-0.024,0.614,0.02,1.229-0.122,1.863c-0.181,0.8-0.419,1.414-0.639,2.028c-0.078,0.244-0.181,0.527-0.239,0.781
			c-0.219,0.468-0.473,0.809-0.731,1.219l-0.098,0.166c-0.229,0.352-0.438,0.673-0.692,0.956c-0.629,0.702-1.317,1.238-1.995,1.561
			c-1.316,0.634-2.59,0.663-3.297,0.634c-0.039-0.029-0.098-0.039-0.132-0.029c-0.137-0.02-0.249-0.029-0.346-0.029
			c-0.039-0.02-0.151-0.039-0.151-0.039c1.917,2.02,4.462,3.6,7.14,4.36c5.887,1.814,11.837,0.449,12.808-6.838
			c0.897-6.779-3.098-12.827-4.014-14.212c-0.142-0.215-0.209-0.322-0.209-0.322c3.043,1.238,5.55,4.233,9.037,7.268
			c3.536,2.682,8.111,5.316,14.744,6.027c4.805,0.352,8.092-1.813,10.048-3.735c1.97-2,2.707-4.009,2.707-4.009
			c1.248-0.029,2.355-0.469,3.316-1.151c0.322-0.225,0.619-0.508,0.907-0.78c1.083,1.277,2.438,2.204,4.116,2.224
			c0,0,2.658,8.097,12.442,8.116c6.672-0.02,11.296-2.985,14.944-5.482c3.668-2.517,6.281-5.463,9.345-6.711
			c0,0-5.463,6.828-4.819,14.378c0.137,1.337,0.43,2.458,0.859,3.453c1.96,4.585,6.77,5.19,11.588,3.814
			c2.673-0.751,5.297-2.165,7.346-3.921c0,0-0.088,0.01-0.146,0.01c-0.098,0.01-0.205,0.02-0.332,0.029l-0.156-0.029
			c-0.722-0.01-1.989-0.176-3.277-0.918l-0.166-0.02c-0.595-0.36-1.209-0.877-1.775-1.541c-0.321-0.38-0.614-0.888-0.887-1.404
			c-0.215-0.312-0.41-0.625-0.566-1.044c-0.205-0.517-0.332-1.19-0.478-1.844c-0.078-0.331-0.205-0.585-0.264-0.985
			c-0.186-0.994-0.186-1.961-0.078-2.877c0.039-0.312,0.137-0.615,0.205-0.907c0.107-0.614,0.243-1.181,0.478-1.746
			c0.156-0.293,0.312-0.624,0.479-0.956c0.244-0.488,0.517-0.956,0.849-1.414c0.214-0.303,0.458-0.586,0.722-0.859
			c0.352-0.419,0.741-0.829,1.17-1.199c0.293-0.234,0.576-0.498,0.889-0.761c0.458-0.371,0.945-0.761,1.453-1.151
			c0.303-0.234,0.614-0.469,0.937-0.712c0.604-0.352,1.21-0.731,1.844-1.103l0.878-0.507c1.971-1.015,4.116-1.824,6.33-2.419
			c4.644-1.044,10.32-1.834,15.939-1.376c5.609,0.468,10.984,1.785,14.008,4.116c0.771,0.635,1.404,1.239,1.912,1.883
			c0.507,0.635,0.888,1.307,1.15,1.941c1.658,3.912-0.936,8.009-5.053,9.501c-0.702,0.283-1.404,0.487-2.067,0.595l-0.195,0.059
			c-0.624,0.117-1.239,0.098-1.814,0.039l-0.273-0.059c-0.565-0.137-1.093-0.331-1.561-0.673l-0.186-0.166
			c-0.497-0.39-0.946-0.907-1.336-1.58c-0.234-0.39-0.448-0.878-0.653-1.404c-0.615-1.756-0.117-4.204,1.375-4.8
			c0.488-0.195,0.917-0.225,1.307-0.215l0.225,0.039c0.342,0.059,0.635,0.176,0.907,0.361c0.264,0.186,0.488,0.4,0.644,0.712
			c1.132,2.117-1.238,1.854-1.551,2.858c-0.039,0.137-0.039,0.303,0.01,0.497c0.117,0.352,0.293,0.565,0.508,0.683l0.225,0.059
			c0.165,0.049,0.341,0.059,0.556,0.059l0.331-0.059l0.508-0.156c0.322-0.136,0.644-0.243,0.868-0.351l0,0l0,0
			c2.292-0.897,2.761-3.015,1.658-4.829c-1.083-1.766-4.028-3.872-7.258-2.604h-0.01c-0.565,0.204-1.073,0.526-1.561,0.887
			l-0.273,0.205c-0.8,0.684-1.453,1.541-1.872,2.575l-0.117,0.391c-0.098,0.39-0.225,0.731-0.273,1.142
			c-0.039,0.185-0.049,0.37-0.059,0.556c-0.02,0.409-0.02,0.8,0,1.229l0.039,0.546c0.088,0.624,0.215,1.249,0.449,1.912
			c0.155,0.409,0.341,0.858,0.546,1.307c0.224,0.449,0.487,0.897,0.771,1.269l0.049,0.098c0.225,0.272,0.468,0.595,0.692,0.896
			l0.137,0.146c0.312,0.303,0.634,0.615,0.985,0.889l0.391,0.253c0.282,0.176,0.565,0.352,0.877,0.546l0.518,0.195
			c0.322,0.137,0.653,0.234,1.004,0.332c0.195,0.059,0.41,0.098,0.635,0.117c0.361,0.088,0.731,0.107,1.141,0.117l0.723,0.01
			c0.429-0.029,0.937-0.088,1.404-0.176c0.225-0.049,0.449-0.049,0.683-0.127c0.741-0.166,1.542-0.391,2.371-0.722
			c0.829-0.342,1.58-0.722,2.292-1.142l0.644-0.449c0.42-0.312,0.839-0.634,1.229-0.926l0.624-0.625l0.839-1.053l0.469-0.732
			l0.624-1.121c0.137-0.254,0.234-0.488,0.321-0.742c0.186-0.39,0.322-0.838,0.439-1.268l0.176-0.634
			c0.156-0.634,0.264-1.229,0.312-1.824l0.01-0.215c0.049-0.546,0.068-1.073,0.049-1.629v-0.127
			c-0.039-0.702-0.127-1.404-0.254-2.067c-0.117-0.713-0.322-1.454-0.547-2.107c0.117,0.371,0.303,0.761,0.527,1.131
			c3.297,5.814,18.163,11.608,21.109,9.062c0.272-0.176,0.507-0.507,0.751-0.897l0.146-0.282c0.469-0.908,0.859-2.205,1.103-3.727
			l0.049-0.352c0.117-0.8,0.205-1.658,0.244-2.556v-0.312c0.029-0.898,0.039-1.863,0-2.829c0-0.01,0-0.039,0-0.039
			c-0.039-0.976-0.146-1.941-0.264-2.897l-0.049-0.438c-0.137-0.956-0.302-1.873-0.507-2.741c-0.029-0.059-0.049-0.127-0.049-0.186
			c-0.215-0.829-0.469-1.609-0.741-2.341l-0.137-0.352c-0.303-0.722-0.624-1.395-0.995-1.989c-0.049-0.127-0.137-0.215-0.195-0.332
			c-0.39-0.596-0.81-1.093-1.248-1.473c0.517,0.448,1.111,0.857,1.727,1.238l0.419,0.215c0.498,0.273,1.034,0.575,1.59,0.8
			l0.02,0.02c0.692,0.292,1.454,0.546,2.225,0.702c0.127,0.059,0.243,0.059,0.38,0.078c0.645,0.127,1.327,0.254,1.98,0.273
			c0.01-0.01,0.01-0.01,0.02,0.01c0.527-0.02,1.063-0.078,1.59-0.156c0.273-0.02,0.527-0.068,0.819-0.088
			c0.761-0.137,1.522-0.391,2.293-0.683l0.185-0.049c0.781-0.332,1.542-0.78,2.322-1.298l0.137-0.078
			c0.8-0.565,1.58-1.229,2.331-2.028c0.614-0.644,1.112-1.308,1.551-1.912l0.352-0.585c0.272-0.43,0.507-0.859,0.683-1.249
			c0.098-0.234,0.186-0.448,0.244-0.663c0.146-0.371,0.264-0.732,0.321-1.093l0.107-0.624c0.049-0.352,0.059-0.684,0.049-1.034
			c0-0.176,0-0.352,0-0.556c-0.039-0.352-0.107-0.674-0.195-1.005l-0.097-0.449c-0.117-0.429-0.312-0.858-0.508-1.248l-0.078-0.156
			c-0.195-0.352-0.381-0.683-0.604-1.015l-0.059-0.059c-0.293-0.41-0.604-0.819-0.946-1.16c-0.342-0.371-0.692-0.703-1.044-0.967
			c-3.647-3.004-7.833-2.535-10.184,0.039c-0.293,0.312-0.546,0.625-0.741,0.966c-1.396,2.37-0.566,5.219,0.546,6.644
			c1.337,1.678,3.521,1.99,5.189,0.195c0.624-0.654,2.107-1.932,0.868-2.849c-0.166-0.117-0.322-0.176-0.468-0.186
			c-1.044-0.078-1.678,2.214-3.278,0.399c-0.146-0.175-0.243-0.37-0.341-0.585l-0.068-0.098c-0.146-0.37-0.137-0.819,0.01-1.268
			c0.117-0.41,0.302-0.8,0.692-1.21c1.103-1.17,3.6-0.761,5.023,0.449c0.508,0.429,0.878,0.839,1.22,1.268l0.244,0.391
			c0.214,0.302,0.39,0.614,0.507,0.917l0.137,0.419c0.098,0.303,0.137,0.596,0.156,0.878l0.02,0.371
			c0,0.399-0.039,0.829-0.195,1.219c-0.156,0.508-0.41,0.985-0.702,1.464l-0.186,0.272c-0.322,0.469-0.702,0.937-1.142,1.396
			c-1.463,1.512-3.287,2.604-5.102,2.975c-0.166,0.039-0.303,0.059-0.448,0.059c-0.43,0.059-0.849,0.078-1.298,0.059
			c-0.137,0-0.293,0-0.468-0.059c-0.547-0.059-1.093-0.176-1.62-0.409l-0.02-0.02c-0.507-0.215-0.975-0.575-1.453-0.976l-0.409-0.42
			c-0.342-0.321-0.634-0.712-0.927-1.141c-0.117-0.186-0.234-0.371-0.361-0.576c-0.38-0.634-0.712-1.375-1.023-2.233
			c-2.479-7.813,2.604-21.372,7.881-29.06c0.801-1.072,1.678-2.048,2.595-2.994c0.878-0.858,1.727-1.697,2.565-2.498l0.107-0.097
			c2.927-2.79,6.263-4.722,9.774-5.034c1.444-0.146,2.907,0.059,4.37,0.586l0.117,0.049c0.595,0.205,1.209,0.38,1.775,0.692
			c0.702,0.409,1.189,0.819,1.717,1.229c0.215,0.165,0.468,0.321,0.663,0.487c0.391,0.351,0.624,0.673,0.937,1.034l0.117,0.156
			c0.254,0.312,0.487,0.624,0.663,0.936c0.468,0.801,0.722,1.601,0.839,2.361c0.215,1.453-0.117,2.702-0.371,3.355
			c-0.019,0.039-0.058,0.098-0.058,0.127c-0.039,0.117-0.078,0.244-0.137,0.322c-0.02,0.039-0.059,0.136-0.059,0.136
			c2.419-1.277,4.722-3.199,6.458-5.384c3.551-5.015,3.901-11.209-2.703-14.359c-6.135-2.927-13.031-0.946-14.603-0.449
			c-0.233,0.059-0.37,0.078-0.37,0.078c3.882-5.102,14.837-6.019,19.763-18.602c1.951-4.409,1.093-8.106-0.302-10.623
			c-1.259-2.507-2.946-3.834-2.946-3.834c0.321-1.199,0.224-2.399-0.146-3.541c-0.137-0.37-0.312-0.741-0.487-1.102
			c1.492-0.635,2.779-1.658,3.492-3.19c0,0,2.224,0.039,4.73-1.111c2.478-1.161,5.336-3.551,6.76-8.175
			c2.166-6.341,0.858-11.637-0.536-15.9c-1.512-4.331-2.995-7.667-3.375-10.983c0,0,1.287,1.814,3.297,3.843
			c2,2.029,4.927,4.371,8.73,5.209c1.308,0.283,2.487,0.361,3.551,0.254c4.81-0.468,7.384-4.799,7.335-9.842
			c0.068-2.78-0.478-5.727-1.541-8.233c0,0-0.02,0.107-0.029,0.166c-0.02,0.088-0.039,0.194-0.068,0.312l-0.078,0.156
			c-0.214,0.684-0.751,1.844-1.834,2.829l-0.136,0.068c-0.518,0.468-1.19,0.888-1.99,1.22c-0.468,0.194-1.034,0.331-1.619,0.429
			c-0.352,0.088-0.702,0.186-1.151,0.195c-0.565,0.049-1.248-0.039-1.902-0.107c-0.351-0.02-0.634,0.029-1.023-0.049
			c-1.005-0.137-1.922-0.429-2.78-0.829l-0.79-0.459c-0.547-0.312-1.054-0.634-1.521-1.014c-0.234-0.234-0.508-0.488-0.781-0.762
			c-0.39-0.37-0.761-0.779-1.082-1.229c-0.225-0.312-0.42-0.624-0.615-0.966c-0.293-0.458-0.565-0.946-0.8-1.473
			c-0.146-0.352-0.302-0.702-0.468-1.073c-0.205-0.566-0.391-1.132-0.537-1.736c-0.117-0.371-0.205-0.731-0.341-1.122
			c-0.156-0.673-0.332-1.385-0.508-2.087l-0.194-0.985c-0.391-2.205-0.527-4.487-0.449-6.771c0.371-4.77,1.619-10.422,3.6-15.617
			c2.02-5.155,5.141-9.93,8.281-12.077c0.84-0.541,1.609-0.951,2.381-1.238c0.761-0.269,1.502-0.449,2.214-0.498
			c4.302-0.399,7.15,3.375,7.414,7.731c0.048,0.756,0.028,1.478-0.049,2.156l-0.02,0.19c-0.078,0.629-0.273,1.209-0.508,1.736
			l-0.146,0.244c-0.283,0.498-0.635,0.927-1.103,1.278l-0.205,0.146c-0.517,0.332-1.122,0.619-1.883,0.79
			c-0.448,0.103-0.995,0.171-1.551,0.181c-1.863,0.068-4.058-1.156-4.165-2.756c-0.039-0.542,0.049-0.961,0.176-1.317l0.116-0.214
			c0.137-0.308,0.352-0.557,0.605-0.747c0.272-0.18,0.536-0.341,0.878-0.4c2.36-0.419,1.404,1.756,2.263,2.346
			c0.137,0.083,0.283,0.142,0.487,0.161c0.371-0.01,0.615-0.122,0.801-0.278l0.117-0.2c0.106-0.151,0.175-0.303,0.233-0.522
			l0.02-0.327l0.02-0.522c-0.02-0.341-0.059-0.688-0.078-0.937v-0.01v-0.01c-0.165-2.438-2.048-3.541-4.116-3.058
			c-2.01,0.478-4.896,2.658-4.663,6.092v0.01c0.02,0.619,0.176,1.18,0.381,1.746l0.107,0.322c0.429,0.98,1.044,1.858,1.892,2.575
			l0.361,0.224c0.322,0.22,0.635,0.439,0.995,0.615c0.166,0.103,0.341,0.161,0.517,0.214c0.371,0.156,0.762,0.278,1.19,0.376
			l0.526,0.132c0.605,0.117,1.249,0.18,1.941,0.161c0.459-0.01,0.927-0.044,1.434-0.122c0.479-0.068,0.986-0.19,1.444-0.342
			l0.098-0.02c0.331-0.117,0.692-0.239,1.054-0.375l0.176-0.103c0.409-0.19,0.779-0.4,1.141-0.639l0.371-0.287
			c0.263-0.234,0.497-0.439,0.78-0.683l0.341-0.429c0.234-0.259,0.43-0.537,0.625-0.849c0.117-0.171,0.215-0.371,0.302-0.566
			c0.186-0.302,0.342-0.664,0.459-1.043l0.214-0.668c0.117-0.429,0.195-0.917,0.254-1.395c0.029-0.219,0.098-0.453,0.098-0.702
			c0.059-0.736,0.078-1.565,0.02-2.468c-0.078-0.888-0.225-1.717-0.41-2.517L439.839,236.727z M156.114,131.494
			c0.761-1,1.629-1.936,2.536-2.877l0.419-0.439c1.01-1.019,2.098-1.936,3.258-2.819c2.009-1.546,4.697-2.478,7.614-3.405
			l1.195-0.37c1.229-0.337,2.449-0.678,3.736-1.049l0.873-0.249c1.707-0.458,3.502-0.927,5.36-1.429
			c1.351-0.249,2.717-0.517,4.165-0.79c0.61-0.127,1.249-0.249,1.888-0.376c1.22-0.292,2.458-0.58,3.717-0.883
			c0.639-0.156,1.268-0.307,1.941-0.487c1.766-0.43,3.482-1.088,5.389-1.498c2.288-0.542,4.619-1.18,7.014-1.98
			c1.151-0.391,2.288-0.829,3.41-1.308c4.165-1.99,8.306-3.823,12.222-6.452c3.927-2.556,7.643-5.926,11.169-9.019
			c6.979-6.453,13.056-15.217,16.261-24.475c1.107,3.887,2.717,7.614,4.658,11.057c4.194,7.604,9.91,13.744,16.114,19.46
			c3.132,2.775,6.478,4.931,9.882,7.102c3.385,2.249,6.936,4.033,10.643,5.341l0.779,0.234l0.098,0.029
			c1.99,0.566,3.834,1.498,5.697,2.117c2.282,0.81,4.507,1.458,6.711,2.02l0.127,0.039c6.447,1.526,12.066,3.517,17.314,4.823
			c0.995,0.298,1.99,0.508,2.888,0.897l1.249,0.532c2.779,1.156,5.257,2.366,7.267,3.804l0.098,0.059
			c1.073,0.79,2.077,1.648,3.015,2.541l0.253,0.269c0.858,0.8,1.59,1.795,2.263,2.746c1.229,1.761,2.244,3.546,3.044,5.175
			l-0.419,0.229c-1.249,0.068-2.498,0.668-3.317,1.819c-0.839,1.166-1.024,2.536-0.771,3.755l-0.117,0.469
			c-1.717-0.229-3.609-0.601-5.501-1.137c-1.005-0.312-2.068-0.629-3.122-0.971l-0.351-0.059c-1.151-0.361-2.283-0.8-3.376-1.297
			l-0.097-0.073c-2-1-4-2.468-6.136-4.234l-0.946-0.81c-0.683-0.629-1.464-1.058-2.205-1.658c-4.009-2.727-8.311-6.731-14.007-9.252
			l-0.117-0.078c-1.951-0.907-3.971-1.829-6.137-2.639c-1.765-0.629-3.579-1.365-5.55-1.634l-0.078-0.02l-0.761-0.151
			c-3.727-0.629-7.512-0.731-11.179-0.322c-3.688,0.502-7.326,1.96-10.623,3.595c-6.604,3.19-12.047,9.311-15.451,16.344
			c-1.591,3.258-2.775,6.823-3.565,10.598c-1.518-9.828-5.765-17.622-12.276-23.704c-3.258-3.146-6.975-5.034-11.028-6.541
			c-4.048-1.438-8.453-2.458-12.715-1.98c-1.141,0.083-2.287,0.209-3.429,0.39c-2.375,0.342-4.643,0.858-6.809,1.429
			c-1.8,0.429-3.38,1.278-4.994,1.965c-0.591,0.239-1.151,0.551-1.702,0.819c-1.098,0.551-2.176,1.088-3.244,1.61
			c-0.541,0.288-1.078,0.581-1.6,0.849c-1.17,0.659-2.307,1.307-3.424,1.936c-1.502,1-2.868,2.078-4.199,3.049l-0.707,0.497
			c-1,0.722-1.937,1.419-2.878,2.103l-0.946,0.634c-2.297,1.58-4.517,2.771-6.482,3.887c-1.18,0.561-2.4,1.009-3.648,1.361
			l-0.542,0.156c-1.156,0.302-2.336,0.57-3.482,0.78c-1.702,0.249-3.346,0.458-4.877,0.551l-0.039-0.219l-0.049-0.229
			c0.337-1.151,0.22-2.517-0.561-3.717c-0.78-1.19-2.01-1.868-3.297-2.039l-0.209-0.141l-0.2-0.126
			C154.007,134.298,155.007,132.913,156.114,131.494z M304.57,135.766l-1.561-0.888c-0.186-0.546-0.342-0.917-0.342-0.917
			C303.371,134.459,303.976,135.078,304.57,135.766z M238.57,141.634l-0.029-0.063c0-0.078,0.02-0.146,0.029-0.22
			C238.561,141.434,238.58,141.551,238.57,141.634z M87.831,315.058l-0.181,0.166c-1.039-1.151-2.077-2.518-3.097-4
			c-0.717-1.015-1.366-2.146-1.995-3.287l-0.292-0.537c-0.659-1.268-1.239-2.575-1.717-3.95c-0.79-2.39-0.78-5.258-0.829-8.302
			v-1.258c0.029-1.269,0.058-2.526,0.102-3.873l0.02-0.916c0.098-1.775,0.049-3.619,0.391-5.541
			c0.156-1.366,0.317-2.751,0.487-4.205c0.059-0.634,0.132-1.277,0.2-1.921c0.088-1.249,0.181-2.517,0.278-3.805
			c0.029-0.653,0.083-1.307,0.122-1.989c-0.01-1.834,0.171-3.658,0.346-5.6c0.171-2.342,0.254-4.771,0.19-7.297
			c-0.01-1.209-0.107-2.429-0.229-3.629c-0.346-9.032-3.385-18.338-7.301-27.04c-2.088-4.365-4.727-8.633-7.829-12.574
			c-2.907-3.877-6.355-7.453-10.369-10.428c4.014,0.137,8.008-0.264,11.867-1.034c16.603-3.653,32.024-12.793,41.604-25.001
			l0.507-0.639l0.068-0.068c1.341-1.58,2.629-3.166,3.78-4.765c1.424-1.956,2.673-3.926,3.854-5.882l0.068-0.122
			c3.98-5.185,6.873-10.589,10.042-14.881c0.629-0.819,1.239-1.609,1.824-2.39l0.883-1.039c1.907-2.336,3.785-4.375,5.721-5.892
			c0.029-0.02,0.048-0.039,0.092-0.083c1.029-0.839,2.225-1.434,3.424-1.976l0.361-0.142c1.098-0.487,2.238-0.917,3.336-1.268
			c2.029-0.659,4.014-1.107,5.785-1.405c0.039,0.175,0.068,0.327,0.097,0.488c-0.307,1.239-0.107,2.614,0.732,3.755
			c0.839,1.146,2.078,1.746,3.307,1.868l0.404,0.229c-0.727,1.59-1.634,3.316-2.707,4.975c-0.565,0.907-1.214,1.794-1.897,2.648
			l-0.19,0.278c-0.775,0.888-1.566,1.8-2.366,2.707l-0.078,0.078c-1.532,1.648-3.507,3.136-5.794,4.687
			c-0.332,0.219-0.688,0.449-1.048,0.668c-0.771,0.478-1.542,0.98-2.336,1.478c-4.136,2.707-8.53,6.194-13.228,10.398l-0.097,0.093
			c-1.429,1.604-2.877,3.282-4.268,5.131c-1.136,1.487-2.219,3.126-3.277,4.785l-0.059,0.059l-0.429,0.654
			c-7.243,13.432-4.678,30.664,7.179,41.53c2.658,2.551,5.697,4.785,9.072,6.735c-4.824-0.761-9.569-0.81-14.135-0.131
			c-4.355,0.746-8.472,2.258-12.247,4.423c-7.828,4.268-13.042,11.599-15.622,19.91c-0.268,1.092-0.478,2.243-0.639,3.375
			c-0.38,2.38-0.551,4.682-0.648,6.926c-0.142,1.844-0.078,3.609,0.209,5.346c0.049,0.624,0.17,1.248,0.268,1.873
			c0.2,1.209,0.391,2.398,0.581,3.569c0.122,0.595,0.229,1.21,0.341,1.775c0.288,1.327,0.566,2.614,0.829,3.854
			c0.308,1.746,1,3.375,1.507,4.936l0.268,0.829c0.4,1.161,0.771,2.283,1.132,3.375l0.336,1.103
			c0.868,2.663,1.268,5.141,1.629,7.364c0.2,1.288,0.249,2.596,0.229,3.902l-0.02,0.547c-0.049,1.199-0.151,2.399-0.287,3.531
			c-0.249,1.697-0.562,3.336-0.932,4.799l-0.22-0.02l-0.249-0.01c-1.019-0.673-2.355-0.985-3.736-0.614
			c-1.366,0.37-2.385,1.336-2.936,2.497L87.831,315.058z M125.191,220.476c-0.19-0.073-0.399-0.17-0.59-0.214
			c0.171,0.054,0.346,0.083,0.526,0.112L125.191,220.476z M238.253,425.529l-0.112,0.204c-0.956,0.781-1.668,1.961-1.736,3.395
			c-0.068,1.415,0.542,2.664,1.478,3.541l0.093,0.234l0.078,0.215c-1.4,0.624-3.019,1.229-4.765,1.766
			c-1.18,0.391-2.458,0.673-3.746,0.927l-0.6,0.137c-1.409,0.233-2.849,0.448-4.282,0.312c-2.497-0.194-5.238-0.857-8.165-1.775
			l-1.185-0.36c-1.2-0.4-2.4-0.819-3.668-1.239l-0.858-0.273c-1.629-0.74-3.336-1.502-5.106-2.302
			c-1.249-0.546-2.526-1.093-3.863-1.668c-0.58-0.243-1.18-0.497-1.771-0.751c-1.175-0.459-2.346-0.897-3.556-1.365
			c-0.619-0.215-1.199-0.508-1.829-0.801c-1.668-0.751-3.366-1.482-5.18-2.185c-2.2-0.839-4.487-1.59-6.926-2.282
			c-1.185-0.273-2.346-0.645-3.497-1.005c-4.351-1.249-8.959-1.844-13.734-1.912c-4.643-0.283-9.389-0.186-14.242,0.556
			c-9.779,1.658-19.168,4.215-27.479,10.213c1.356-3.755,2.2-7.656,2.629-11.52c0.966-8.486,0.449-17.383-1.668-25.187
			c-0.941-4.028-2.049-8.077-3.648-11.726c-1.648-3.629-3.517-7.102-5.511-10.535l-0.463-0.683l-0.049-0.078
			c-1.127-1.736-2.287-3.434-3.478-4.994c-1.536-1.873-2.926-3.707-4.243-5.59l-0.068-0.097c-3.838-5.326-8.223-9.668-11.081-14.125
			c-0.61-0.858-1.176-1.668-1.746-2.469l-0.751-1.16c-1.624-2.536-3.175-4.867-3.843-7.258c-0.01-0.029-0.02-0.049-0.039-0.107
			c-0.341-1.287-0.58-2.614-0.741-3.901l-0.02-0.381c-0.132-1.181-0.21-2.39-0.21-3.541c-0.029-2.126,0.132-4.146,0.391-5.911
			l0.487,0.059c1.103,0.653,2.478,0.917,3.819,0.469c1.355-0.469,2.287-1.454,2.765-2.576c0.122-0.098,0.229-0.194,0.361-0.302
			c1.298,1.181,2.688,2.565,3.956,4.087c0.707,0.819,1.365,1.727,1.965,2.624l0.22,0.264c0.658,0.995,1.249,2.028,1.761,3.121
			c0.01,0.039,0.02,0.068,0.039,0.098c0.917,2.029,1.917,4.292,2.678,6.936c0.107,0.381,0.22,0.79,0.336,1.2
			c0.253,0.878,0.483,1.736,0.732,2.673c1.029,4.896,3.136,10.086,5.813,15.763l0.049,0.117c0.897,1.99,1.956,3.932,3.395,5.746
			c1.103,1.512,2.351,3.033,3.648,4.507l0.049,0.067l0.497,0.625c2.41,2.867,5.478,5.121,8.901,6.75
			c3.375,1.668,6.833,2.966,10.521,3.492c7.652,0.819,15.134-0.352,22.133-4.136c3.268-1.805,6.365-4.019,9.252-6.634
			c-4.277,8.487-6.067,18.213-4.019,26.436c0.961,4.175,2.619,8.301,4.985,11.969c2.497,3.414,5.614,6.487,9.169,9.004
			c0.932,0.673,1.912,1.326,2.971,1.756c2.156,1.044,4.321,1.883,6.443,2.624c1.736,0.614,3.424,1.103,5.121,1.551
			c0.6,0.195,1.219,0.332,1.839,0.391c1.229,0.165,2.419,0.331,3.595,0.487c0.62,0.059,1.229,0.137,1.819,0.205
			c1.352,0.107,2.668,0.215,3.937,0.303c1.775,0.117,3.487,0.215,5.126,0.312l0.868-0.02c1.239-0.039,2.404-0.059,3.565-0.097h1.156
			c2.799,0,5.306,0.175,7.516,0.711c1.268,0.391,2.526,0.654,3.755,1.083l0.517,0.176c1.117,0.4,2.229,0.839,3.277,1.327
			c1.537,0.731,2.995,1.512,4.272,2.312L238.253,425.529z M217.344,327.339c17.46-63.094,0,0,17.46-63.094
			c-10.808-4.351-18.407-14.944-18.407-27.279c0-16.251,13.164-29.41,29.406-29.41c16.246,0,29.415,13.159,29.415,29.41
			c0,11.047-6.106,20.686-15.12,25.709c16.798,64.684,16.798,64.684,16.798,64.684S219.554,327.339,217.344,327.339z
			 M396.654,335.444l-0.098,0.596c-0.282,1.365-0.673,2.76-1.16,4.106c-0.897,2.341-2.322,4.779-4.02,7.306l-0.702,1.034
			c-0.673,1.054-1.59,1.99-2.448,3.024l-0.595,0.683c-1.171,1.347-2.399,2.761-3.668,4.214c-0.878,1.044-1.775,2.107-2.712,3.219
			c-0.4,0.479-0.8,0.995-1.219,1.483c-0.84,0.927-1.707,1.862-2.576,2.829c-0.438,0.468-0.877,0.975-1.355,1.473
			c-1.18,1.395-2.36,2.818-3.531,4.36c-1.443,1.862-2.751,3.911-4.351,5.833c-0.741,0.976-1.424,1.961-2.087,2.985
			c-4.624,7.921-8.272,16.524-9.774,26.376c-1.824,9.365-1.893,19.598,1.151,29.284c-3.122-2.419-6.556-4.399-10.204-6.165
			c-7.921-3.805-16.231-5.502-24.484-6.263c-8.389-0.946-16.251,0.098-23.986,1.824l-0.79,0.243l-0.088,0.02
			c-2,0.566-3.951,1.171-5.785,1.834c-2.263,0.879-4.525,1.405-6.662,2.225l-0.107,0.039c-6.204,2.204-11.705,4.789-16.836,6.224
			c-1.005,0.312-1.951,0.624-2.888,0.917l-1.317,0.37c-2.916,0.839-5.608,1.552-8.086,1.366c-0.039,0-0.059,0-0.117,0
			c-1.347-0.059-2.673-0.215-3.961-0.469l-0.36-0.078c-1.181-0.215-2.347-0.526-3.443-0.858c-2.039-0.604-3.907-1.355-5.507-2.126
			l0.2-0.449c0.98-0.849,1.629-2.087,1.619-3.512c0-1.434-0.658-2.614-1.58-3.414c-0.059-0.137-0.117-0.264-0.19-0.429
			c1.531-0.878,3.268-1.805,5.116-2.556c0.99-0.43,2.039-0.781,3.093-1.112l0.312-0.117c1.151-0.331,2.331-0.595,3.512-0.761
			c0.059,0,0.078,0,0.117,0c2.214-0.156,4.683-0.391,7.433-0.352c0.391,0,0.82,0.02,1.249,0.039c0.897,0.02,1.795,0.068,2.751,0.098
			c4.975,0.449,10.604,0.273,16.797-0.702l0.127-0.02c2.127-0.39,4.381-0.556,6.556-1.366c1.766-0.604,3.58-1.355,5.375-2.136
			l0.098-0.039l0.702-0.302c6.984-2.819,12.369-8.838,15.783-15.296c3.336-6.672,4.214-14.72,2.926-22.28
			c-0.585-3.512-1.756-7.159-3.395-10.749c6.818,6.779,15.12,11.003,23.929,12.057c8.389,0.644,17.567-1.541,24.162-7.131
			c0.897-0.712,1.785-1.463,2.634-2.272c1.854-1.561,3.189-3.463,4.507-5.268c1.073-1.502,2.038-2.985,2.946-4.478
			c0.351-0.517,0.644-1.083,0.955-1.629c0.625-1.054,1.249-2.068,1.756-3.142c0.234-0.565,0.479-1.131,0.703-1.678
			c0.487-1.268,0.955-2.517,1.424-3.726c0.624-1.658,1.209-3.278,1.775-4.819l0.322-0.8c0.38-1.171,0.887-2.224,1.16-3.336
			l0.332-1.122c0.8-2.701,1.678-5.072,2.828-7.014c0.674-1.131,1.474-2.185,2.322-3.18l0.371-0.43
			c0.779-0.916,1.541-1.834,2.263-2.711c1.142-1.249,2.282-2.4,3.434-3.395l0.156,0.155l0.165,0.176
			c0.459,1.151,1.376,2.194,2.723,2.712c1.326,0.508,2.691,0.293,3.794-0.332h0.244l0.224-0.02c0.225,1.532,0.303,3.278,0.303,5.111
			C396.918,332.84,396.918,334.187,396.654,335.444z M406.497,265.767v0.819v0.098c-0.02,2.068-0.02,4.097-0.039,6.067
			c-0.117,2.41-0.078,4.741,0,7.014v0.127c0.43,6.613,0.722,12.604,0.722,17.948c0,1.044,0.02,2.049,0.039,3.034l-0.039,1.385
			c0.078,3.054-0.653,5.707-1.375,8.067l-0.02,0.127c-0.459,1.249-1.005,2.478-1.59,3.619L404,314.403
			c-0.546,1.044-1.171,2.068-1.795,3.024c-1.112,1.775-2.595,3.258-3.922,4.507l-0.36-0.322c-0.429-1.16-1.366-2.156-2.722-2.604
			c-1.346-0.429-2.731-0.195-3.844,0.429c-0.146,0.02-0.292,0.02-0.478,0.02c-0.205-1.658-0.419-3.551-0.653-5.579
			c-0.117-1.093-0.176-2.204-0.166-3.307l-0.029-0.342c0.01-1.19,0.117-2.399,0.293-3.58l0.029-0.126
			c0.302-2.215,1.434-4.508,2.126-7.141l0.4-1.151c0.292-0.858,0.585-1.717,0.897-2.614c1.736-4.624,3.775-9.95,4.516-16.174
			l0.029-0.136c0.322-2.137,0.625-4.331,0.781-6.644c0.059-1.863-0.195-3.813-0.4-5.784v-0.088l-0.078-0.771
			c-1.414-15.193-14.573-27.459-30.112-29.356c-3.58-0.518-7.307-0.557-11.14-0.161c8.555-4.37,14.963-10.936,18.729-19.007
			c1.932-4.044,2.556-8.141,2.81-12.506c0.263-4.365-0.332-8.76-2.029-12.696c-0.409-1.058-0.878-2.136-1.404-3.166
			c-1.073-2.136-2.127-4.214-3.453-6.033c-1.122-1.458-2.283-2.8-3.453-4.106c-0.391-0.478-0.839-0.946-1.269-1.4
			c-0.839-0.878-1.678-1.736-2.497-2.595c-0.429-0.429-0.878-0.868-1.288-1.278c-0.916-0.971-1.97-1.78-3.033-2.551
			c-1.434-1.068-2.819-2.098-4.146-3.083l-0.683-0.542c-0.976-0.736-1.912-1.448-2.829-2.126l-0.897-0.708
			c-2.088-1.838-4.331-3.131-5.814-4.848c-0.877-0.976-1.678-2.01-2.38-3.117l-0.292-0.468c-0.645-1.039-1.239-2.088-1.775-3.126
			c-0.781-1.551-1.503-3.014-2.166-4.316l0.195-0.107l0.215-0.122c1.248-0.088,2.546-0.659,3.434-1.785
			c0.888-1.103,1.111-2.449,0.829-3.668l0.068-0.229l0.048-0.229c1.532,0.278,3.327,0.585,4.956,1.297
			c1.151,0.429,2.312,0.98,3.482,1.57l0.526,0.269c1.249,0.658,2.459,1.438,3.629,2.297c1.932,1.576,4.059,3.424,5.707,6.053
			l0.712,1.039c0.683,1.049,1.385,2.137,2.126,3.258l0.488,0.746c0.956,1.507,1.951,3.087,2.965,4.716
			c0.752,1.127,1.512,2.288,2.166,3.595c0.312,0.561,0.624,1.127,0.937,1.707c0.644,1.068,1.277,2.17,1.931,3.287
			c0.342,0.581,0.684,1.117,1.044,1.727c0.985,1.542,2,3.078,3.132,4.629c1.326,1.946,2.536,4.053,4.058,6.062
			c0.702,1,1.464,1.927,2.243,2.854c3.122,3.409,6.36,6.652,9.931,9.662c3.541,2.984,7.94,5.491,12.037,7.838
			c8.312,4.638,18.173,7.804,28.328,7.872c-3.375,2.268-6.429,4.936-9.15,7.853C413.833,233.859,407.688,250.188,406.497,265.767z"
			/>
		<path d="M251.817,13.315L0,183.066l88.241,292.982l313.798,0.224l87.549-285.207L251.817,13.315z M395.377,467.24l-300.435-0.225
			L10.56,186.842L251.554,24.373l227.538,170.112L395.377,467.24z"/>
	</g>
</g>
</svg>