<?xml version="1.0" encoding="iso-8859-1"?>
<!-- Uploaded to: SVG Repo, www.svgrepo.com, Generator: SVG Repo Mixer Tools -->
<svg height="800px" width="800px" version="1.1" id="Capa_1" xmlns="http://www.w3.org/2000/svg" xmlns:xlink="http://www.w3.org/1999/xlink" 
	 viewBox="0 0 16.578 16.578" xml:space="preserve">
<g>
	<g>
		<path style="fill:#010002;" d="M13.587,1.775h0.883V0H2.108v1.775h0.883v0.931c0,1.423,2.552,5.306,2.673,5.587
			c-0.118,0.279-2.673,4.163-2.673,5.579v0.93H2.108v1.776H14.47v-1.776h-0.883v-0.93c0-1.424-2.554-5.281-2.688-5.583
			c0.134-0.301,2.688-4.16,2.688-5.583V1.775z M9.246,1.775C8.878,1.93,8.533,2.177,8.29,2.516C8.044,2.177,7.701,1.93,7.331,1.775
			H9.246z M4.223,3.779c-0.212-0.46-0.349-0.844-0.349-1.073V1.775H5.43C5.073,1.91,4.792,2.11,4.586,2.378
			C4.312,2.739,4.19,3.21,4.223,3.779z M3.874,14.801v-0.93c0-0.228,0.137-0.61,0.346-1.07c-0.026,0.558,0.095,1.02,0.366,1.376
			c0.216,0.283,0.513,0.489,0.898,0.624H3.874z M7.281,14.801c0.389-0.153,0.752-0.407,1.009-0.763
			c0.257,0.356,0.619,0.61,1.009,0.763H7.281z M12.358,12.811c0.209,0.455,0.346,0.834,0.346,1.061v0.93h-1.611
			c0.385-0.134,0.682-0.341,0.898-0.624C12.263,13.823,12.383,13.364,12.358,12.811z M11.689,4.071
			c-0.129,0.794-1.167,2.196-2.774,3.751L8.444,8.278l0.471,0.455c1.608,1.554,2.646,2.957,2.774,3.751
			c0.094,0.57,0.026,1.01-0.201,1.307c-0.229,0.301-0.626,0.477-1.214,0.54c-0.035,0.004-0.077,0.006-0.124,0.006
			c-0.43,0-1.015-0.207-1.348-0.671l-0.514-0.711l-0.514,0.711c-0.334,0.464-0.918,0.671-1.346,0.671
			c-0.048,0-0.091-0.002-0.127-0.007c-0.586-0.062-0.983-0.238-1.212-0.539c-0.228-0.298-0.295-0.737-0.203-1.307
			c0.131-0.794,1.176-2.195,2.797-3.751L8.16,8.278L7.685,7.82c-1.62-1.554-2.666-2.956-2.797-3.749
			C4.795,3.5,4.863,3.06,5.091,2.762c0.229-0.3,0.625-0.477,1.214-0.539C6.338,2.22,6.381,2.217,6.429,2.217
			c0.428,0,1.012,0.207,1.346,0.67L8.29,3.599l0.514-0.711c0.333-0.462,0.918-0.67,1.348-0.67c0.047,0,0.089,0.002,0.126,0.007
			c0.586,0.062,0.984,0.238,1.212,0.539C11.715,3.06,11.783,3.5,11.689,4.071z M12.705,2.706c0,0.229-0.138,0.609-0.348,1.064
			c0.03-0.564-0.089-1.033-0.365-1.392c-0.204-0.268-0.485-0.468-0.842-0.603h1.554V2.706z M5.904,5.249h4.577L8.29,7.784
			L5.904,5.249z"/>
	</g>
</g>
</svg>