<?xml version="1.0" ?><!-- Uploaded to: SVG Repo, www.svgrepo.com, Generator: SVG Repo Mixer Tools -->
<svg fill="#000000" width="800px" height="800px" viewBox="0 0 128 128" data-name="Layer 1" id="Layer_1" xmlns="http://www.w3.org/2000/svg"><title/><path d="M123.04,64.29H102.762c0-.013.007-.025.006-.038a37.734,37.734,0,0,0-2.5-12.131c0-.008-.01-.014-.014-.022l19.33-8.009a1.5,1.5,0,1,0-1.14-2.77L99.065,49.351c-.007-.018-.005-.038-.014-.055a38.036,38.036,0,0,0-6.9-9.91s-.011-.006-.015-.01L117.14,14.36a1.491,1.491,0,0,0,0-2.12,1.509,1.509,0,0,0-2.12,0L89.969,37.3c-.015-.015-.021-.036-.037-.05a37.889,37.889,0,0,0-9.89-6.316c-.007,0-.014,0-.021,0L88.69,10a1.5,1.5,0,1,0-2.77-1.14L77.229,29.845c-.019-.008-.032-.024-.051-.03a37.855,37.855,0,0,0-10.887-2.054c-.014,0-.027.007-.041.007V2.87a1.5,1.5,0,1,0-3,0v24.9c-.013,0-.027-.007-.04-.007a37.848,37.848,0,0,0-10.929,2.065c-.018.006-.032.022-.05.029L40.46,1.45A1.5,1.5,0,0,0,37.69,2.6L49.438,30.938l-.02.006a38.245,38.245,0,0,0-9.294,5.812c-.022.019-.032.046-.052.067L21.82,18.58a1.491,1.491,0,0,0-2.12,0,1.509,1.509,0,0,0,0,2.12L37.853,38.853h0a38.187,38.187,0,0,0-6.54,8.738.968.968,0,0,0-.031.1L7.44,37.82a1.5,1.5,0,1,0-1.15,2.77l23.646,9.8A37.706,37.706,0,0,0,26.721,64.25c0,.014.006.026.006.039H2.96a1.5,1.5,0,1,0,0,3H26.727c0,.014-.007.026-.007.04a37.906,37.906,0,0,0,2.105,11.051c.006.018.022.031.029.048L2.39,89.39a1.5,1.5,0,1,0,1.15,2.77L29.951,81.221c0,.009,0,.019.006.027a38.29,38.29,0,0,0,6.253,9.724c.014.016.035.023.051.038L20.51,106.76a1.5,1.5,0,0,0,1.06,2.56,1.526,1.526,0,0,0,1.06-.44l15.7-15.705s.006.011.01.015a38.284,38.284,0,0,0,9.755,6.829c.019.009.041.007.061.015L39.97,119.79a1.5,1.5,0,0,0,.81,1.96,1.47,1.47,0,0,0,.58.12,1.5,1.5,0,0,0,1.38-.93l8.159-19.7c.007,0,.012.009.019.012a38.269,38.269,0,0,0,10.135,2.413.972.972,0,0,0,.1-.011V125.83a1.5,1.5,0,0,0,3,0v-22c.2.009.4.01.6.01A37.689,37.689,0,0,0,76.5,101.98c.025-.008.042-.028.066-.038L84.82,121.85a1.5,1.5,0,0,0,1.39.93,1.647,1.647,0,0,0,.57-.11,1.5,1.5,0,0,0,.81-1.96l-8.2-19.786h0a38.058,38.058,0,0,0,10.722-6.768c.014-.013.02-.031.033-.045l9.79,9.79a1.467,1.467,0,0,0,1.06.44,1.451,1.451,0,0,0,1.06-.44,1.491,1.491,0,0,0,0-2.12L92.3,92.023c.006-.006.015-.008.021-.015A38.17,38.17,0,0,0,99.43,81.473c0-.009,0-.019.006-.028L119.09,89.58a1.469,1.469,0,0,0,.58.12,1.5,1.5,0,0,0,.57-2.89l-19.681-8.156c.005-.013.017-.023.022-.036a37.775,37.775,0,0,0,2.188-11.289c0-.013-.006-.026-.006-.039H123.04a1.5,1.5,0,0,0,0-3ZM51.395,31.757a.507.507,0,0,1-.626-.214c-.008-.023-.025-.042-.034-.064q.464-.19.935-.366A.516.516,0,0,1,51.395,31.757ZM39.3,38.881c.486-.46.968-.928,1.475-1.361l7.75,7.75a1.509,1.509,0,0,1,0,2.12,1.467,1.467,0,0,1-1.06.44,1.451,1.451,0,0,1-1.06-.44l-7.84-7.83c.236-.236.493-.449.735-.679ZM31.737,48.945h0c.149-.293.3-.587.453-.875l17.25,7.15a1.5,1.5,0,0,1-.57,2.88,1.7,1.7,0,0,1-.58-.11L30.86,50.77C31.136,50.151,31.431,49.545,31.737,48.945ZM30.87,80.84c-.268-.61-.516-1.232-.754-1.859h0c-.117-.309-.237-.617-.346-.931l12.62-5.23a1.5,1.5,0,1,1,1.15,2.77Zm13.3,6.49-5.14,5.14c-.72-.7-1.41-1.41-2.07-2.16l5.09-5.1a1.509,1.509,0,0,1,2.12,0A1.491,1.491,0,0,1,44.17,87.33ZM27.72,67.29q-.03-.75-.03-1.5c0-.168.008-.336.01-.5h0c0-.332.007-.664.02-1H52.95a1.5,1.5,0,0,1,0,3Zm33.32,9.47-9.76,23.56c-.31-.123-.609-.27-.916-.4h0q-.463-.2-.92-.4h0c-.3-.136-.615-.256-.913-.4l9.74-23.51a1.5,1.5,0,1,1,2.77,1.15Zm3.11,26.07c-.677-.007-1.347-.042-2.015-.087h0c-.329-.022-.658-.043-.985-.073V97.51a1.5,1.5,0,0,1,3,0Zm2.1-49.45a1.5,1.5,0,0,1-3,0V28.76q.75-.03,1.5-.03t1.5.03ZM89.27,38c.249.222.475.463.717.691h0c.488.457.982.908,1.443,1.389L80.84,50.67a1.526,1.526,0,0,1-1.06.44,1.5,1.5,0,0,1-1.06-2.56ZM74.81,35.69l2.04-4.93c.95.32,1.88.68,2.79,1.09l-2.06,4.98a1.5,1.5,0,0,1-1.39.93,1.647,1.647,0,0,1-.57-.11A1.5,1.5,0,0,1,74.81,35.69Zm.18,23.63,23.16-9.59c.43.9.83,1.82,1.19,2.75l-23.2,9.61a1.5,1.5,0,1,1-1.15-2.77Zm2.136,41.391h0c-.311.109-.621.22-.936.319L73.98,95.7a1.506,1.506,0,0,1,.81-1.96,1.489,1.489,0,0,1,1.96.81L79.01,100C78.392,100.255,77.762,100.489,77.126,100.711Zm13.756-8.694c-.472.47-.94.946-1.433,1.393L74.17,78.13a1.5,1.5,0,0,1,2.12-2.12L91.6,91.32c-.23.24-.481.462-.717.7ZM97.72,79.11a1.486,1.486,0,0,1,1.92-.83c-.113.313-.235.622-.355.932h0c-.241.622-.491,1.241-.765,1.848A1.5,1.5,0,0,1,97.72,79.11ZM93.59,67.29a1.5,1.5,0,0,1,0-3h8.18q.03.75.03,1.5t-.03,1.5Z"/></svg>