<?xml version="1.0" encoding="iso-8859-1"?>
<!-- Uploaded to: SVG Repo, www.svgrepo.com, Generator: SVG Repo Mixer Tools -->
<!DOCTYPE svg PUBLIC "-//W3C//DTD SVG 1.1//EN" "http://www.w3.org/Graphics/SVG/1.1/DTD/svg11.dtd">
<svg fill="#000000" version="1.1" id="Capa_1" xmlns="http://www.w3.org/2000/svg" xmlns:xlink="http://www.w3.org/1999/xlink" 
	 width="800px" height="800px" viewBox="0 0 27.903 27.903"
	 xml:space="preserve">
<g>
	<g>
		<path d="M27.903,9.328c-0.001-0.261-0.331-0.519-0.358-0.54c0.023-0.024,0.318-0.326,0.285-0.584
			c-0.035-0.26-0.395-0.471-0.426-0.489c0.021-0.026,0.271-0.364,0.205-0.616c-0.067-0.252-0.451-0.414-0.485-0.428
			c0.019-0.031,0.224-0.398,0.124-0.638c-0.104-0.246-0.52-0.358-0.541-0.363c0.016-0.036,0.17-0.423,0.039-0.646
			c-0.131-0.227-0.545-0.286-0.58-0.29c0.008-0.031,0.115-0.438-0.045-0.646c-0.158-0.207-0.579-0.211-0.613-0.211
			c0.004-0.034,0.057-0.451-0.129-0.635c-0.185-0.186-0.601-0.135-0.636-0.131c0-0.035-0.003-0.454-0.211-0.612
			c-0.207-0.159-0.614-0.054-0.647-0.046c-0.004-0.035-0.062-0.449-0.289-0.58c-0.226-0.131-0.615,0.025-0.646,0.039
			c-0.01-0.034-0.122-0.438-0.361-0.537C22.346,1.273,21.98,1.48,21.95,1.498c-0.015-0.029-0.179-0.418-0.431-0.484
			c-0.252-0.068-0.588,0.185-0.614,0.205c-0.017-0.027-0.229-0.391-0.489-0.425c-0.261-0.035-0.561,0.261-0.584,0.284
			c-0.02-0.025-0.277-0.358-0.54-0.358c-0.262-0.001-0.521,0.331-0.541,0.358c-0.021-0.021-0.323-0.318-0.582-0.285
			c-0.26,0.033-0.472,0.396-0.489,0.426c-0.024-0.019-0.361-0.273-0.615-0.207c-0.252,0.068-0.416,0.456-0.43,0.488
			c-0.027-0.016-0.396-0.225-0.638-0.125c-0.241,0.099-0.354,0.504-0.362,0.539c-0.027-0.014-0.42-0.172-0.646-0.041l1.419,2.459
			l0.137-0.079c0.039-0.022,0.082-0.042,0.122-0.063l-0.979-2.166l1.123,2.091c0.175-0.088,0.354-0.169,0.543-0.241l-0.682-2.258
			L17.5,3.803l0.578-0.159l-0.377-2.301l0.531,2.258l0.191-0.053l0.006,0.023c0.133-0.025,0.268-0.041,0.399-0.053L18.758,1.2
			l0.229,2.283l0.609-0.004L19.824,1.2l-0.071,2.279l0.192-0.002l-0.002,0.031c0.141,0.012,0.279,0.032,0.415,0.055l0.521-2.221
			l-0.363,2.232l0.596,0.153l0.796-2.106l-0.646,2.146l0.146,0.038L21.401,3.83c0.146,0.053,0.286,0.113,0.428,0.18l1.063-1.979
			l-0.918,2.03l0.541,0.307l1.297-1.805l-1.164,1.88l0.111,0.062L22.745,4.53c0.132,0.092,0.261,0.191,0.386,0.296l0.014-0.015
			l0.006,0.004l1.506-1.603L23.258,4.92l0.445,0.438l1.709-1.398l-1.602,1.504l0.056,0.055l-0.021,0.021
			c0.107,0.128,0.209,0.26,0.305,0.395l0.021-0.011l0.021,0.038l1.868-1.159l-1.789,1.288l0.05,0.083l0.106,0.192l0.157,0.266
			l2.021-0.912l-1.94,1.043l0.021,0.039l-0.024,0.014c0.067,0.15,0.133,0.305,0.188,0.463l0.021-0.006l0.021,0.076l2.105-0.637
			l-2.064,0.781l0.166,0.602l2.178-0.354l-2.139,0.5l0.004,0.013l-0.029,0.008c0.027,0.162,0.05,0.327,0.064,0.49l0.021,0.002
			l0.001,0.111l2.216-0.07l-2.216,0.223l0.005,0.621l2.208,0.221l-2.243-0.069c-0.015,0.153-0.032,0.305-0.059,0.454l0.018,0.005
			l-0.038,0.153l2.188,0.514l-2.227-0.363l-0.154,0.597l2.098,0.792l-2.171-0.654c-0.05,0.131-0.103,0.262-0.162,0.391l0.019,0.009
			l-0.094,0.165l2.006,1.075l-2.082-0.939l-0.302,0.531l1.853,1.331l-1.963-1.216c-0.078,0.108-0.16,0.218-0.248,0.322l0.013,0.012
			l-0.14,0.14l1.689,1.585l-1.801-1.473l-0.424,0.429l1.473,1.797l-1.611-1.713c-0.154,0.127-0.314,0.243-0.479,0.352l1.244,2.009
			l-1.381-1.921c-0.041,0.023-0.078,0.052-0.117,0.074l-0.137,0.078l1.418,2.459c0.226-0.131,0.285-0.543,0.289-0.58
			c0.032,0.01,0.44,0.113,0.647-0.045c0.206-0.16,0.211-0.578,0.211-0.612c0.033,0.004,0.452,0.056,0.638-0.132
			c0.182-0.184,0.133-0.598,0.127-0.635c0.035,0,0.457-0.004,0.614-0.211c0.158-0.207,0.056-0.613,0.045-0.647
			c0.033-0.005,0.449-0.063,0.58-0.289c0.131-0.226-0.024-0.613-0.039-0.646c0.033-0.01,0.438-0.123,0.537-0.363
			c0.101-0.241-0.104-0.604-0.123-0.637c0.033-0.014,0.42-0.178,0.486-0.43c0.065-0.253-0.187-0.588-0.205-0.615
			c0.028-0.018,0.391-0.232,0.426-0.49c0.032-0.26-0.26-0.558-0.285-0.582C27.571,9.849,27.902,9.587,27.903,9.328z"/>
		<path d="M18.023,4.25c-0.407,0.114-0.811,0.275-1.195,0.498l2.049,3.546c-0.527,0.304-0.708,0.978-0.402,1.506
			c0.304,0.526,0.978,0.706,1.504,0.401l2.05,3.549c0.385-0.221,0.726-0.49,1.028-0.785l-2.861-2.932
			c0.007-0.006,0.011-0.012,0.02-0.02l2.93,2.863c0.291-0.298,0.547-0.625,0.754-0.977l-3.525-2.094
			c0.004-0.008,0.01-0.015,0.014-0.021l3.57,2.007c0.203-0.36,0.365-0.743,0.475-1.14l-3.942-1.107
			c0.003-0.008,0.006-0.017,0.008-0.024l3.97,1.013c0.1-0.398,0.15-0.809,0.157-1.224l-4.097-0.049
			c0.001-0.009-0.001-0.017-0.001-0.026l4.101-0.047c-0.005-0.409-0.06-0.82-0.164-1.223l-3.97,1.012
			c-0.002-0.008-0.002-0.017-0.006-0.023l3.942-1.106c-0.109-0.39-0.264-0.774-0.471-1.142l-3.57,2.006
			c-0.002-0.005-0.002-0.01-0.004-0.013s-0.006-0.005-0.01-0.011l3.523-2.089c-0.215-0.362-0.471-0.688-0.754-0.978l-2.93,2.859
			c-0.007-0.006-0.014-0.01-0.019-0.017l2.86-2.931c-0.299-0.292-0.625-0.544-0.977-0.754l-2.092,3.527
			c-0.008-0.006-0.016-0.012-0.021-0.014l2.004-3.572c-0.36-0.201-0.742-0.363-1.139-0.475l-1.105,3.942
			c-0.01-0.003-0.018-0.003-0.026-0.007l1.015-3.967c-0.398-0.102-0.81-0.152-1.225-0.157l-0.048,4.093
			c-0.009,0-0.019,0.001-0.026,0l-0.05-4.097c-0.408,0.003-0.817,0.06-1.222,0.163l1.013,3.968
			c-0.008,0.001-0.017,0.005-0.024,0.007L18.023,4.25z"/>
		<path d="M5.585,14.247c-0.038-0.021-0.076-0.049-0.115-0.074l-1.387,1.93l1.249-2.018c-0.163-0.106-0.324-0.223-0.48-0.35
			l-1.614,1.719l1.479-1.811l-0.426-0.421L2.486,14.7l1.689-1.59l-0.142-0.139l0.019-0.018c-0.088-0.104-0.169-0.211-0.248-0.319
			l-1.97,1.222l1.862-1.34l-0.308-0.525L1.3,12.932l2.009-1.078l-0.098-0.166l0.027-0.014c-0.059-0.127-0.11-0.257-0.159-0.386
			l-2.185,0.658l2.116-0.8l-0.165-0.594l-2.222,0.364l2.181-0.513l-0.04-0.146l0.027-0.004c-0.026-0.151-0.045-0.306-0.059-0.461
			l-2.244,0.07l2.217-0.223L2.7,9.018L0.488,8.796L2.7,8.865L2.698,8.736h0.026c0.015-0.159,0.036-0.32,0.065-0.48L2.769,8.25
			L2.77,8.245L0.628,7.742l2.18,0.355l0.156-0.604L0.9,6.711l2.103,0.635l0.02-0.075l0.029,0.007
			c0.057-0.158,0.12-0.313,0.188-0.463L3.22,6.805l0.022-0.038L1.304,5.728l2.011,0.907l0.047-0.084l0.113-0.19l0.15-0.269
			l-1.8-1.294l1.874,1.161l0.021-0.04l0.027,0.016C3.843,5.8,3.943,5.667,4.052,5.54L4.037,5.525l0.056-0.056L2.489,3.962
			l1.708,1.398l0.44-0.445L3.239,3.208l1.504,1.6l0.009-0.01l0.019,0.02c0.127-0.105,0.258-0.205,0.393-0.301L5.155,4.5l0.096-0.058
			L4.084,2.558l1.298,1.807l0.537-0.314L5.006,2.028l1.062,1.979c0.14-0.064,0.28-0.125,0.423-0.176L6.485,3.812L6.638,3.77
			L5.99,1.618l0.798,2.111l0.594-0.165L7.02,1.35l0.519,2.207c0.139-0.021,0.276-0.041,0.418-0.054V3.481l0.189-0.002L8.075,1.207
			l0.228,2.271l0.61-0.004l0.227-2.27L9.069,3.512c0.133,0.015,0.269,0.03,0.403,0.054L9.476,3.55l0.19,0.049l0.528-2.255
			L9.821,3.643l0.582,0.15l0.821-2.172l-0.679,2.25c0.188,0.072,0.369,0.152,0.544,0.24l1.117-2.081l-0.974,2.156
			c0.041,0.022,0.084,0.041,0.123,0.063l0.138,0.08l1.419-2.459c-0.226-0.129-0.613,0.025-0.646,0.04
			c-0.008-0.032-0.122-0.438-0.363-0.538c-0.242-0.1-0.605,0.105-0.637,0.123c-0.013-0.03-0.178-0.418-0.43-0.486
			c-0.252-0.066-0.586,0.184-0.615,0.207c-0.017-0.029-0.231-0.393-0.49-0.427c-0.258-0.032-0.557,0.26-0.582,0.285
			C9.128,1.047,8.868,0.716,8.608,0.716C8.346,0.717,8.089,1.044,8.067,1.074C8.043,1.05,7.743,0.757,7.483,0.79
			c-0.259,0.035-0.47,0.393-0.488,0.425C6.967,1.194,6.631,0.942,6.379,1.009c-0.253,0.07-0.417,0.455-0.43,0.486
			C5.92,1.477,5.553,1.271,5.313,1.371C5.071,1.472,4.959,1.874,4.95,1.909c-0.032-0.014-0.423-0.17-0.648-0.041
			C4.076,2,4.018,2.415,4.013,2.45c-0.033-0.01-0.44-0.113-0.648,0.045c-0.206,0.16-0.21,0.576-0.211,0.613
			C3.121,3.103,2.703,3.053,2.518,3.237C2.334,3.422,2.386,3.835,2.389,3.872c-0.035,0-0.454,0.006-0.613,0.213
			c-0.161,0.211-0.05,0.628-0.044,0.649c-0.037,0.005-0.45,0.063-0.58,0.289C1.021,5.249,1.178,5.638,1.193,5.669
			C1.161,5.678,0.755,5.79,0.655,6.032C0.554,6.272,0.761,6.638,0.778,6.668C0.747,6.683,0.36,6.846,0.293,7.1
			C0.225,7.35,0.477,7.686,0.498,7.712c-0.03,0.018-0.392,0.23-0.425,0.49C0.039,8.461,0.332,8.762,0.357,8.786
			C0.33,8.807-0.001,9.065,0,9.326c-0.002,0.262,0.33,0.521,0.357,0.541c-0.025,0.025-0.318,0.324-0.284,0.584
			c0.033,0.258,0.395,0.472,0.425,0.488c-0.021,0.027-0.273,0.363-0.205,0.615c0.066,0.254,0.455,0.418,0.486,0.43
			c-0.017,0.028-0.226,0.395-0.125,0.637c0.1,0.242,0.506,0.354,0.538,0.363c-0.013,0.029-0.17,0.42-0.04,0.646
			c0.131,0.229,0.547,0.286,0.582,0.29c-0.01,0.031-0.115,0.438,0.044,0.648c0.159,0.206,0.579,0.211,0.613,0.211
			c-0.004,0.029-0.057,0.448,0.129,0.635c0.185,0.186,0.602,0.135,0.636,0.129c0,0.031,0.004,0.453,0.211,0.613
			c0.207,0.159,0.614,0.055,0.648,0.047c0.003,0.028,0.062,0.446,0.289,0.58l1.419-2.459L5.585,14.247z"/>
		<path d="M5.872,13.751l2.048-3.546c0.527,0.304,1.201,0.124,1.507-0.404c0.303-0.524,0.122-1.2-0.405-1.504l2.049-3.549
			c-0.384-0.222-0.787-0.383-1.194-0.497L8.769,8.194C8.761,8.19,8.752,8.189,8.745,8.188l1.013-3.971
			C9.355,4.113,8.945,4.058,8.535,4.054l-0.05,4.1C8.474,8.153,8.466,8.153,8.458,8.153L8.409,4.057
			C7.995,4.062,7.585,4.114,7.185,4.215l1.013,3.97C8.189,8.186,8.181,8.188,8.173,8.192L7.067,4.248
			C6.671,4.36,6.291,4.52,5.929,4.724l2.005,3.57c-0.008,0.004-0.015,0.01-0.022,0.014L5.82,4.782
			C5.468,4.99,5.142,5.244,4.843,5.535l2.862,2.932c-0.006,0.007-0.013,0.012-0.02,0.018L4.757,5.624
			C4.473,5.913,4.218,6.238,4.003,6.601l3.522,2.09c-0.003,0.004-0.007,0.007-0.009,0.01C7.514,8.705,7.513,8.709,7.511,8.715
			l-3.57-2.006C3.734,7.076,3.58,7.459,3.471,7.85l3.941,1.107C7.41,8.965,7.409,8.974,7.407,8.981L3.436,7.968
			C3.333,8.372,3.278,8.781,3.273,9.19l4.1,0.049C7.372,9.248,7.372,9.258,7.372,9.265L3.277,9.313
			c0.005,0.414,0.057,0.826,0.158,1.223l3.967-1.012C7.405,9.534,7.407,9.541,7.409,9.55l-3.94,1.103
			c0.112,0.396,0.272,0.779,0.476,1.141l3.569-2.006C7.518,9.795,7.523,9.803,7.528,9.81l-3.523,2.091
			c0.208,0.352,0.461,0.68,0.751,0.978l2.931-2.862c0.006,0.008,0.012,0.014,0.019,0.02l-2.859,2.93
			C5.147,13.261,5.488,13.53,5.872,13.751z"/>
		<path d="M22.561,18.579h-2.84v0.158c0,0.045-0.004,0.092-0.006,0.139l2.364,0.236l-2.372-0.074
			c-0.011,0.195-0.031,0.394-0.062,0.592l2.295,0.539l-2.307-0.377l-0.15,0.58l2.182,0.824l-2.222-0.668l-0.05,0.191l-0.023-0.008
			c-0.046,0.129-0.1,0.252-0.152,0.375l2.041,1.096l-2.091-0.943l-0.302,0.529l1.859,1.337l-1.938-1.2l-0.096,0.168l-0.026-0.018
			c-0.08,0.115-0.167,0.225-0.254,0.331l1.662,1.563l-1.751-1.434l-0.432,0.439l1.427,1.742l-1.535-1.633l-0.104,0.107l-0.021-0.02
			c-0.117,0.1-0.242,0.191-0.369,0.281l1.183,1.908l-1.301-1.809l-0.535,0.313l0.914,2.026l-1.045-1.949l-0.111,0.064l-0.012-0.022
			c-0.146,0.067-0.297,0.129-0.449,0.185l0.004,0.02l-0.004,0.003l0.635,2.106l-0.781-2.066l-0.602,0.166l0.355,2.18l-0.502-2.139
			l-0.075,0.021l-0.009-0.029c-0.165,0.031-0.33,0.053-0.495,0.067v0.022h-0.043l0.069,2.197l-0.22-2.195l-0.096,0.002l-0.222-0.004
			l-0.308,0.005l-0.221,2.206l0.069-2.204l-0.045,0.001v-0.03c-0.164-0.016-0.329-0.036-0.494-0.067l-0.005,0.021l-0.076-0.021
			l-0.502,2.143l0.356-2.18l-0.605-0.157l-0.78,2.063l0.634-2.103l-0.013-0.003l0.008-0.025c-0.155-0.058-0.308-0.121-0.457-0.189
			l-0.012,0.018l-0.097-0.055l-1.048,1.953l0.916-2.028l-0.541-0.308l-1.296,1.803l1.182-1.908
			c-0.125-0.089-0.248-0.182-0.364-0.277l-0.013,0.014l-0.113-0.111L8.582,24.7l1.429-1.746l-0.439-0.434l-1.736,1.422l1.652-1.554
			c-0.088-0.108-0.175-0.22-0.256-0.335l-0.018,0.011l-0.096-0.163L7.184,23.1l1.854-1.333l-0.309-0.525l-2.078,0.938l2.034-1.092
			C8.63,20.964,8.577,20.839,8.53,20.71l-0.017,0.005l-0.052-0.188l-2.217,0.67l2.175-0.824l-0.16-0.58l-2.292,0.375l2.288-0.537
			c-0.032-0.198-0.052-0.396-0.063-0.592l-2.361,0.074l2.354-0.236c-0.001-0.045-0.006-0.092-0.006-0.139v-0.158H5.34
			c0.001,0.262,0.329,0.52,0.358,0.541c-0.023,0.022-0.319,0.324-0.285,0.584c0.035,0.258,0.395,0.472,0.426,0.488
			c-0.02,0.026-0.274,0.363-0.206,0.616c0.069,0.251,0.452,0.415,0.486,0.429c-0.017,0.029-0.223,0.396-0.124,0.639
			c0.101,0.24,0.503,0.353,0.539,0.361c-0.013,0.03-0.17,0.422-0.04,0.647c0.131,0.226,0.544,0.284,0.581,0.289
			c-0.008,0.032-0.113,0.44,0.045,0.647c0.16,0.207,0.575,0.211,0.613,0.211c-0.004,0.035-0.055,0.451,0.129,0.637
			c0.187,0.184,0.603,0.133,0.636,0.129c0,0.033,0.005,0.455,0.211,0.613c0.208,0.158,0.613,0.055,0.647,0.045
			c0.004,0.033,0.065,0.451,0.289,0.582c0.227,0.129,0.615-0.027,0.647-0.041c0.009,0.033,0.123,0.438,0.363,0.539
			c0.242,0.099,0.605-0.106,0.637-0.125c0.013,0.031,0.179,0.418,0.43,0.486c0.252,0.066,0.584-0.186,0.614-0.205
			c0.018,0.029,0.232,0.391,0.49,0.426c0.264,0.033,0.569-0.271,0.585-0.287c0.023,0.029,0.281,0.356,0.54,0.356
			c0.261,0,0.52-0.329,0.541-0.358c0.023,0.023,0.323,0.319,0.583,0.285c0.259-0.033,0.474-0.396,0.489-0.426
			c0.027,0.021,0.363,0.273,0.615,0.205c0.252-0.066,0.416-0.451,0.431-0.484c0.03,0.019,0.396,0.225,0.636,0.123
			c0.242-0.1,0.354-0.504,0.363-0.537c0.033,0.014,0.421,0.17,0.646,0.039c0.228-0.129,0.285-0.545,0.291-0.58
			c0.033,0.01,0.438,0.113,0.646-0.045c0.208-0.158,0.211-0.578,0.211-0.613c0.032,0.005,0.45,0.056,0.635-0.129
			c0.187-0.186,0.134-0.604,0.129-0.637c0.033,0,0.455-0.002,0.613-0.211c0.159-0.207,0.054-0.615,0.045-0.646
			c0.032-0.004,0.449-0.062,0.581-0.289s-0.025-0.616-0.04-0.646c0.03-0.009,0.438-0.121,0.538-0.363
			c0.102-0.24-0.105-0.605-0.124-0.637c0.028-0.012,0.418-0.176,0.485-0.43c0.068-0.252-0.185-0.588-0.205-0.615
			c0.027-0.016,0.391-0.229,0.426-0.488s-0.26-0.56-0.285-0.584C22.227,19.102,22.561,18.843,22.561,18.579z"/>
		<path d="M8.752,18.737c0,0.443,0.063,0.873,0.167,1.283l3.97-1.012c0.001,0.008,0.005,0.016,0.007,0.023L8.951,20.14
			c0.112,0.4,0.269,0.784,0.47,1.141l3.575-2.007c0.004,0.009,0.008,0.017,0.012,0.022l-3.523,2.09
			c0.212,0.355,0.461,0.688,0.75,0.98l2.931-2.861c0.005,0.007,0.012,0.013,0.018,0.019l-2.862,2.931
			c0.294,0.287,0.625,0.537,0.98,0.748l2.09-3.521c0.007,0.005,0.015,0.008,0.023,0.014l-2.008,3.573
			c0.356,0.2,0.739,0.356,1.141,0.47l1.108-3.943c0.009,0.002,0.016,0.006,0.024,0.008l-1.014,3.967
			c0.392,0.102,0.801,0.159,1.223,0.164l0.048-4.096c0.005,0,0.01,0.003,0.014,0.003s0.008-0.003,0.014-0.003l0.048,4.096
			c0.421-0.005,0.831-0.062,1.223-0.164l-1.012-3.967c0.008-0.002,0.016-0.006,0.024-0.008l1.107,3.943
			c0.402-0.111,0.783-0.27,1.141-0.47l-2.008-3.573c0.008-0.005,0.017-0.009,0.022-0.013l2.089,3.521
			c0.356-0.211,0.688-0.461,0.98-0.748l-2.86-2.93c0.007-0.007,0.012-0.013,0.019-0.02l2.929,2.861
			c0.288-0.295,0.538-0.625,0.749-0.981l-3.521-2.089c0.005-0.008,0.008-0.016,0.013-0.022l3.573,2.007
			c0.201-0.355,0.357-0.738,0.471-1.141l-3.943-1.105c0.002-0.01,0.004-0.018,0.008-0.025l3.967,1.012
			c0.104-0.41,0.167-0.84,0.167-1.283h-4.095c0-0.607-0.494-1.103-1.104-1.103c-0.606,0-1.1,0.493-1.1,1.103H8.752L8.752,18.737z"/>
	</g>
</g>
</svg>