<?xml version="1.0" encoding="iso-8859-1"?>
<!-- Uploaded to: SVG Repo, www.svgrepo.com, Generator: SVG Repo Mixer Tools -->
<!DOCTYPE svg PUBLIC "-//W3C//DTD SVG 1.1//EN" "http://www.w3.org/Graphics/SVG/1.1/DTD/svg11.dtd">
<svg fill="#000000" version="1.1" id="Capa_1" xmlns="http://www.w3.org/2000/svg" xmlns:xlink="http://www.w3.org/1999/xlink" 
	 width="800px" height="800px" viewBox="0 0 28.346 28.346"
	 xml:space="preserve">
<g>
	<g>
		<path d="M10.155,5.353c0,0-0.986,3.005-2.562,4.707c-2.244,2.423-4.527,0.715-4.527,0.715l-0.079,0.993
			c0,0,2.695,0.535,2.602,2.403c-0.06,1.171-1.39,2.045-3.158,3.257c-1.226,0.84-2.228,1.905-2.358,2.177
			c-0.293,0.606,0.373,2.231,1.048,2.152s5.144-1.23,6.335-3.139c0.85-1.359,2.108-5.784,3.138-6.254
			c1.391-0.636,2.165,1.788,2.165,1.788l1.827-1.628c-1.132-1.211-1.271-2.78-1.251-4.309C13.353,6.684,10.155,5.353,10.155,5.353z"
			/>
		<path d="M28.167,20.386c-0.238-0.773-0.854-1.708-1.569-2.363c-0.508-0.466-1.528-2.025-1.528-2.025s1.092,2.404-0.258,2.462
			c-3.258,0.139-4.627-3.019-4.607-3.813c0.02-0.794,1.211-1.351,2.582-1.251c1.371,0.099,1.509,0.845,1.509,0.845l0.101-0.944
			c0,0-0.637-0.913-1.609-0.794c-0.973,0.119-2.721,0.734-3.634,0.814c-0.914,0.08-1.668-3.118-1.668-3.118s-0.814,1.39-0.895,2.8
			s0.993,1.945,1.281,2.681s0.308,1.946,0.308,1.946l0.834,0.654l1.37-0.437c0,0,0.531,1.657,0.974,3.039
			c0.441,1.382,3.217,2.205,5.302,2.104C28.744,22.889,28.406,21.161,28.167,20.386z"/>
	</g>
</g>
</svg>